<svg xmlns="http://www.w3.org/2000/svg" viewBox="0 0 447.37 383.33"><g id="Layer_2" data-name="Layer 2"><g id="Layer_1-2" data-name="Layer 1"><g id="ju00OO.tif"><path d="M223.63,383.24q-109,0-218,.09c-4.2,0-5.84-.72-5.53-5.34a152.43,152.43,0,0,0,0-20.94c-.37-5.09,1.49-5.87,6.08-5.82,23,.24,45.91,0,68.86.21,4.25,0,5.14-1.18,5.11-5.25-.17-33.93,0-67.86-.18-101.79,0-3.89,1-5,4.92-4.94q139,.16,277.92,0c4.25,0,4.74,1.52,4.72,5.12-.11,33.6.08,67.2-.21,100.79,0,5.27,1.53,6.14,6.33,6.09,22.95-.25,45.91,0,68.86-.2,4,0,5.06,1.07,4.9,5-.31,7.47-.31,15,0,22.45.15,3.74-.93,4.69-4.67,4.68q-73.1-.19-146.2-.09Zm.1-31.9c14.46,0,28.92-.09,43.38.06,3.23,0,4.66-.46,4.62-4.22-.19-19.61,0-39.23-.12-58.84-.05-10.07-6.87-16.82-17-16.86q-30.66-.11-61.33,0c-10.83,0-17.42,6.6-17.46,17.41-.07,19.44.05,38.89-.09,58.33,0,3.23.82,4.23,4.12,4.19C194.48,351.24,209.1,351.34,223.73,351.34Z"/><path d="M223.35,207.58H25.83a27.86,27.86,0,0,1-4.48-.1,5.69,5.69,0,0,1-5.16-5.25c-.39-3.3,1.27-5.49,4.26-6.47,6.46-2.13,13-4.07,19.46-6.1,16.77-5.27,33.58-10.46,49.36-18.36,4-2,8.16-4,11.56-6.8,4.8-4,9.93-4.91,16-4.9q108.48.26,217,.05a15.79,15.79,0,0,1,10,3.15c15.26,11.08,32.94,17,50.6,22.8,10.07,3.32,20.24,6.34,30.38,9.46,3.73,1.14,7.15,2.69,6.39,7.41s-4.36,5.14-8.32,5.14Q323.11,207.55,223.35,207.58Z"/><path d="M223.37,127.75H72.19c-1.16,0-2.33,0-3.49,0-2.49.08-4.27-.88-4.59-3.5s1.08-4,3.51-4.64c8.49-2.25,17-4.4,25.45-6.87,11.81-3.45,23.32-7.68,33.64-14.62a58.05,58.05,0,0,0,15.65-15.2c1.44-2.09,2.86-3.12,5.59-3.12q75.6.15,151.18.06c1.88,0,3.42.11,4.67,2,9.19,13.79,22.86,21.38,37.93,26.92,11.38,4.19,23.11,7.16,34.86,10.08a25.34,25.34,0,0,1,4.75,1.44,3.65,3.65,0,0,1,2,4.19,3.46,3.46,0,0,1-3.29,3.19c-1.82.15-3.65.09-5.48.09Z"/><path d="M223.68,47.89H103c-2.5,0-5.09.3-6.53-2.47-1.71-3.3.14-6.34,4.78-7.39C114.84,35,128.48,32.15,142,28.88c15-3.63,26.86-11.35,32.68-26.37C175.53.32,176.87,0,178.87,0q44.88.06,89.75,0c1.72,0,3.18,0,4,2.09,6.37,17,20.31,24.11,36.74,27.83,11.8,2.67,23.62,5.24,35.44,7.8,3.35.73,7,1.31,6.59,5.84-.45,5.1-4.58,4.31-8,4.32Z"/></g></g></g></svg>