<svg xmlns="http://www.w3.org/2000/svg" viewBox="0 0 510.9 322.1"><g id="Layer_2" data-name="Layer 2"><g id="Layer_1-2" data-name="Layer 1"><g id="xkXOgX.tif"><path d="M0,206.46C5,192,12,178.25,14.53,163c1.61-9.57,1.47-19.16,1.66-28.78.31-15.8,1.25-31.54,6.87-46.54C27.89,74.76,35.47,64.56,50,61.48c3.47-.74,7.19-1.29,10.38-.3,9,2.81,17.79.06,26.61-.54a452.26,452.26,0,0,1,71.75.8,505.51,505.51,0,0,0,71.75,1c27.22-1.4,54.37-3.84,81.36-7.57,19.2-2.66,38.81-2.74,57.46-8.9,4.6-1.52,9-3.42,12.66-6.69,15.78-14,34.68-21.82,54.76-27.17,3.32-.88,6.28-1.42,6.94-5.64.26-1.64,1.65-3.28,2.9-4.54,3.2-3.23,6.92-2.4,8.59,1.88a24.08,24.08,0,0,1,1,4.83c.71,4.56,4.37,6.48,8.33,4.32,2.94-1.6,5.92-3.05,9.4-2.82,1.93.13,3.68.84,4.43,2.71s-1,2.91-2.18,4c-2.4,2.16-6.93,3.15-7,6.23-.09,2.6,3.08,5.26,4.68,8,6.93,11.71,13.79,23.46,20.72,35.17A64.2,64.2,0,0,0,504,79c6.62,6.65,7.92,14.57,6.28,23.43-1.44,7.82-4.13,15-9.43,21.06-4.43,5-7.18,5.3-12.32,1.16-4.39-3.55-8.53-7.42-12.83-11.07a48.18,48.18,0,0,0-29.41-11.93C437.31,101.17,431,105,426,112c-7.37,10.18-12.42,21.55-16.84,33.19-7.47,19.66-14.59,39.46-22.06,59.13-1.88,4.93-4.58,9.56-6.83,14.36-3.33,7.09-2.89,14.9-3.94,22.4-3,21.51-5.54,43.09-8.39,64.63-1,7.46-5.94,12.08-12.3,12s-11.16-4.72-12-12.3c-2.85-25.39-5.53-50.79-8.29-76.19-.52-4.78-1.69-9.56-1.59-14.33s-2.47-6.24-6.3-7.09c-8-1.77-15.83-1-22.67,3.14-10.43,6.35-21,5.91-32.16,3-17.46-4.65-34.55-10.68-52.39-13.91-4.08-.74-8.18-1.38-12.27-2.07-9.2-1.56-12.4.82-13.4,10.14-.35,3.3-1.43,4.24-4.35,1.94-3.8-3-8.95-1-13-3.21-1.58,3.62-6.05,5.14-6.84,9.35-.31,1.63-.51,3.47-2.33,4.11s-2.89-1-4.05-2.17c-2.95-3.07-10-2.37-12.23,1a30.21,30.21,0,0,1-4,5.1c-1.67,1.62-2.63,3.17-2.19,5.63.35,1.92.57,4.26-1.74,5.21-2.16.9-3.23-1-4.38-2.42-.62-.74-1.06-1.74-2.34-1.41a28.93,28.93,0,0,1-12.8.3c-3.16-.58-6.31,5.56-5.14,9.46q6.4,21.44,12.89,42.82c2,6.66,4,13.32,6,20,2.88,9.59,1.3,13.47-7.42,18.37h-7c-4.2-2.54-6.87-6.33-9.25-10.55C105.14,295,95.57,278.5,86.05,262c-.79-1.36-1.22-3-3.36-4.24,0,1.95,0,3.51,0,5.08.37,14.42.47,28.85,1.26,43.25.4,7.24-1.68,12.55-8.1,16h-8C63,319,60.64,314.47,59.09,309q-11-38.94-22.5-77.75a19.71,19.71,0,0,1-.07-11.21c5.24-19,10.34-38,15.56-57a13.86,13.86,0,0,0,.31-6.31c-2.69-15.53-4.43-31.17-5.59-46.9-.81-11-.72-22-1.1-33.7a21.85,21.85,0,0,0-7.29,7.49c-6.9,11.07-9.08,23.59-9.34,36.18-.53,25.61-1.15,51.09-11.11,75.26a4.84,4.84,0,0,0-.35,3.38c3.5,11.38,2.79,22.95,1.28,34.52a91.46,91.46,0,0,1-4.84,20.76c-.74,2-1.08,5-3.31,5s-2.59-3.11-3.41-5c-1-2.27-1.56-4.71-2.35-7.06-2.56-7.55-3-15.55-5-23.23ZM466.63,64.25c3.12-.4,5.41-2.19,5.35-5.67a5.22,5.22,0,0,0-5.43-5.35c-3.31,0-5.6,2-5.54,5.65C461.06,62.26,463.1,63.87,466.63,64.25Z"/></g></g></g></svg>