<svg xmlns="http://www.w3.org/2000/svg" viewBox="0 0 420.16 274.02"><g id="Layer_2" data-name="Layer 2"><g id="Layer_1-2" data-name="Layer 1"><g id="IOXeL6.tif"><path d="M32.74,266.36c.2.44.69,1.06.55,1.3-2.56,4.37-6.93,2.45-10.59,2.94-2.64.35-4.36-.59-4.62-3.7-.74-8.77-1.82-17.51-2.54-26.28-.87-10.6-1.51-21.21-2.35-33.36-1.95,5-3.32,8.66-4.8,12.29-1.14,2.78-2.5,5.44-5.14,7.18-.84.56-1.77,1.25-2.69.5s-.51-1.89,0-2.73c8.71-14.17,8.79-30.38,10.92-46.1,1.34-9.88-.93-19.53-2.38-29.19-3-20.22-5.59-40.46-6.22-60.93-.71-23,9.42-36,32.24-38.62,17.63-2,35.25-5,53.14-3.7,9.34.66,18.36,3,27.33,5.28s17.77,1.7,26.72,1.31c21.68-1,42.6-6.73,63.91-10,14.61-2.24,29.21-4.62,44.06-4.52,4.85,0,9.66.29,14.23,2,2.24.85,4.28.17,6.32-.32,19.22-4.52,38.4-9.19,57.65-13.6,3.07-.7,3.78-2,3.27-4.79A22.51,22.51,0,0,1,332.06,11c1-3.51,3.29-4.86,6.85-3.26a7.36,7.36,0,0,1,1.78.87c7,5.91,12.84,3.15,18.46-2.2,2.13-2,4.41-3.91,7.2-6.37.65,3.31,0,5.8-.35,8.33-.84,5.67.62,6.89,5.82,4.73,6.35-2.64,11.87-6.62,17.09-11,.81-.69,1.54-2.26,2.81-1.48s.86,2.39.43,3.63a24.67,24.67,0,0,1-1.69,3.61c-1.4,2.55-4.69,4.82.36,7.51,1.91,1,1,4.34.45,6.58a11.82,11.82,0,0,1-3.54,5.93c-3.42,3-2.3,5.47.42,8.2a163.39,163.39,0,0,0,21.24,18.08,28.76,28.76,0,0,1,9.12,10.39c3.12,6,1.87,10.1-4.15,13.15-6.83,3.47-14.26,5.17-21.75,4-12.35-1.87-24.54-.15-36.8.26-2.82.1-5.78.69-8.45.07-5.92-1.39-10.13,1.07-14.25,4.78-4.81,4.33-10.28,7.92-14.44,13a34.77,34.77,0,0,0-7.24,13.47c-2.2,8.51-7.24,15.3-13.9,20.8-5.31,4.39-9.61,9.6-13.84,14.95-6.09,7.71-12.47,15.14-21,20.42-2.32,1.45-4.51,1.91-5.86,6-5.83,17.6-7.3,36.08-12.28,53.79-1.87,6.61-.08,13,2.18,19.44,2.05,5.88,4.78,10.71,10,14.24a13.73,13.73,0,0,1,3.73,4.6c1.06,1.83.5,3.3-1.93,3.2-10.3-.42-20.6-.79-30.88-1.41-2.79-.16-5.14-4.87-3.41-8,2.94-5.37.46-9.73-1.78-14-2-3.76-1.91-6.9-.4-10.77,3.8-9.76,2.74-20.06,1.64-30.05-1.06-9.69-3.8-19.19-5.57-28.82-.48-2.63-1.49-3.25-4-2.88-29.1,4.36-58.42,6.59-87.73,8.9-3.64.29-7.27,1.15-10.9,1.11-7.45-.09-10.84,6.47-16.25,9.66-1.92,1.13-.32,4.74-.94,7.14-.23.91.25,2.17-.9,2.62s-2-.61-2.23-1.44c-1.65-6.1-5.8-5.65-10.51-4.32a21,21,0,0,1-5.43.64c-4.07,0-7.48.89-8.71,5.5-.27,1-1.1,2.45-2.41,2.15-1.56-.36-1.76-2.16-1.37-3.28,1.34-3.8-1-4.41-3.79-5.26-11.51-3.45-10.94-3.24-16.2,7.48-6,12.15-6,23,2.19,34.3,6.29,8.71,10.88,18.63,16.5,27.84,2,3.23,1.14,4.17-2.15,4.78A108.06,108.06,0,0,1,46.46,274c-6.21.17-10.35-2.94-13.73-7.65,1.13-5.09.26-10.19.15-15.29A62.09,62.09,0,0,0,32.74,266.36ZM23,163.48c.78-2.34,1.66-4.65,2.33-7,3.41-12.09,4.61-23.81-1.4-35.86-4.71-9.48-7.15-20-11-30.09C8.51,115.71,15.05,139.5,23,163.48Zm8.06-8.83h-.55v22.46h.55Zm208.1,86.18.49.43V220.34h-.49Z"/></g></g></g></svg>