<svg xmlns="http://www.w3.org/2000/svg" viewBox="0 0 489.53 511.05"><g id="Layer_2" data-name="Layer 2"><g id="Layer_1-2" data-name="Layer 1"><g id="_2dxLrr.tif" data-name="2dxLrr.tif"><path d="M178,511.05c-.3-1.33-1.72-1.42-2.5-2.22-2.81-2.9-3.76-6.3-2.31-10.06a8.25,8.25,0,0,1,8-5.64c5.15-.07,10.31-.16,15.46,0,2.55.08,3.51-.61,3.46-3.32-.14-8.48,0-17,0-25.45,0-2,.11-3.45-2.91-2.85C171,466.68,146,462.83,122,451.44c-8.53-4.05-17.34-7.55-26.13-11.05-20.82-8.3-37.37-21.88-50.55-39.91-11.17-15.28-21.52-31.27-36-43.86q-3-2.62-6.06-5.2a8.63,8.63,0,0,1-2.73-9.93,8.27,8.27,0,0,1,7.88-5.95c15.21-.06,30-2.84,44.88-5.56,8.79-1.61,18.1,1.4,27.1,2.95,25.07,4.31,49.23,12.19,73.7,18.85,29.64,8.07,57.36,3.72,83.1-12.54,33.39-21.1,60.77-48.33,81.44-82.13,1.65-2.69,3.25-5.45,3.3-8.75,0-3-1.25-4.34-4.38-3.29a19.07,19.07,0,0,0-7.42,4.91c-12,12-23.85,24.12-35.83,36.13-12.82,12.85-26.13,25.12-41.46,35-18.07,11.67-37.42,18.53-59.32,16.23-9.79-1-19.19-3.72-28.6-6.41-17.85-5.1-35.64-10.49-54-13.77a17.55,17.55,0,0,1-2.55-.87c.26-.48.37-1,.67-1.16,27.06-14.88,51-34.2,75.67-52.58,24.43-18.22,49.63-35.16,78.21-46.33,9.26-3.62,18.86-6.39,28.08-10.11C296,196,310.45,176.59,318.6,151.73c6.22-19,9.31-38.67,13.15-58.2,3.9-19.87,8.7-39.42,15.62-58.56,12-33.31,55.2-45.59,84.69-24.65,11.21,8,18.28,18.68,20.24,32.44a11.51,11.51,0,0,0,2.48,5.3q16.35,22.63,32.68,45.28c1.24,1.72,3.09,3.32,1.37,5.72s-3.89,1.23-5.88.62c-15.52-4.8-31-9.7-46.56-14.45-10.88-3.33-21.17-1.71-31.3,3.39-9.13,4.59-11.19,12.53-11.52,21.53-.67,18.15.76,36.22,2.39,54.28,3.61,40,8.36,80,5.56,120.39-3.18,46-23.75,81-63.56,104.84-27.39,16.41-56,30.5-84.17,45.36-11.17,5.89-21.56,13.17-33.09,18.38-2,.9-2.49,2.3-2.47,4.34.08,10.64.16,21.29,0,31.93,0,3.05,1.29,3.52,3.89,3.48,8.31-.12,16.64.09,25-.09,5-.11,9.46.45,11.54,5.72,2.14,5.46-.9,9.09-4.82,12.27Zm220.46-469a10.82,10.82,0,0,0,11,10.91,11,11,0,0,0,10.7-10.86,11.32,11.32,0,0,0-10.67-11A10.92,10.92,0,0,0,398.42,42.09Z"/></g></g></g></svg>