<svg xmlns="http://www.w3.org/2000/svg" viewBox="0 0 357.92 335.37"><g id="Layer_2" data-name="Layer 2"><g id="Layer_1-2" data-name="Layer 1"><g id="_5DsZFh.tif" data-name="5DsZFh.tif"><path d="M0,176.23c5.2.86,9.53-.33,13.8-1.63Q179.43,124.19,345.05,73.73c4.31-1.31,8.46-2.91,11.78-6.14,1.62.93.95,2.42.95,3.59q.06,75.57,0,151.15c0,12.43-6.77,20.54-19.58,24.24Q220.62,280.5,103,314.47q-34.17,9.88-68.34,19.77C21.74,338,14.42,332.37,13.3,318.8c-1.91-23.17-4.3-46.31-6.47-69.47C4.56,225.2,2.32,201.07,0,176.23Zm109.49,56.32c.18,2.31.26,4.64.54,6.95,1,8.19,5.44,13.23,13,14.16a45.9,45.9,0,0,0,26.61-4.38c8.25-4.12,12.18-10.77,11.48-20.18-1-14.12-7.54-21.81-19.2-22.36a42.49,42.49,0,0,0-17.08,2.67C113.24,213.76,109,220.23,109.49,232.55Zm129.45-66.7H239c0-1.83,0-3.66,0-5.48-.18-8.36-3.2-11.82-11.54-13.61a51.32,51.32,0,0,0-11.39-.95,23.36,23.36,0,0,0-23.13,23.24c0,12.42,10.74,22.78,23.62,22.76,14.69,0,22.18-7.38,22.38-22C239,168.51,238.94,167.18,238.94,165.85ZM304.78,212c.24-10.91-7.88-19.8-18.41-20.17A19.29,19.29,0,1,0,304.78,212Z"/><path d="M8.58,158.31c.87-1,1.71-2,2.61-2.9C55.75,108.77,100.15,62,145,15.59c14.52-15,32.6-19.28,52.59-12.38q72,24.81,143.79,50a9.93,9.93,0,0,1,4.1,2.55C233.56,91.06,121.31,124.88,8.58,158.31Zm179.7-90a23.54,23.54,0,0,0,8-1.28c4.37-1.52,8.71-3.36,9.37-8.52s-2.76-8.72-6.79-11.29c-9.67-6.16-20-7.51-30.84-3.37-7.49,2.87-9,8.9-3.64,14.79C170.43,65.26,178.09,68.31,188.28,68.33Z"/></g></g></g></svg>