<svg xmlns="http://www.w3.org/2000/svg" viewBox="0 0 497.43 387.88"><g id="Layer_2" data-name="Layer 2"><g id="Layer_1-2" data-name="Layer 1"><g id="getzLR.tif"><path d="M36.66,347.27c22.73-.17,42.86-2,62.76-6.34,30.1-6.62,53.72-22.79,72.12-47.3,15.61-20.81,28.61-43.19,41.23-65.84,6.22-11.18,12.45-22.36,19.09-33.29a105.09,105.09,0,0,1,28.91-30.65c14.43-10.39,24.41-10.21,38.46.48,17.24,13.1,32.95,28,48.8,42.65a66.88,66.88,0,0,1,13.28,17.37q8.49,15.72,1.51,32.13a100.69,100.69,0,0,1-20.06,30.16C302,329.21,254.83,362,197.93,379.43c-22.77,7-46.32,8.9-70,8.37-34-.78-67.49-5.72-100.06-15.9-8.07-2.52-16.09-5.33-23.32-9.89-5.72-3.62-6-7.79-1-12.37a14.55,14.55,0,0,1,11.08-3.54C22.78,346.56,30.92,347,36.66,347.27Z"/><path d="M371.55,212.15,307.62,150c18.77-4.4,36.28-6.26,52.57,4.59,2.78,1.85,4.12,1.21,6.31-.47,19.9-15.26,30.81-35.73,34.77-60.14,2.18-13.43,3.78-26.95,5.8-40.41,3.75-25,18.28-40.52,42.42-47.36C464.9,1.86,480.66.45,497.43,0c-4,8.24-7.61,15.83-11.3,23.38-1.19,2.42-3.14,1.05-4.8.71-11.28-2.34-22.64-3.86-34.12-1.85-17.64,3.1-24.69,15.82-28,31.62-3.25,15.47-3.66,31.33-6.07,46.92-3.3,21.45-9.69,41.42-26.88,56.23A62.18,62.18,0,0,1,374,165.5c-2.48,1.27-3.08,2.67-2.25,5.53C375.55,184.29,374.23,197.59,371.55,212.15Z"/></g></g></g></svg>