<svg xmlns="http://www.w3.org/2000/svg" viewBox="0 0 304.49 511.09"><g id="Layer_2" data-name="Layer 2"><g id="Layer_1-2" data-name="Layer 1"><g id="vcQYRz.tif"><path d="M0,122.76c1.78-7.14,1.12-14.5,1.89-21.74C3.86,82.66,7,64.58,12.53,46.93c1.1-3.5,2.77-4.53,6.34-4.53q80.46.16,160.92,0c4,0,5.45,1.55,6.53,5,7.39,23.45,10.76,47.59,11.71,72,1,26-.21,51.83-5.6,77.35-5.33,25.19-18.11,46.49-34.6,65.84-8.41,9.86-17.18,19.41-25,29.81a89.12,89.12,0,0,0-18.24,55.2c.14,39.25-.13,78.49-.22,117.73,0,11.93,3.78,16.5,15.4,18.75,13.16,2.56,26.51,4.21,39.43,8a63.48,63.48,0,0,1,7.92,2.88c2.71,1.2,6,2.51,5.69,6.09s-3.63,4.57-6.48,5.41a66.06,66.06,0,0,1-10.65,2.38,234.32,234.32,0,0,1-30.29,2c-30.71-.08-61.44,1-92.13-.91-7.29-.45-14.57-1.16-21.56-3.42-2.9-.94-6.55-1.82-6.64-5.75-.08-3.6,3.22-4.79,5.91-6,9.48-4.19,19.7-5.64,29.77-7.61,6-1.18,12.09-2,18.1-3.23,10.66-2.12,14.85-7.35,14.85-18.38,0-38.24-.6-76.5.22-114.73.54-25.19-7.69-46.41-23.51-65.36C50.87,274,40.68,263,31.67,251.07,14.86,228.75,5.51,203.7,2.8,175.88c-1.08-11-1.13-22.17-2.8-33.16Z"/><path d="M291.05,0c13.14,40.13,15.29,81.27,12.18,123.1-2.35,31.57-10.82,60.63-30.34,86-8.52,11.08-18,21.35-26.91,32.08-10.94,13.17-20,27.32-23.27,44.51A78.26,78.26,0,0,0,221.18,300q-.27,60.63-.66,121.25c-.07,13.25,3.26,17.5,16.11,20.24,12.63,2.69,25.5,4.19,38,7.67A44.53,44.53,0,0,1,284.82,453c2.17,1.23,4.57,2.48,4.28,5.52-.25,2.72-2.5,3.75-4.66,4.67-5.89,2.5-12.18,3.33-18.44,3.75-36.5,2.45-73.05,1.66-109.57.88a115.55,115.55,0,0,1-24.2-2.75,29.38,29.38,0,0,1-4.31-1.15c-2.73-1.11-6.13-1.86-6.42-5.47s3-4.88,5.64-6.16a52.8,52.8,0,0,1,12.74-4.1c11.86-2.37,23.74-4.6,35.6-7,10.32-2.05,14.48-7,14.49-17.56q.1-62.87,0-125.74a67.8,67.8,0,0,0-6.27-28c-1.24-2.73-1.15-4.67.77-7.15C205.1,236,214.86,205.4,217.52,172c1.79-22.43,2.67-44.82.76-67.24-2.33-27.39-7-54.29-18.05-79.74-1.33-3-3.06-3.69-6-3.68-24.92.1-49.84,0-74.75.14-4.45,0-5.46-1.06-4-5.38,1.77-5.34,2.9-10.89,5.19-16.07Z"/></g></g></g></svg>