<svg xmlns="http://www.w3.org/2000/svg" viewBox="0 0 391.38 364.71"><g id="Layer_2" data-name="Layer 2"><g id="Layer_1-2" data-name="Layer 1"><g id="_28jlQz.tif" data-name="28jlQz.tif"><path d="M158.63,37.18c12.81-16.44,28.64-27.76,48.27-33.5C260.79-12.06,316.68,24.4,323.77,79.93c.5,3.94-.45,8.72,1.48,11.66s7.29,2,11.08,3c33.79,9.49,56.9,40.81,54.93,74.72-2.09,36.07-28,65.18-63.64,70-27,3.65-49.76-5.4-67.4-26.38-2.4-2.85-3.3-3.26-6-.23-16.28,18.35-37.59,27.52-61.12,31.82-27.37,5-54.25,3-80.2-7.62a9.13,9.13,0,0,0-6.25,0C55.78,250.52,6.94,217.42.56,165c-5.18-42.49,26.43-84.09,69-91,4.79-.77,10.88.82,14-1.62S83.5,63.68,84,59c1.88-17.37,10.74-29.64,27-35.68,16.45-6.13,31.34-2.39,44,9.82C156.15,34.31,157.2,35.6,158.63,37.18Z"/><path d="M199.93,364.64c-33.42,0-66.84-.06-100.26.07-4.07,0-5.9-.83-6.88-5.35-7.53-34.5-15.42-68.92-23.3-103.34-.81-3.53-.12-4.93,3.69-4.28,11.34,2,22.53.61,33.57-2.06,3.25-.78,5.83.59,8.61,1.49,39.42,12.81,78.09,11.29,115.9-6.11a89.23,89.23,0,0,0,22.12-14.26c2.66-2.37,4.22-2.37,6.95.06,15.74,14,34.4,21,55.38,21.73a72.23,72.23,0,0,0,11.91-.85c3.66-.49,4.55.41,3.66,4.2-4,16.93-7.76,33.94-11.58,50.92-4,17.79-8.11,35.56-11.91,53.4-.75,3.5-2.15,4.44-5.6,4.42-34.09-.12-68.17-.07-102.26-.07Zm29.34-15,.12.82c13.25,0,26.49-.08,39.73.06,3.22,0,3.32-2,3.66-4.14.87-5.57,1.71-11.14,2.59-16.7,2.88-18.18,5.8-36.35,8.62-54.53.17-1.13,1.79-2.77-.94-3.47-7.07-1.81-10.05.16-11.33,7.4-3.41,19.42-7.06,38.81-10.32,58.26-.63,3.75-2.39,5.17-5.8,5.93C246.79,345.27,238,347.52,229.27,349.66Zm-65.8,0,.1.83c12.55,0,25.1-.15,37.64.09,3.9.08,5-1,5-4.92q-.3-34.39,0-68.8c0-4.14-1-5.58-5.19-5.25-3.54.27-6.52-.61-6.41,5.1.4,20.1,0,40.22.27,60.32,0,4-1.42,5.46-5,6.26C181,345.24,172.26,347.5,163.47,349.65Zm-58,0,.11.83c13.4,0,26.79,0,40.18,0,2.76,0,2.26-1.61,2-3.31C143.88,323.1,140,299,136.2,274.93c-.41-2.64-1.49-3.38-3.87-3.22a25.89,25.89,0,0,1-4.49,0c-3.17-.36-3.78.53-3.15,3.86,3.88,20.37,7.34,40.82,11.17,61.2.77,4.15-.24,5.84-4.46,6.7C122.71,345.2,114.13,347.54,105.5,349.64Z"/></g></g></g></svg>