<svg xmlns="http://www.w3.org/2000/svg" viewBox="0 0 351.66 420.26"><g id="Layer_2" data-name="Layer 2"><g id="Layer_1-2" data-name="Layer 1"><g id="EixaFk.tif"><path d="M176,0q82.71,0,165.43,0c4.08,0,7.74.49,9.47,4.74s.31,7.59-2.5,10.86q-79.67,92.58-159.3,185.2a8,8,0,0,0-2.2,5.64c.06,56.69.2,113.39-.08,170.09-.05,10.46,12.22,28.09,23.86,29.52,13.1,1.62,25.94,5.34,38.85,8.31,2.64.61,7,1.17,6.73,3.89-.28,3-4.47,1.75-6.95,1.76q-74.45.11-148.89,0c-2.1,0-5.47.94-5.83-1.71-.31-2.28,3.08-2.94,5.16-3.42,13.73-3.16,27.5-6.18,41.27-9.2,12-2.63,23-16.26,23-28.66q0-85,.05-170.1a8.55,8.55,0,0,0-2.24-6.05Q83.2,109.14,4.63,17.29a32.7,32.7,0,0,1-2.9-3.65A9.2,9.2,0,0,1,1.06,4C2.68.89,5.52,0,8.89,0Q41.13.07,73.37,0H176ZM312.24,23.15H39.6c-.1,1.39.83,2,1.43,2.66Q107,102.49,172.84,179.2c2.35,2.75,3.4,3.31,6.08.15q58.77-69.14,117.82-138Z"/></g></g></g></svg>