<svg xmlns="http://www.w3.org/2000/svg" viewBox="0 0 442.45 510.93"><g id="Layer_2" data-name="Layer 2"><g id="Layer_1-2" data-name="Layer 1"><g id="enMvYI.tif"><path d="M442.45,21c-1.64,3.93-2.5,8.21-5.65,11.44a20.14,20.14,0,0,1-15.1,6.48c-15.63-.05-31.26.1-46.89-.1-3.39,0-5,1.1-6.28,4.13q-19,44.15-38.39,88.13c-1.86,4.19-1,4.91,3.23,4.81,9.63-.22,19.29.09,28.93-.11,8.38-.18,14.5,3.18,18,10.82,3.28,7.23,1.5,14.39-4.94,20.83q-82.71,82.74-165.52,165.4a12.14,12.14,0,0,0-4,9.51q.22,66.36,0,132.73c0,4.67,1,6.21,5.92,6.13,20.95-.29,41.9-.16,62.86-.08a15,15,0,0,1,14.72,10.57,15.36,15.36,0,0,1-5.06,16.62,11.06,11.06,0,0,1-7.28,2.66q-86-.09-172.1-.06c-7,0-13-6.48-13.26-14.16-.27-8,6.27-15.41,14.38-15.56,14.46-.25,28.93-.1,43.4-.11,7,0,14-.27,20.94.1,4.42.23,5.63-1.16,5.61-5.56-.17-38.26-.06-76.51-.13-114.77,0-8,2.32-16.77-.9-23.66-3.12-6.67-10.36-11.45-15.87-17Q83.17,244.28,7.29,168.47C2,163.22-1.27,157.52.46,149.81A17.57,17.57,0,0,1,16.62,135.9c2.32-.13,4.66-.05,7-.05q128,0,255.91.09c4.09,0,6-1.19,7.67-5,16.52-38.44,33.35-76.74,49.87-115.18C340,8.89,343.82,3.26,350.66,0h78.82c6.56,4,11.13,9.41,13,17Z" transform="translate(0)"/><path d="M227.62,122.36c-12.78,0-25.56-.19-38.33.11-4.43.1-5.8-1.34-5.67-5.6a44.52,44.52,0,0,1,39.23-42.73c21.31-2.54,42.15,11.61,47.68,32.4.08.32.12.65.2,1,3.34,14,2.7,14.85-11.25,14.85Z" transform="translate(0)"/></g></g></g></svg>