<svg xmlns="http://www.w3.org/2000/svg" viewBox="0 0 388.26 362.39"><g id="Layer_2" data-name="Layer 2"><g id="Layer_1-2" data-name="Layer 1"><g id="h3a5Qw.tif"><path d="M165.28,360.94c4.25-4.12,8.43-8.32,12.79-12.33a6.91,6.91,0,0,0,2.43-6.12c-1.73-23.2-3.36-46.41-5.11-69.61a15.58,15.58,0,0,0-1.51-4.69q-22.2-51.94-44.38-103.88c-1.35-3.17-2.64-4.66-6.52-3.77-7.1,1.62-14.4,2.39-21.56,3.77a12.11,12.11,0,0,1-10.2-2.09c-14.85-10.67-30-20.95-44.84-31.57-2.94-2.1-4.78-2.55-7.35.48-3.22,3.8-7,7.06-10.48,10.68-1.54,1.64-2.62,1.87-4.49.33-7.3-6-14.74-11.91-22.18-17.77a4.15,4.15,0,0,1-1.72-4.71c1.42-6.47,2.71-13,3.89-19.51.55-3.08,1.81-4.67,5.16-5.53C25.9,90.3,42.46,85.49,59.14,81.11c3.28-.86,5.42-2.13,5.85-5.6,1.22-9.7,7.11-13.43,16.46-14.67,10.15-1.35,20.11-4.21,30.11-6.6,3.64-.87,6.53-.72,9.26,2.37,2.28,2.58,5.23,4.6,8,6.73,8.11,6.26,16.63,7.29,26.07,2.71,9.09-4.42,18.24-8.73,28-11.59a26.25,26.25,0,0,1,21.53,2.73,90.66,90.66,0,0,1,16.3,11.43c12.87,11.88,28,13.41,44.56,12C288.63,78.75,312,76.36,335.47,77a82.78,82.78,0,0,1,15.34,1.55c20,4.33,32,18.21,36.34,40.08,2.1,10.62-1,20.43-2.56,30.5-1.86,11.62-4.39,23.14-6.33,34.75-1,6.17,1.11,12.2,2,18.25,2.31,16.26,5,32.47,7.59,48.69,1.19,7.37-.35,14.6-1,21.84-2.74,28.6-5.83,57.17-8.62,85.77-.29,3-1.12,4-4.13,3.91-7.41-.19-14.83-.07-22.31-.07a9.23,9.23,0,0,1,2-5.5c7.13-11,8.91-23.21,9.47-36,.82-18.75,2.34-37.48,3.67-56.21a7.06,7.06,0,0,0-1.9-5.82q-27-29.35-53.93-58.83a6.52,6.52,0,0,0-5.58-2.53q-49.54,2.61-99.1,5c-3.41.16-4.5,1.51-4.88,4.66-3.26,26.69-7.66,53.29-9.66,80.08-1.62,21.5-.4,43.21-.39,64.83,0,10.45.06,10.44-10.36,10.38-5,0-9.94,0-14.91,0Z" transform="translate(0)"/><path d="M52.28,52.59c-5.65-7.07-10.14-13.18-15.16-18.82-4-4.46-6.36-9.1-5.45-15.21.32-2.11,0-4.31,0-7.42C44.55,21.6,52.65,35.24,63.34,47c4-11.9,3-24.9,11.14-35.83,2.17,7.16,5.89,13.46,5.11,20.94-.37,3.62.43,5.25,4.69,5.15C95.13,37,95.22,37.24,97,26.52c1.41-8.65,2.59-17.33,3.94-26.45,3.19,1.54,6,3,8.82,4.24,2,.87,1.86,2.47,1.85,4.14,0,7.3,0,14.6,0,23.22,4.71-4.74,9.36-8,12-13.24,2.56-5,5.19-10,7.51-15.15C132.22.77,133.68-.15,136.41,0c3.8.25,7.63.06,11.39.06,1,1.62-.25,2.64-.76,3.69-4.1,8.33-8.3,16.61-12.44,24.93-1.33,2.68,1.14,11.73,3.48,13,1.3.72,2.23-.27,3.21-.75,8.77-4.34,17.52-8.74,26.3-13.08a5,5,0,0,0,3-4.1c1.14-6.7,2.7-13.32,3.87-20C175,1,176.07-.19,179.06,0c3.79.28,7.62.07,12.34.07-3,6-5.58,11.66-8.5,17.1-1.63,3-1.78,4.48,2.28,5.19,5.31.93,10.49,2.64,15.79,4-.65,1.89-2.31,2.08-3.57,2.72C179,38.36,160.57,47.49,142.23,56.82c-3,1.51-5.2,1.82-7.19-1.16a2.32,2.32,0,0,0-.35-.35c-4.39-4-7.65-10.64-13.09-11.76-5.14-1.06-11.16,2.2-16.81,3.49-5.49,1.26-11,2.89-16.52,3.53a49.49,49.49,0,0,0-26.14,11c-2.61,2.13-5.08,2.23-8.2,1.1-7.94-2.88-16-5.39-24-8.1-3-1-5.19-8.35-3.25-10.81,1-1.31,2.09-.23,3.05.15,5.56,2.16,11.09,4.41,16.64,6.6C47.83,51.11,49.37,51.58,52.28,52.59Z" transform="translate(0)"/><path d="M228.8,314.61c0,16.65-.19,29.45.1,42.24.11,4.48-1.31,5.76-5.65,5.5-6-.36-12-.18-17.94-.06-2.76,0-3.27-.86-1.91-3.13.17-.28.25-.63.44-.9,8.15-11.77,9.47-24.93,8.82-38.86-.67-14.43-.22-28.91-.14-43.37a23.23,23.23,0,0,0-1.67-9.71,35,35,0,0,1-2.47-20.81c1.69-9.64,2.78-19.39,3.77-29.12.33-3.19,1.67-3.74,4.43-3.67,6.14.15,12.3.19,18.44,0,3.52-.11,4.48.67,3.78,4.5-3.34,18.43-6.74,36.88-9.27,55.44C227.46,287.81,229.23,303.18,228.8,314.61Z" transform="translate(0)"/><path d="M310.12,219.72q17.06,17.11,34.15,34.2c1.35,1.35,1.47,2.66,1.2,4.47q-7.41,49.22-14.6,98.46c-.61,4.28-2.24,5.76-6.59,5.51-6.63-.39-13.28-.1-20.26-.1.39-3.53,2.59-5.92,4.46-8.16,4.61-5.52,5.94-11.94,6.74-18.8q4.06-34.62,8.56-69.17a19.21,19.21,0,0,0-1-9.71c-4.64-12-9.11-24.12-13.64-36.18Z" transform="translate(0)"/></g></g></g></svg>