<svg xmlns="http://www.w3.org/2000/svg" viewBox="0 0 400.21 198.62"><g id="Layer_2" data-name="Layer 2"><g id="Layer_1-2" data-name="Layer 1"><g id="o8qSzJ.tif"><path d="M323.2,67.31c3.54,7.24,2.45,12.55-2.57,17-6.78,6.06-9.15,14.16-10.16,22.74a52.4,52.4,0,0,0,3.34,24.68c1.56,4.22,4.71,7.16,7.27,10.58,4.52,6,4.29,12.56-.7,16.54s-13.37,3.05-17.65-2.08c-12.28-14.69-17.79-31.54-16.25-50.76,1-12.79,6.06-23.78,13.53-33.94,3.35-4.55,7.45-7.77,13.66-8.89a26.41,26.41,0,0,0-8.77-3.61c-7.59-2-10.36-5.27-10.37-13.12,0-6.75-7.06-16.83-15-18.53A127.5,127.5,0,0,0,254.14,25c-21.57-.26-43.14.91-64.71-.08-2.57-.12-3.46.39-2.4,3.07a57.3,57.3,0,0,1,2.46,8,5.49,5.49,0,0,0,3.79,4.16c4.87,1.91,7.31,5.58,7.07,10.86s-3.25,8.23-7.77,10C179.74,66.2,168,73.2,156.51,80.93c-19.21,13-35.86,28.68-51.52,45.71a270.9,270.9,0,0,1-38.28,34.27c-9.55,7.06-19.57,13.52-30.83,17.78a48.88,48.88,0,0,1-22.35,3.09c-6-.58-9.93-4-12.82-8.85A6.5,6.5,0,0,1,.7,167c16-34.46,15.38-69.3,2.19-104.32C-1,52.39,3.29,45.29,14.62,44,24.45,42.78,33.37,45.6,42,49.67A135.08,135.08,0,0,1,67,65.53c7.92,6.17,15.45,12.84,23,19.52,2.78,2.49,3,6.14,1.87,9.54-1.5,4.56-5.31,6.77-9.66,7.72a11.06,11.06,0,0,1-10.34-2.87,278.91,278.91,0,0,0-24.38-20c-5-3.72-10.35-6.68-17-10.42,8,29.74,8.1,58.45-.05,88.06,4.41-2.48,8.07-4.11,11.24-6.41,11.38-8.27,22.53-16.8,32.81-26.51,9-8.5,17.29-17.63,26-26.38,19.6-19.7,41.41-36.6,66.23-49.36,2.4-1.24,2.56-2.72,1.61-4.9-3.94-9.07-6.76-18.53-9.57-28C155.83,5.94,161.54-1.49,171.38.25c21.91,3.89,43.92,2.68,65.93,2.54,14-.09,28-.56,41.75,2.27,15.28,3.14,29.82,8.85,34.65,25,2.81,9.44,8.75,12.6,16.22,15.73A134,134,0,0,1,361.52,65c12,9.56,23,20.14,31.26,33.32.88,1.4,2.31,2.46,3.23,3.84,6.08,9.17,5.58,18.58-1.69,27.81a31,31,0,0,0-2.86,4.69c-13.23,25.1-34.3,41.08-60.25,50.91-30.54,11.56-62.51,14-94.79,12.75-17.3-.65-33.94-5.19-50-11.72a242.76,242.76,0,0,1-56.76-33c-5.13-3.95-9.77-8.48-15.17-12.13a11.1,11.1,0,0,1-2.46-16.38c4-4.83,12.92-5.37,18.09-.76,4.5,4,9.09,7.88,13.86,11.58,24.18,18.71,50.34,33.17,80.76,38.83,14.49,2.7,29.07,2,43.62,1.13,16.61-1,33-3.54,48.8-9a104.38,104.38,0,0,0,36-20.59c8.17-7.23,13.84-16.13,19.25-25.22,4.11-6.93,3.07-10.6-2.91-16.08a31.4,31.4,0,0,1-3.43-3.7C354.66,87.1,340.48,76.39,323.2,67.31Z"/></g></g></g></svg>