<svg xmlns="http://www.w3.org/2000/svg" viewBox="0 0 443.81 223.06"><g id="Layer_2" data-name="Layer 2"><g id="Layer_1-2" data-name="Layer 1"><g id="djJzky.tif"><path d="M131.29,219c40-24.85,62.42-60,62.59-107S171.82,29.72,131.69,4.32c15.17-3.48,29.65-5,44.43-4,45,3.15,84,21.88,120.8,46.41a408.56,408.56,0,0,1,58.78,47.7c3.09,3,4.57,2.56,7.36-.26Q397.46,59.42,432.17,25c2.37-2.36,4.67-6.18,8.58-4.45s3,5.94,3,9.35q.08,82.08.05,164.15c0,.33,0,.66,0,1-.25,3,.08,6.43-3.28,7.74-3.19,1.25-5.2-1.47-7.15-3.41-23.08-23-46.19-46-69.08-69.21-3.31-3.36-4.88-3.57-8.33,0-32.95,33.8-70.21,61.45-114.61,78.56-29.73,11.46-60.42,16.66-92.28,13.51C143.23,221.58,137.29,221.16,131.29,219Z" transform="translate(0 0)"/><path d="M170.71,111.46c-.43,44.3-29.86,83.14-72.18,95.17a8.42,8.42,0,0,1-6.61-.55c-40.48-20.31-69.83-51.7-91-91.24a5.66,5.66,0,0,1,.23-6.43c23.75-37.54,53.4-69,93.13-90a9.41,9.41,0,0,1,8.45-.7c38.65,14.68,61.38,42.13,67,83.35C170.13,104.51,170.36,108,170.71,111.46ZM63.64,99.87c-.12,11.83,9.11,21.07,21.1,21.14a20.9,20.9,0,0,0,21.12-20.66c.07-11.94-9.11-21.6-20.64-21.74A21.06,21.06,0,0,0,63.64,99.87Z" transform="translate(0 0)"/></g></g></g></svg>