<svg viewBox="0 0 404.61 352.3" xmlns="http://www.w3.org/2000/svg"><path d="m389 5.67c3.35 4.35 4.19 9.57 5.14 14.76l.33 7.8q-1.16 12.39-2.28 24.77a29.2 29.2 0 0 0 -2.82 10.84c-4.36 9.7-7.67 19.88-13.28 29-1.76 2.86-.25 4.15 2.1 5.22l6.37 6.29 8.83 13.7 1.26 3.35q2.4 11.22 4.81 22.45.81 2.37 1.64 4.74l3.51 16-.55 7.57a122.1 122.1 0 0 1 -6.62 29.43l-7 15.52c-14.46 23.93-33 44.65-51.77 65.11-12.33 13.43-28 22.3-43.76 31l-12.31 4.32c-14.44 3.43-27.71 9.62-40.39 17.19l-14 5.29a267.77 267.77 0 0 1 -31.17 8l-7.36 1.15c-9.65 1.67-19.64.27-29.18 3.07-1.32-2.14-3.08-1.08-4.75-.63l-21.71-.78-7.77-.2c-7.19-.86-14.34-2.23-21.64-1.62a15.47 15.47 0 0 0 -7.76-1.33c-6.72-.34-13.28-2.52-20.09-1.8a10.06 10.06 0 0 0 -6.21-1.3l-21.67-2.17c-1.88-1.42-4-1.25-6.17-1-7.19-.9-14.32-2.47-21.64-1.75l-5.75-.93c-5.21-1.3-11.79 1-15-5.71l-.34-5.47c1.53-2.38 3.22-4.55 6-5.55 3-.87 6.32-.21 8.94-2.35 13.14-2.56 25.28-7.91 37.35-13.47a43.71 43.71 0 0 0 12.13-4.93l37.5-13.33c3.57-1.13 7.32-1.75 10.48-4 14-4.15 27.36-10 40.55-16.23l13.45-6.2c37.2-15.05 58.3-46.24 78.35-78.48a51.38 51.38 0 0 0 6-13.51c6-13.42 10.2-27.58 17-40.66 6.87-11.42 15.6-21 27.25-27.71 1-.31 1.92-.62 2.87-1 12.23-4.22 22.27-13.7 35.74-14.93l9.35-.53c16 1.87 11.56 3.61 17-9.9 1.4-3.5 2-7.31 3-11 1.94-3.37 2-7.22 2.7-10.9 1.63-8.17 2.65-16.39 1.77-24.74a10.59 10.59 0 0 0 -.57-6.34c-.66-3.75-1.25-7.5-2-11.24-1.54-7.98 1.83-11.55 9.97-10.29 3.25.52 6.44 1.39 9.66 2.1zm-15 102.91c-.5-.53-1-1.06-1.51-1.58-7.06-7.54-16-10.63-26-11.22 8.57 3.86 17.17 7.6 25.09 12.71l1.58 1c.63.56 1.22 1.56 2.05.34.05-.1-.77-.83-1.21-1.25zm-301.86 206.25-27.89 10.37.25 1.8 23 2a406.54 406.54 0 0 0 55.69 6c7.1 2.23 14.37 1.82 21.64 1.35 14 1.07 28 .09 41.94-1.77 9.38-1.21 18.74-2.53 27.66-5.87 4.33-.83 8.59-1.82 12.37-4.25 14.62-4.69 27.49-13.37 41.91-18.51a27.21 27.21 0 0 0 10.71-3.42c9.3-1.72 17.08-6.76 25-11.49 22.87-13.7 38.31-34.94 54.93-54.89 9-10.85 17.3-22.37 22.24-35.87a27.15 27.15 0 0 0 4.43-12.43 49.42 49.42 0 0 0 2.76-25.31c-.54-3.18-.44-6.52-2.32-9.37a33.5 33.5 0 0 0 -7.59-16.2l-3-4.3a31.77 31.77 0 0 0 -10.62-10.23 7.42 7.42 0 0 0 -4.51-3.12 39.12 39.12 0 0 0 -17.67-8c-1.87-1.46-4.09-1.2-6.24-1.26-9-2.56-17.85-1.75-26.55 1.51-18.53 4.32-27.88 17.74-34 34.4-6.31 12.45-10.2 25.88-15.52 38.73l-11.07 18.48c-1.87 2.4-3.95 4.66-5.57 7.21-15.57 24.57-34.83 45.33-60.68 59.33l-15.32 7.68-40.28 17.33a38 38 0 0 0 -12.41 4.48 295.93 295.93 0 0 0 -35.51 12.7 13.4 13.4 0 0 0 -7.78 2.92zm295.72-232.44c1.2-.06 2 .09 2.13-.13 11.01-20.06 17.01-41.18 13.51-64.26-.3-2-.4-4.06-2.22-5.56-1.53-1.26-3.46-2-5-1.31s-.54 2.69-.29 4.14a120.27 120.27 0 0 1 1.21 23.91c-.43 14.87-4.67 28.98-9.34 43.21z" fill="#2c2728"/><g fill="#d8d5d5"><path d="m371.56 108.49c-7.92-5.11-16.52-8.85-25.09-12.71 10 .59 19 3.68 26 11.22z"/><path d="m374 108.58c.41.43 1.23 1.15 1.16 1.25-.83 1.22-1.42.22-2.05-.34z"/><path d="m372.52 107c.51.52 1 1 1.51 1.58l-.89.91-1.58-1z"/></g><path d="m146.41 329.69-23.17-.21-36.69-3.73c-2.22-.22-5.32.14-4.72-3.3.47-2.72 3.2-1.68 5.14-1.62l11.51.36a10 10 0 0 0 6.21 1.18c7.23.21 14.3 2.48 21.61 1.58l7.77.14c8.28.08 16.6 1.09 24.78-1l7.71-.55a116.73 116.73 0 0 0 29.44-5.54 27 27 0 0 0 10.71-3.12c10.93-2.66 20.4-8.07 28.87-15.35a109.6 109.6 0 0 1 26.89-17.43l9.27-1.88c1.52.47 3.09 1.06 3 3-.11 2.43-2.3 2.6-3.95 2.87-5.88 1-11.45 2.62-16.19 6.41-10.42 5.06-18.17 13.81-27.71 20.09-11.38 5.65-23.54 9.15-35.6 12.92-14.89 2.27-29.79 4.49-44.88 5.18z" fill="#383333"/><path d="m285 143.14c5.32-10.8 13.86-18.5 23.81-24.84 3.76-1.53 7.48-3.22 11.32-4.53 1.78-.6 4.42-1.57 5.33 1 1 2.81-1.73 3.09-3.62 3.74-11.9 4.06-22.05 10.54-29.07 21.29-4 6.09-5.94 12.93-7.32 20-4.14 1.18-5.1-1-4.26-4.4 1.07-4.17 2.54-8.19 3.81-12.26z" fill="#363131"/></svg>