<svg xmlns="http://www.w3.org/2000/svg" viewBox="0 0 510.42 418.98"><g id="Layer_2" data-name="Layer 2"><g id="Layer_1-2" data-name="Layer 1"><g id="cazUUC.tif"><path d="M0,159.62c4.64-18.83,16.15-32.48,32.56-42.1,7.63-4.46,15.73-8.29,24.94-4,1.28.6,2.15-.25,3.13-.91,7.65-5.1,15.87-5.37,24.3-2.45a7.66,7.66,0,0,0,5.67.06c7.13-2.65,14.34-2.7,21.32.54a5,5,0,0,0,5-.21c8.93-4.5,17.93-4.56,26.52.83,2,1.28,3.56,1,5.52.43,7.75-2.11,15.18-1.36,21.88,3.31,1.8,1.26,3.15,1,5,.23,8.89-3.71,17.52-3.27,25.55,2.31,1.76,1.22,3.07,1.12,5,.39a26.34,26.34,0,0,1,23.9,2.16,4.86,4.86,0,0,0,4.54.64A26.53,26.53,0,0,1,256,122.64c1.9,1,3.11.86,4.86-.38a26,26,0,0,1,18.8-4.94,4.05,4.05,0,0,0,4.18-1.73,23.11,23.11,0,0,1,13.58-7.74,5.06,5.06,0,0,0,4.07-3.06c3.82-7.85,10.29-12.46,18.78-14,2.95-.55,4.39-2,5.68-4.62,3.27-6.76,8.88-10.85,16.47-11.16,6.34-.25,10.52.61,13.62,8.48a246.54,246.54,0,0,0,55.79,84.68c3.77,3.78,7.93,7.14,13,9,1.68.63,2.18,1.56,2.28,3.28,1.43,25.28,1.31,50.49-3.06,75.53-3.09,17.68-10.63,32.44-27.33,41-1.93,1-2.45,2.34-2.56,4.35-1.67,31.19-3.46,62.38-5.09,93.58-.79,15.11-9.86,24.27-23.28,23.13a20.07,20.07,0,0,1-18.4-17.41c-2.16-17.63-4-35.3-6-52.95-1.36-12.21-2.72-24.42-4-36.65-.2-2-.66-3-2.89-2.94-22.07.47-44.27-1.38-66.14,3.1-9.56,2-18.76,5.45-28.8,5.15-12.8-.39-24.87-3.89-36.91-7.66-20.82-6.52-41.77-12-63.88-11.55-15.08.28-29.58,4-44.31,6.35-2.27.37-2.72,2.08-3.41,3.78-3.64,9-4.13,18.35-3.85,27.89.52,18.2,4.69,35.83,8.14,53.57,3.34,17.15-7.75,31-24.33,30.19-10-.49-18.38-7.74-21.17-18.15-4.53-16.86-6.46-34.21-9.9-51.28-2.45-12.19-4.74-24.41-7-36.64-1.78-9.62.42-19.21.37-28.82,0-1.81.54-3.59-.36-5.37-9.11-18-11.9-37.87-17-57.06a109.3,109.3,0,0,1-2.46-44.46c.2-1.39.59-2.67-1.51-2.82C5.3,173.87,1.82,169.66,0,163.61Z"/><path d="M453.12,0c5.93,1.35,11.94,2.44,17.79,4.12,9.6,2.76,18.22,7.26,24.12,15.75,4.83,7,3.64,11.05-4.18,14.28s-16,4.28-24,6.3c-5.5,1.38-10.89,3-15.77,5.91-1.4.84-2.25,1.4-3.54-.43-6.81-9.68-16.8-11.81-27.74-10.82A78.15,78.15,0,0,0,406.17,38c-3.12.87-4.88,2.5-2.12,6,6.62,8.42,13.12,16.84,24.4,19.37a22.39,22.39,0,0,0,11.32.06c2-.57,2.83-.29,3.12,1.68,1,6.59,5,11.45,9.15,16.23,3.17,3.64,6.43,7.19,9.5,10.91,5.67,6.88,6.24,14.39,2.33,22.31a67.77,67.77,0,0,1-11.56,16.15c-3.64,3.88-7.34,7.7-11,11.59a31.38,31.38,0,0,0-8.85,22.13c.06,6.07-2.51,7.93-8.46,3.8-9-6.24-16-14.49-22.68-23-17.5-22.33-32.61-46-41.32-73.34a63.34,63.34,0,0,1-2.91-14.59c-1-12.62,5.74-22.74,17.95-26.31A9,9,0,0,0,381,26.47,25.51,25.51,0,0,1,397.13,14c1.47-.4,2.91-.68,3.9-1.95C407.1,4.27,415.2.89,424.94,1c1.13,0,2.36.05,3.22-1Z"/><path d="M485.66,121.64c-3.87-.18-8.06-2.6-12.37-4.69-1.7-.82-1.29-2.09-.82-3.37,4.1-11.21,0-20.38-7.15-28.79-4-4.69-8.28-9.11-11.87-14.06-6.5-9-4.4-15.8,5.78-20,7.7-3.16,16-4.3,24-6.37,2.27-.59,2.6.59,2.64,2.28.12,4.44,2.43,7.77,5.2,11a92.13,92.13,0,0,1,18.41,33.77c2,6.61.92,12.23-3.26,17.67C500.35,116.68,493.14,121.57,485.66,121.64Zm-1.47-57.29a6.26,6.26,0,1,0-12.51-.22c.09,3.93,2.39,6.13,6.15,6.52C481,71,484.13,67.68,484.19,64.35Z"/><path d="M426.59,40.38c4.72.13,8.89,1,12.55,3.55s6.07,5.8,4.47,10.5-5.32,6.19-9.78,6.15c-7.36-.08-18.73-8.44-21.32-15.28-.79-2.07.52-2.13,1.79-2.59C418.38,41.21,422.66,40.8,426.59,40.38Z"/></g></g></g></svg>