<svg xmlns="http://www.w3.org/2000/svg" viewBox="0 0 447.13 383.79"><g id="Layer_2" data-name="Layer 2"><g id="Layer_1-2" data-name="Layer 1"><g id="xjxDFm.tif"><path d="M25.33,24.07C28.4,10.74,40.48.49,53.64.23,67.1,0,80.59-.13,94.05.28c9.85.3,17.73,5.11,23.65,13C128.8,28,140,42.68,150.85,57.59c3.37,4.61,7.22,6.53,13,6.52q105-.22,210.06-.08c35.25,0,63.3,22.11,71.52,56.29a64.46,64.46,0,0,1,1.72,15.3c0,34.43,0,68.85,0,103.28,0,23.41-17.23,40.55-40.63,40.65-10.64.05-21.29.08-31.93,0-20.16-.17-37.39-16-39-36.14-.25-3.05-1-4.24-4-3.78a13.33,13.33,0,0,1-2,0c-11.4,0-11.44,0-8.88,11.42A57.69,57.69,0,0,0,336,279.24H215.29c4.13-5.07,8-9.92,10.69-15.62A64.84,64.84,0,0,0,231.42,243c.3-2.59-.45-3.79-3.15-3.41a6.66,6.66,0,0,1-1,0c-3.49,0-7.51-1-10.33.37-3.17,1.56-1.56,6.21-2.39,9.44a40.27,40.27,0,0,1-38.29,30.09q-16.22.1-32.43,0a39.76,39.76,0,0,1-40-38.3c-.3-6.55-3-9.33-9.52-9.61A39,39,0,0,1,57,198.83c-5-29.77-9.94-59.57-15-89.34-.62-3.66-.62-5.74,4.21-6.48,15.88-2.46,26.28-11.91,31.5-27,.9-2.61,1.74-3.89,4.82-4.38,13.3-2.13,22.3-13.23,21.11-25.37C102.44,33.36,92.19,24.17,78.63,24.1,61,24,43.38,24.07,25.33,24.07Z"/><path d="M51.85,40.06c9,0,17.94,0,26.91,0,5.6,0,8.91,2.93,9,7.73.13,5-3.24,8.09-9.08,8.18-2.16,0-4.33-.1-6.48,0-5,.34-7.83,3.23-8.36,8.2C62.23,79.75,53.17,87.9,37.5,87.94c-8.48,0-16.95,0-25.43,0C1.68,87.84-3.1,79.54,2.15,70.51c5.33-9.18,11-18.19,16.31-27.37,1.32-2.28,2.77-3.21,5.47-3.15C33.23,40.17,42.54,40.06,51.85,40.06Z"/><path d="M175.63,314.41c1.87,15.1-5.2,30.28-8.39,46.13-1.27,6.33-3.31,12.5-4.58,18.83-.67,3.36-2.24,4.46-5.39,4a9.24,9.24,0,0,0-1.49,0c-11.28,0-11.27,0-9.83-11,1.87-14.32,4.34-28.6,5.31-43,.57-8.5-1.08-17.19-2.07-25.75-.93-8.06-1.12-8,7.06-8,5.15,0,10.31.14,15.46-.07,2.93-.11,4.2.58,4,3.82C175.42,303.79,175.63,308.29,175.63,314.41Z"/><path d="M391.35,295.79c9.88-.61,19,.57,27.95-1.75,1.88-.5,2.25,1,2.7,2.2,2.71,7.12,5.33,14.28,8,21.4.71,1.86.25,3.56-.34,5.31-6.28,18.85-12.63,37.68-18.77,56.58-1,3.09-2.5,4.27-5.67,3.86-3.89-.49-9.22,1.74-11.3-1-1.53-2,.93-7.13,1.75-10.83,3.55-16.19,7-32.39,10.82-48.51A11.13,11.13,0,0,0,404.2,313C400,307.46,395.92,301.9,391.35,295.79Z"/><path d="M337.61,295.57c9.3,0,17.92.06,26.55-.05,2.35,0,3.12.7,3.15,3.1.17,11.28-.19,22.09-5.71,32.74-8,15.42-14.44,31.64-21.3,47.63-1.47,3.43-3.26,4.84-7,4.44a108.71,108.71,0,0,0-10.89-.07c5.14-15.51,9.44-30.85,15.34-45.54,4.95-12.32,6.11-24.1,1.26-36.45A45.08,45.08,0,0,1,337.61,295.57Z"/><path d="M223.57,313.68c0-5.74.1-10.4,0-15-.08-2.4.78-3.17,3.15-3.12,6,.13,12,.11,17.94,0,2.1,0,2.93.6,2.91,2.82-.13,14.86,1,29.68-5,44.08-5,12.06-8.48,24.75-12.4,37.23-.92,2.91-2.26,4-5.27,3.75-3.94-.33-9.39,1.22-11.5-.83-2.37-2.3.64-7.36,1.37-11.18q3.84-20.26,8.17-40.44C224.19,324.84,223.1,318.7,223.57,313.68Z"/></g></g></g></svg>