<svg xmlns="http://www.w3.org/2000/svg" viewBox="0 0 384.13 392.79"><g id="Layer_2" data-name="Layer 2"><g id="Layer_1-2" data-name="Layer 1"><g id="_818o1c.tif" data-name="818o1c.tif"><path d="M191.89,392.78c-17.06.11-33.84-1.54-49.87-7.87-26.43-10.44-39.15-30.84-42.76-58.17-3.07-23.27,1.17-45.22,10.3-66.58,5.94-13.87,11.64-27.89,14.19-42.9a76.35,76.35,0,0,0-.58-29.21c-2-9.26-9.21-15.18-18.26-15.57s-15,4.59-15.94,13.38C87.16,202.4,77.45,211.06,60,213c-26,2.86-42.37-12.11-51-32.45C-6.9,143.44-1.38,108.72,23.08,77,46.66,46.46,77.94,26.4,114,14c69.68-24,136.48-17.3,199.17,22,29.19,18.28,52.68,42.3,64.81,75.39,10.86,29.64,7.64,58-11.28,83.61-15,20.27-38.81,24.76-58.6,12-7.95-5.11-13.36-12-13.8-21.84-.28-6.18-2.68-11-8.47-13.54-6.38-2.81-12.42-1.61-17.77,2.58-6.68,5.24-8.95,12.66-9.06,20.74-.21,15.86,4.45,30.77,9.47,45.58,5.21,15.38,11.78,30.36,14.73,46.42,3.4,18.52,3.39,37.08-1.71,55.32-7.15,25.58-25.06,39.82-50,46.27C218.44,391.86,205.23,392.9,191.89,392.78Z"/></g></g></g></svg>