<svg xmlns="http://www.w3.org/2000/svg" viewBox="0 0 430.66 215.94"><g id="Layer_2" data-name="Layer 2"><g id="Layer_1-2" data-name="Layer 1"><g id="kBVWKi.tif"><path d="M402.6,131.56l4.76,4.22c-12.78,7.69-26.17,7.27-39.76,4.19a15.8,15.8,0,0,0-7.76-.15c-3.55.9-7.57,1.35-10.85,0-5.38-2.26-10.17-1.28-15.28.46-6.54,2.23-13.39,2.41-20.22,2-2.57-.17-3.78.61-4.87,2.94a40.16,40.16,0,0,0-4.14,18.7c.32,9.3-.05,18.6,1.08,27.89.77,6.31,2.72,11.42,9,14.37,3,1.43,7.53,3.68,6.47,7.22s-6,2.47-9.35,2.5c-17.78.15-19.39-.95-25.12-17.59-4.85-14.1-10.73-27.47-22.35-37.65-4.81-4.21-6.73-10.32-6.73-16.67,0-4.83-1.63-4.73-5.54-3.29-11.34,4.21-22.69,8.61-35.1,8.6A65.28,65.28,0,0,1,202,147.47c-6.55-1.52-12.73,1.5-19.12,2.19-25.71,2.77-51.36,4.57-76.7-2.58a35,35,0,0,1-10-4.2c-3.46-2.34-4.84-1.12-6.28,2-1.76,3.75-3.74,7.41-5.61,11.11-1.64,3.27-3.11,6.6-6.58,8.51-1.93,1.06-2.07,3.34-2.54,5.22-2,8.23-2.79,16.69-4.1,25-.87,5.55,1.89,8.63,5.86,11.54,1.91,1.4,5.48,2.58,4.75,5.06S77.33,212.77,75,213c-4,.39-7.94.87-11.91.91-6.15.06-7.49-1.16-8.67-7.23-1.62-8.3-2.7-16.71-5.82-24.67C46.91,177.8,45,173.7,42,170.39c-2.85-3.07-3.2-6.28-2-10.09,1.79-5.87,4-11.65,4.78-17.77.6-4.43-.56-8.05-4.43-10.86C26.81,121.92,20.2,108,17.46,92.14c-4.4-25.37,5.35-46.26,22-64.47C44.36,22.35,51.36,19.82,57.92,17,82,6.66,107.42,2,133.44.56c66.84-3.67,130.64,11.11,193.34,32.32C343,38.35,359,44.44,374.72,51a8.76,8.76,0,0,0,7.89-.25c9.1-4.21,19.14-6.08,28.15-11.21-1.93,6.53-2.62,12.91-4.09,19.12-1.33,5.62-4.56,10-10.11,12.13-2.05.79-2.05,1.54-.93,3.14a22.22,22.22,0,0,1,4.17,10c1.86,16.28,14.49,23.44,26.3,31.14,4.53,3,5.62,4.53,3.56,9.59-4.37,10.73-10.05,13.12-20.8,8.87C406.93,132.84,405.21,131.34,402.6,131.56Z"/><path d="M202,184c.42-5.2,4.19-11.72,5.64-18.78,2.14-10.43,7.19-15.45,18.51-15.21,8.21.18,16-4,23.8-6.65,1.69-.58,4-2.6,5.28-.5,1.38,2.29.66,4.89-1.57,7.11a192.08,192.08,0,0,0-18.76,21.91,112.62,112.62,0,0,0-9.23,14.73c-2.46,4.72-2.79,9.1.77,13.39a17.51,17.51,0,0,1,1.88,2.92c1.19,2.27,4,4.38,2.58,7.08-1.63,3.15-5.3,2.27-8.13,2.22-7.67-.16-12.32-5.14-16.07-11.05A29,29,0,0,1,202,184Z"/><path d="M124.9,208.07a49.27,49.27,0,0,0-5.75-.94c-5.83-.29-8.84-2.73-9.35-9-.45-5.62-4.55-9.89-8.23-13.92-6.48-7.1-10.38-15.75-15.14-23.9-1.77-3,.33-5.05,1.39-7.3,4.3-9.11,4.35-9.07,13.42-5.64,2,.76,4.07,1.42,6.13,2,7.57,2.22,7.67,2.2,8.31,10.38.83,10.44,1.91,20.82,6.25,30.53,1.1,2.47,2.33,4.6,5.33,5.4a7.24,7.24,0,0,1,5.62,8.72C132.17,208.47,128,207.45,124.9,208.07Z"/><path d="M38.1,25.83c-2.78,3.59-5.32,6.56-7.51,9.76-2.61,3.82-4.87,7.87-7.38,11.76-1.47,2.27-1.39,6.51-4.29,6.66-4.33.22-8.91-.6-12.5-3.79A22.2,22.2,0,0,1,0,40.05c1.1-.81,1.72,0,2.41.31C8,42.65,8,42.66,9.62,36.8c1.9-6.85,6.81-10.93,14-11.3,4-.2,8,0,11.92,0C36.15,25.54,36.75,25.67,38.1,25.83Z"/></g></g></g></svg>