<svg xmlns="http://www.w3.org/2000/svg" viewBox="0 0 387.07 366.65"><g id="Layer_2" data-name="Layer 2"><g id="Layer_1-2" data-name="Layer 1"><g id="ksMoUw.tif"><path d="M12.71,337.35c.11-1.69,2.59-2.27,1.63-3.6-1.3-1.82-3.35.45-5.07-.22-.34-1.65,2.05-1.58,1.88-3.1-1.29-.92-2.49.43-4,.23a4.71,4.71,0,0,1,.45-1.21c.76-1,1.89-3.18.44-2.91-4.67.89-1.59-.92-1-2,.42-.73.16-1.39-.66-1.4-5.34-.07-.35-3.31-1.61-4.62-1.51-1.26-2.93.83-4.85.23,1.13-2.41,3.89-2.76,5.39-4.48.14-1.3-.91-1.07-1.6-1.32-2.12-.77-3.83-1.61-.39-3.12a6.21,6.21,0,0,0,1.52-1.08c-2.89-4.63,1.93-3.19,3.32-3.87,3.63-1.78,6.85-5,11.59-3.71,1.87.5,2-1.08,1.85-2.57-1.62-16.3.7-32.11,5.77-47.61a29.79,29.79,0,0,0,1-6.89,42.71,42.71,0,0,1,8.2-22.56c7.24-9.9,12.88-20.92,21.65-29.77,16.26-16.41,35-29.24,56.45-37.53,14.28-5.52,29.51-8,44.82-8.62,25.76-1,51.53,0,77.28.86,8.65.29,17.09,2.23,25.45,4.45,6.44,1.71,6.57,1.47,7.84-4.61a20.92,20.92,0,0,1,3.6-7.61c2.19-3.14,4.42-6.24,6.58-9.39,8.71-12.69,9.35-21.7-.89-36.65-8.3-12.13-14.71-25.16-16.55-39.57-1.73-13.58,2.07-26.73,9.26-38.51,3.21-5.26,11.39-6.54,18-3.35,2.41,1.15,3.53,1.92,4.82-1.59,2.4-6.49,8.45-8.71,14.69-9.54,5.48-.73,8.69,2.93,11.45,7.27A42,42,0,0,1,327.51,33c-1.09,19.42,1.85,38.43,6.43,57.2,2.1,8.61,9.32,12.67,16.59,16.09,6.7,3.15,12.88,6.85,18,12.31,1.89,2,3.07,4.15,2.94,7.09a30.59,30.59,0,0,0,4.85,17.5A95.81,95.81,0,0,1,386.19,167c2.62,9.23-.7,17.57-8.85,22.49-7.78,4.7-16,8-25.14,8.8-6.69.62-10.84,3.63-12.66,10.92-4.56,18.28-11.64,35.61-22.13,51.43-5.84,8.81-12.9,16.1-23.13,19.61-6.12,2.09-8.94,6.44-10.82,12.47A48,48,0,0,0,284.3,324c3.06,8.66,9.58,13.43,18.2,15.15,7.27,1.44,12.91,4.73,17,10.95,1.85,2.81,1.18,4.52-1.33,6.15-2,1.29-4.25,2.69-6.43,2.44-12.81-1.47-24.44,3.06-36.3,6.6-12.72,3.79-22.54-.39-30.45-10.83-7-9.26-13.91-18.64-21.36-27.59-4-4.74-3.31-10.68-.13-15.94A208,208,0,0,0,234,290.54c.83-1.77,1.48-3.63,2.81-6.94-4.91,2.53-8.7,4.22-12.23,6.35-14.64,8.84-29.13,17.93-43.83,26.67-6.76,4-11.74,10.2-18.3,14.45a5,5,0,0,0-2.12,5.73c.64,2.34,2.81,2.9,4.73,3,8.1.49,16.13,1.43,24.33,0,10.72-1.88,21.52-1.85,31.75,2.94,2,.92,3.79,1.94,4.92,4,3.87,7,3.1,10.62-4.18,13.66-11.26,4.71-22.95,6.78-34.77,1.92-9.45-3.88-19.4-2.1-29.09-2.92-11.23-1-22.56-1.1-33.77,1.37a18.81,18.81,0,0,1-10.34-.42c-9.14-3.27-11.65-7.71-9.8-17.55-.7-.69-1.17,0-1.56.38-8.87,7.62-18.87,9.43-30.28,7.11-4.29-.87-9.09.62-13.65,1.19a82,82,0,0,1-14.94.43c-1.2-.07-3.9.35-1.32-2.19-1.89-1.23-3.43-3-6.08-2.92-1.44.06-4.3,1.72-3.73-2.34.18-1.22-2-.45-3-.83-3.36-1.27-7.26-1-9.23-5.47C19.13,335.45,15.56,337.19,12.71,337.35Z"/></g></g></g></svg>