<svg xmlns="http://www.w3.org/2000/svg" viewBox="0 0 400 455.71"><g id="Layer_2" data-name="Layer 2"><g id="Layer_1-2" data-name="Layer 1"><g id="_3R1Km3.tif" data-name="3R1Km3.tif"><path d="M37.1,110.46c1.14-5.5,2-10.36,3.16-15.12,9.12-36.74,36.3-55.87,71.49-58.93,30.47-2.66,59,4.14,86,18.09a62.78,62.78,0,0,1,10.45,6.75,14,14,0,0,1,2.64,19.6,14.15,14.15,0,0,1-19.48,3.68C168,69.27,142.18,63.6,114.55,65.19,86.73,66.8,68.41,84.73,66.13,112.61c-.33,4-.53,8-.89,11.93-.24,2.6.82,3.52,3.42,3.45,5.48-.13,11,0,16.46,0q83.83,0,167.66-.1c4.7,0,6.54,1.16,7.23,6,3.11,22.18-.86,42.6-13.76,61.12-4.87,7-3.45,15.64,3.13,20.29a13.83,13.83,0,0,0,19.83-3.42c15.91-22.42,22.59-47.44,20.1-74.82-.56-6.14-.8-6.21,5.11-4.86,46.76,10.74,79.34,37.7,95.51,83.49,1.09,3.07.85,5-1.65,7.32a152.53,152.53,0,0,1-55.17,33c-9.19,3.1-13.45,10.71-10.55,18.83,2.81,7.82,10.42,11.25,19.15,8.38a176.57,176.57,0,0,0,49.64-26c6.51-4.8,6.77-4.85,7.51,3,2.93,31.2.72,61.82-12.35,90.77-6.82,15.11-3.08,13-19.44,9.25a104.82,104.82,0,0,1-28.55-11.42c-7.44-4.24-15.92-2-19.89,5-4.07,7.12-1.87,15.27,5.64,19.72,11.48,6.8,24,11.08,37.43,14.81a94.22,94.22,0,0,1-13.14,12.49,160.46,160.46,0,0,1-82.66,34.33c-26.78,3.07-53,8.64-79.57,12.83-22.48,3.54-45,6.49-67.8,7.64-2,.1-4.37.65-3.29-2.78,5.74-18.14,14.32-34.33,30.91-45,3.64-2.35,7.72-3.77,12.24-5.55-23.81-8.2-35-26.77-42.58-48.66-1.4-4-.79-5.16,3.57-4.83a765.26,765.26,0,0,1,77.09,9.49c13.56,2.42,26.86,6.67,40.43,8.28,19.17,2.27,37.6-1.5,51.74-16.26,14.74-15.39,15.51-53.14-12.6-66.61-12-5.75-24.75-7.42-37.78-7.51-29.27-.2-58.56.48-87.81-.45-35.81-1.14-63.74-17.58-84.11-46.94-14.74-21.25-23-45.11-28-70.24a13.57,13.57,0,0,0-5-8.44C10.88,131-2.72,107.46.46,76.94,3.24,50.2,17.14,30.07,39.8,16,56.22,5.84,74.38.93,93.62,0c8.1-.39,14.72,5.1,15.47,12.47C110,21.06,104.82,28,96,28.72c-10.5.92-20.75,2.56-30.52,6.6C47,43,33.92,55.56,29.78,75.71,27.28,87.9,29.76,99.37,37.1,110.46Zm87.67,89.74a19.2,19.2,0,0,0,19.71-19.31,19.55,19.55,0,0,0-19.36-19.82,19.9,19.9,0,0,0-19.89,19.45A19.6,19.6,0,0,0,124.77,200.2Z" transform="translate(0 0)"/></g></g></g></svg>