<svg xmlns="http://www.w3.org/2000/svg" viewBox="0 0 231.53 419.3"><g id="Layer_2" data-name="Layer 2"><g id="Layer_1-2" data-name="Layer 1"><g id="_4m4ULo.tif" data-name="4m4ULo.tif"><path d="M166.59,152.64q0,51.39-.05,102.78A8.58,8.58,0,0,0,170,262.9c27.92,23.5,39.29,53.46,30.71,89C192,388,168,410.54,131.61,417.68c-55.53,10.9-106.79-34.53-103.39-90.89,1.57-26,12.78-47.52,33.27-63.87C63.93,261,65,259.16,65,256q-.15-101.79-.1-203.57C64.91,22.13,87.51-.47,117.51,0c26.48.42,49,23.14,49.05,49.85C166.67,84.12,166.59,118.38,166.59,152.64Zm-15.74,4.12h0q0-52.15,0-104.3A39.6,39.6,0,0,0,149,39.23c-5.68-16.4-21.81-25.94-39.46-23.27C93.37,18.42,80.74,33.32,80.73,50.4q-.11,106.29,0,212.58c0,3.84-.9,6.21-4.36,8.44A71.7,71.7,0,0,0,48.2,356.78a72.5,72.5,0,0,0,77.24,46.36c29.92-4,53.65-26,60.73-56.32,6.64-28.45-5.81-59.06-31-75.36-3.41-2.21-4.45-4.54-4.44-8.42C150.9,227.61,150.85,192.19,150.85,156.76Z"/><path d="M207.72,126.77c5.14,0,10.29-.08,15.42,0,4.75.09,8,3.1,8.36,7.45.36,4.56-2.6,8.67-7.47,8.83q-16.65.54-33.31,0c-4.81-.15-7.68-4.3-7.3-9,.36-4.42,3.49-7.27,8.39-7.36C197.11,126.69,202.42,126.77,207.72,126.77Z"/><path d="M207.55,245.51c-5.31,0-10.62.08-15.93,0-4.77-.11-8-3.13-8.25-7.54-.3-4.63,2.64-8.6,7.56-8.75,10.93-.35,21.89-.35,32.82-.07,4.87.12,7.93,4,7.76,8.63s-3.44,7.65-8.54,7.74S212.69,245.51,207.55,245.51Z"/><path d="M23.82,143.39c-4.64,0-9.28.08-13.92,0-6.35-.14-10-3.45-9.9-8.68.14-5,3.73-7.93,9.93-7.93,9.61,0,19.23,0,28.84,0,5.85,0,9.25,3,9.38,7.94s-3.21,8.24-8.91,8.58c-2.65.16-5.3.07-8,.09C28.8,143.4,26.31,143.39,23.82,143.39Z"/><path d="M24.07,194.5c-5,0-10,.09-14.92,0C3.52,194.35,0,191,0,186.12s3.6-8.25,9.19-8.31q14.67-.18,29.35,0c6,.06,9.71,3.44,9.67,8.4s-3.79,8.23-9.74,8.34c-2.48.05-5,0-7.46,0Z"/><path d="M207.23,194.49c-5,0-9.95.11-14.92,0-5.4-.14-8.83-3.31-8.95-8-.14-5,3.25-8.55,8.82-8.63q15.44-.24,30.85,0c5.15.09,8.58,3.8,8.48,8.48-.1,4.5-3.43,7.93-8.36,8.12C217.85,194.65,212.54,194.49,207.23,194.49Z"/><path d="M23.69,245.55c-5,0-10,.06-14.93,0-5.31-.08-8.66-3.25-8.73-8.1a7.82,7.82,0,0,1,8-8.3q16.16-.33,32.34.05c4.94.13,8,3.88,7.75,8.55s-3.46,7.67-8.55,7.76c-5.3.1-10.61,0-15.92,0Z"/><path d="M24,91.92c-5.14,0-10.28.11-15.41,0C3.13,91.75,0,88.54,0,83.63c.07-4.59,3.24-7.88,8.32-8,10.44-.18,20.88-.23,31.32-.07,5.31.09,8.58,3.58,8.52,8.37s-3.48,7.86-8.84,8c-2.65.07-5.31,0-8,0H24Z"/><path d="M207.09,91.93c-5.13,0-10.27.11-15.4,0s-8.26-3.32-8.34-7.94a7.79,7.79,0,0,1,8-8.26q16.15-.28,32.3,0a7.78,7.78,0,0,1,7.86,7.92c0,4.66-3.07,8.07-8,8.26C218,92.1,212.56,91.93,207.09,91.93Z"/><path d="M132.87,242c0,8.15.06,16.29,0,24.44-.08,8.37,3.32,14.5,10.65,18.86,19,11.29,29.34,33.43,25.8,54.3-3.85,22.62-20.08,39.93-42,44.77-25.73,5.68-51.38-7.83-61.6-32.44C55.84,328.17,64.38,300,86.45,286.4c9.07-5.59,12.6-12.74,12.33-23-.41-15.28-.12-30.58-.12-45.88,0-10.52,7-18.36,16.65-18.67s17.36,7.52,17.53,18.28C133,225.4,132.87,233.71,132.87,242ZM78.81,335.33c.3,17.85,16.26,33.95,34.63,34.94,5.78.31,9.33-2.27,9.58-7s-2.67-7.54-8.65-8c-11.45-.89-19.62-9-20.63-20.48-.54-6.05-3.19-9-7.89-8.9S78.7,329.27,78.81,335.33Z"/></g></g></g></svg>