<svg xmlns="http://www.w3.org/2000/svg" viewBox="0 0 337.88 403.34"><g id="Layer_2" data-name="Layer 2"><g id="Layer_1-2" data-name="Layer 1"><g id="N2QzOe.tif"><path d="M48.56,141.23c-2.62-5.41-5.68-10.17-7.67-15.49C32.43,103.21,38,84.2,57.34,69.93c13.11-9.64,28.24-14.62,43.77-18.47a9.8,9.8,0,0,0,7.38-6C115.37,30.72,124.9,18,138.88,9.28c21.71-13.6,43.82-10.8,65.88-.92C218.38,14.45,230.6,22.83,242,32.42c2.83,2.39,5.16,3.27,9.12,2,16.67-5.16,31.18-1,42.93,11.86,9.75,10.65,16,23.05,16.89,37.73.19,3,.77,6.54-1,8.91-3.61,4.76-.38,6,2.93,8.1,14.66,9.39,25.11,21.69,25.05,40.15C337.83,159.9,320,185,302.59,191.65c-9.11,3.49-15.29,1.34-19.29-7.18-1.27-2.71-2.4-3-5.08-2.05-15.43,5.36-26.68,15.84-35.63,29-14.8,21.73-22.32,46.37-27.84,71.72-7.85,36-10.72,72.51-10.69,109.28,0,4.95-1.42,7.06-6.15,8.13-23.64,5.32-46.81,2.4-69.88-3.47-2.87-.73-3.09-2.81-3.38-5.19-3.89-31.55-10.23-62.55-22.05-92.18C94.14,278.52,83.14,258.92,66,243.29c-4.11-3.75-7.34-6.19-12.61-1-5.66,5.53-12.79,5.76-19.24.86C12.69,226.8-.06,205.61,0,178.14c0-14.86,8.57-24.71,21.71-30.76C30.07,143.54,39,142.05,48.56,141.23Zm31.88,57.56c23.16,24.72,37.9,54.13,52.76,84.1a8.65,8.65,0,0,0,.72-1.83c-.14-28.59-7.75-55.41-19.32-81.29-.65-1.46-1.46-2.81-3.16-3C101.23,195.92,91,195.35,80.44,198.79ZM267,160.59c-3.21-.94-4.81-1.53-6.46-1.86a23.79,23.79,0,0,0-4-.25c-15.07-.29-28.49,5.57-41.94,11.3-2.31,1-2.61,3.11-3.28,5-5.72,16.32-9.55,33.13-12.5,50.14-1.81,10.4-3.27,20.87-4.88,31.3C204.6,214.42,224.44,179.85,267,160.59Zm-97.58,93.85a370.05,370.05,0,0,1,11.33-68.57c-5.13,2.23-9.53,4-13.78,6-4.07,2-10.54,1.82-12,5.38s1.57,8.6,2.72,13Q163.51,232.37,169.38,254.44Z"/></g></g></g></svg>