<svg xmlns="http://www.w3.org/2000/svg" viewBox="0 0 451.57 437.82"><g id="Layer_2" data-name="Layer 2"><g id="Layer_1-2" data-name="Layer 1"><g id="mGCsUa.tif"><path d="M0,180.91c1.46-5.65,2.13-11.49,4.58-16.9,11.24-24.82,37-36.49,64.61-29.31a73.26,73.26,0,0,1,22.51,9.69c3.84,2.54,8.56,1.6,12.85,2,19.44,1.92,38.92,3.44,58.37,5.25A14.81,14.81,0,0,0,173.57,149c33.51-23.44,67.87-21,102.53-2.79,2.66,1.4,4.32,1.74,6.86-.14,7.21-5.33,14.56-10.47,22.07-15.35,2.92-1.9,3-3.43,1.44-6.25-3.68-6.85-7.21-13.79-10.4-20.87-1.55-3.43-3.62-4.55-7.32-4.85-28.09-2.21-55-8.71-79.69-22.89A129.44,129.44,0,0,1,191.64,63.9c-6.28-5.11-7.38-13.16-2.69-19.14s12.86-6.84,19.23-1.75c20,16,43.33,23.61,68.16,27.56a14.79,14.79,0,0,0,2.21,0c.7-1.74-.55-2.83-1.15-4-7.31-14.71-14.69-29.39-22-44.1C250,11.62,251.74,5.88,262.12,0h7.06C274,2.05,277,5.7,279.3,10.41c16.26,32.89,32.77,65.65,49.08,98.51,1.63,3.28,2.77,4.24,6.19,1.74,7.23-5.29,14.81-10.09,22.3-15,7.19-4.73,14.94-3.49,19.41,3s2.53,14.34-4.5,19.1-13.92,9.32-20.91,13.93c-1.58,1-2.49,1.77-.46,3.47,17.53,14.79,33.17,31.72,51.52,45.59,8.08,6.11,17.2,10.74,24.83,17.51,19.8,17.58,28.72,39.18,23.2,65.48-4.25,20.26-21.11,33.68-41.89,34.64-22.67,1.06-38.77-9.53-46.44-30.85a19.67,19.67,0,0,0-6-8.88c-4.51-3.77-8.82-7.79-13.1-11.82-1.54-1.45-2.47-1.41-3.86.21-17.15,19.88-38.33,34.08-62.52,43.9-3,1.2-2.87,2.24-1.32,4.64,11.44,17.79,22.71,35.7,34.15,53.49a21.12,21.12,0,0,1,3.41,12c-.12,20.88,0,41.77-.08,62.65,0,7-4.45,12.61-10.68,13.82a13.46,13.46,0,0,1-15.06-8.09c-1.08-2.66-1.07-5.46-1.08-8.25,0-18.24-.08-36.47.07-54.71a14.82,14.82,0,0,0-2.56-8.61q-20.33-31.73-40.48-63.57c-6.48-10.2-3.33-19,8.11-22.53,31.4-9.66,57.76-26.47,77-53.66,5.29-7.49,13.7-8.15,20.64-2,10.66,9.47,21.22,19.06,31.83,28.59a14.29,14.29,0,0,1,4.89,8.14,36,36,0,0,0,1.73,5.91c3.64,10,11.61,14.64,21.77,12.85,9.87-1.74,15.81-9.22,16.31-19.5.78-16-6.29-28.45-19.18-36.44-26.15-16.2-47.35-38.1-70.14-58.2-3.19-2.81-6.32-7-10-7.63s-7.06,4-10.53,6.37c-9.36,6.36-18.56,13-27.89,19.35-5.83,4-11.73,3.92-17-.76-12.82-11.37-28-15.26-44.71-15.58-13.09-.26-24.88,2.83-35.53,10.7-17.24,12.74-11.25,9.32-32.5,7.89-22.43-1.51-44.79-3.9-67.19-5.78A25.11,25.11,0,0,1,77,166.91c-9.28-6.69-20.09-9.47-31.33-6.54-18.28,4.78-24.63,27.1-12,41.27,3,3.35,5.16,6.83,4.74,11.4-.53,5.63-3.47,9.72-8.81,11.58a12.73,12.73,0,0,1-14.16-3.38A51.16,51.16,0,0,1,.88,191.72c-.13-1,0-2.08-.88-2.86Z"/><path d="M0,283.29c1.51-4.56,4.6-8.05,7.66-11.6C19.46,258,31.18,244.23,43,230.53c3.77-4.39,8.54-6.2,14.21-4.55,5.26,1.52,8.43,5.2,9.47,10.56.89,4.53-.81,8.31-3.73,11.71C52,261,41.14,273.72,30.19,286.4a8.48,8.48,0,0,0-2.31,7.07q5.64,57.21,10.83,114.46c.26,2.8,1.28,3.47,3.78,3.33a32.46,32.46,0,0,1,7,.14C56,412.47,60.45,418.55,60,425.58a12.81,12.81,0,0,1-12.31,12.08q-10.8.25-21.61,0c-6.77-.15-11.8-5.37-12.62-12.91-.74-6.71-1.28-13.45-1.92-20.17q-3.44-36-6.86-71.91c-1.3-13.75-2.54-27.49-3.81-41.24-.12-1.28.17-2.68-.91-3.73Z"/><path d="M148.18,285.1c3.82,0,7.64-.06,11.46,0a13.29,13.29,0,0,1,13.29,12.66c.33,7.41-4.79,13.1-12.38,13.87-23.13,2.35-45.36-1.38-66.8-10.08-3.2-1.3-4.6-1.1-6.11,2.36-7.13,16.36-7.14,16.28-3.62,34.42q6.65,34.33,12.87,68.75c.62,3.43,1.91,4.5,5.12,4.12a32.73,32.73,0,0,1,4.85,0,13.23,13.23,0,0,1-.11,26.45c-6.47.09-12.94,0-19.41,0-7.51,0-12.59-4.14-14-11.42q-8.49-45.19-16.89-90.38a27.75,27.75,0,0,0-.84-3.87c-3.65-10.9-1.06-20.69,3.91-30.76,7.71-15.64,14.27-31.85,21.45-47.76,2.74-6.07,8-8.91,14.23-8.08a13.68,13.68,0,0,1,11.25,11c.89,4.36-1.12,8-2.81,11.77-3.39,7.5-3.36,7.4,4.42,10.29C121,283.25,134.34,285.86,148.18,285.1Z"/><path d="M239.18,391.44c0,10.73,0,21.46,0,32.19,0,8.34-5.32,14-13,14.08-8,.07-13.44-5.62-13.45-14.14q-.06-29.54,0-59.08a20.56,20.56,0,0,0-1.3-7.29Q199.24,324,187.18,290.69c-2.86-7.9.4-15.34,7.77-18,7.14-2.61,14.39.87,17.24,8.64,8.78,23.94,17.41,47.94,26.15,71.9a19.78,19.78,0,0,1,.87,6.94q0,15.64,0,31.3Z"/></g></g></g></svg>