<svg xmlns="http://www.w3.org/2000/svg" viewBox="0 0 316.1 268.18"><defs><style>.cls-1{fill:#d37d7e;}</style></defs><g id="Layer_2" data-name="Layer 2"><g id="Layer_1-2" data-name="Layer 1"><g id="uXZ5LX.tif"><g id="Group_2" data-name="Group 2"><g id="Group_1" data-name="Group 1"><path id="Path_1" data-name="Path 1" class="cls-1" d="M225.4,268.18c0-7.2-.39-14.5.13-21.73.39-5.37,4.49-8.74,8.9-11.23,8.53-4.82,17.19-9.4,25.79-14.08,1.29-.7,2.56-1.43,4.77-2.68-9.17-1.19-17.42-2.11-25.63-3.35a320.56,320.56,0,0,1-157-69.45C55.88,124.1,32.85,99.33,16,69.32,4.76,49.22-1.29,27.72.23,4.45A30.24,30.24,0,0,1,.79,0c8.12,44.66,35.35,77.26,67.5,106.49,41.21,37.47,88.93,63.13,143.17,76.06,16.22,3.87,32.85,6.06,49.29,9l.66-2c-3.08-2-6.12-4.12-9.24-6.08-6-3.81-12-7.72-18.24-11.25-3.05-1.73-4.08-3.88-3.83-7.24.53-7.1.83-14.22,1.24-21.8,1.22.53,2.4,1.12,3.56,1.76,25.7,16.24,51.35,32.55,77.12,48.67,2.91,1.82,4.17,3.82,4.07,7.16-.2,6.48,0,13-.36,19.44a5.54,5.54,0,0,1-2.72,3.87c-23.58,11.4-47.29,22.55-70.84,34C236.44,260.92,231.17,264.69,225.4,268.18Z"/></g></g></g></g></g></svg>