<svg xmlns="http://www.w3.org/2000/svg" viewBox="0 0 266.43 266.43"><defs><style>.cls-1{fill:#b62829;}.cls-2{fill:#fff;}</style></defs><g id="Layer_2" data-name="Layer 2"><g id="Layer_1-2" data-name="Layer 1"><g id="_3hWqHD.tif" data-name="3hWqHD.tif"><g id="_7Iewbh.tif" data-name="7Iewbh.tif"><g id="Group_44" data-name="Group 44"><path id="Shape_2" data-name="Shape 2" class="cls-1" d="M266.43,133.15A133.22,133.22,0,1,1,133.15,0h.12A133.21,133.21,0,0,1,266.43,133.15Z"/></g><g id="_7Iewbh.tif-2" data-name=" 7Iewbh.tif"><g id="Group_46" data-name="Group 46"><g id="Group_45" data-name="Group 45"><path id="Path_11" data-name="Path 11" class="cls-2" d="M139.32,230.6H126.23c-2.71-.35-5.41-.83-8.12-1-1.65-.12-2.12-.68-2.12-2.46q0-37.59.07-75.16c0-1.77-.45-2.15-2-2.14-7.83.09-15.67,0-23.5.07-1.19,0-1.62-.24-1.62-1.64q.09-14.82,0-29.64c0-1.38.39-1.66,1.61-1.65,7.89,0,15.77,0,23.66.07,1.45,0,1.91-.34,1.89-2-.09-7.37,0-14.75,0-22.14a68.41,68.41,0,0,1,1.15-13.47,36.36,36.36,0,0,1,32.42-31.29,111,111,0,0,1,29.18,1.5c1,.14,1.49.51,1.48,1.76q-.1,12.51,0,25c0,1.27-.33,1.61-1.51,1.6-4.7,0-9.4-.1-14.1.07a15,15,0,0,0-11.27,5.08,18.81,18.81,0,0,0-4,12.69c-.07,6.43,0,12.85,0,19.28,0,1.52.43,1.87,1.78,1.85,8.73,0,17.46,0,26.18-.07,1.56,0,1.7.57,1.5,1.95-1.46,9.73-2.9,19.48-4.24,29.18-.19,1.35-.55,1.78-1.84,1.76-7.11-.06-14.21,0-21.32-.07-1.73,0-2.08.49-2.08,2.26q0,37.49.08,75c0,1.67-.27,2.41-2,2.54C144.72,229.74,142,230.25,139.32,230.6Z"/></g></g></g></g></g></g></g></svg>