<svg viewBox="0 0 97.81 97.78" xmlns="http://www.w3.org/2000/svg"><path d="m48.5 0h1a3.71 3.71 0 0 0 1 .06h.89.75a43.78 43.78 0 0 1 5.1.6 49.85 49.85 0 0 1 7 1.74 48.92 48.92 0 0 1 32.1 34.4 46.35 46.35 0 0 1 1.09 5.71 26.89 26.89 0 0 1 .3 3.36 3.62 3.62 0 0 0 .06 1v3.88a3.57 3.57 0 0 0 -.06 1v.8c-.14 1.69-.36 3.38-.66 5a48.88 48.88 0 0 1 -38.63 39.33c-1.41.28-2.83.5-4.27.66-1 .11-2 .19-3.06.21a1.15 1.15 0 0 0 -.37 0c-1.18 0-2.35 0-3.53 0a1.15 1.15 0 0 0 -.37 0h-.17a49.17 49.17 0 0 1 -5.28-.53 49.83 49.83 0 0 1 -6.61-1.52 48.9 48.9 0 0 1 -34.17-39.64c-.23-1.56-.38-3.12-.47-4.7a.36.36 0 0 0 0-.2c0-.06-.08 0-.11 0v-.16c0 .08.1.1.11 0a4.86 4.86 0 0 0 0-.54.62.62 0 0 0 0-.27c0-.79 0-1.58 0-2.38a.94.94 0 0 0 0-.41 4.68 4.68 0 0 0 0-.53c0-.11-.07-.08-.11 0v-.28c0 .06.08.1.11 0a.45.45 0 0 0 0-.23c.11-1.7.28-3.39.54-5.07a47.92 47.92 0 0 1 2-8.18 49 49 0 0 1 40.14-32.69c1.24-.15 2.49-.24 3.74-.32h.88a3.16 3.16 0 0 0 1.06-.1zm.5 72.74h14.34a12 12 0 0 0 1.58-.09 9 9 0 0 0 5.91-3.36 9.17 9.17 0 0 0 2-5.91v-28.89a10.8 10.8 0 0 0 -.16-1.89 9 9 0 0 0 -3.72-5.84 9.14 9.14 0 0 0 -5.47-1.67h-29a9.93 9.93 0 0 0 -1.44.08 8.89 8.89 0 0 0 -5 2.39 9 9 0 0 0 -2.89 6.81v29a9.23 9.23 0 0 0 .17 1.89 9 9 0 0 0 5.12 6.6 9.22 9.22 0 0 0 4.11.85z" fill="#b62829"/><path d="m.12 47.36a1.41 1.41 0 0 1 0 .41v2.38a.62.62 0 0 1 0 .27h-.12v-3z" fill="#a7a3a3"/><path d="m48.5 0a3.71 3.71 0 0 1 -1 .06v-.06z" fill="#5f5d5d"/><path d="m50.51.07a3.62 3.62 0 0 1 -1-.06h1s0 .04 0 .06z" fill="#5f5d5d"/><path d="m97.75 46h.06v1a3.57 3.57 0 0 1 -.06-1z" fill="#848080"/><path d="m97.81 51.87h-.07a3.58 3.58 0 0 1 .07-1z" fill="#858081"/><path d="m47.47 0v.07h-.89a.08.08 0 0 0 0-.07z" fill="#b1adad"/><path d="m50.51.07v-.07h.9a.06.06 0 0 0 0 .06 6.76 6.76 0 0 1 -.9.01z" fill="#b1adad"/><g fill="#b62829"><path d="m37 44a12.54 12.54 0 0 0 .08 10.08 13 13 0 0 0 24.92-4.08 13.19 13.19 0 0 0 -1-5.94.69.69 0 0 1 .32 0h6.68c.13 0 .19 0 .19.18v19.13a4.57 4.57 0 0 1 -4.43 4.7h-29.18a4.58 4.58 0 0 1 -2.29-.51 4.45 4.45 0 0 1 -2.46-4v-19.09c0-.52 0-.45.43-.45h6.74z"/><path d="m49 57.26a8.35 8.35 0 1 1 8.33-8.36 8.39 8.39 0 0 1 -8.33 8.36z"/><path d="m67.32 34.67v3.75c0 .3 0 .3-.3.3h-7.55c-.33 0-.3 0-.3-.3v-7.55c0-.3 0-.3.3-.3h7.53c.29 0 .29 0 .29.3.03 1.27.03 2.54.03 3.8z"/></g></svg>