<svg xmlns="http://www.w3.org/2000/svg" viewBox="0 0 266.43 266.43"><defs><style>.cls-1{fill:rgba(0%, 0%, 0%, 0);}.cls-2{fill:gray;}</style></defs><g id="Layer_2" data-name="Layer 2"><g id="Layer_1-2" data-name="Layer 1"><g id="Group_17" data-name="Group 17"><g id="_3hWqHD.tif" data-name=" 3hWqHD.tif"><g id="_7Iewbh.tif" data-name=" 7Iewbh.tif"><g id="Group_44" data-name="Group 44"><path id="Shape_2" data-name="Shape 2" class="cls-1" d="M266.43,133.15A133.22,133.22,0,1,1,133.15,0h.12A133.21,133.21,0,0,1,266.43,133.15Z"/></g></g></g><g id="_7B96Tc.tif" data-name=" 7B96Tc.tif"><g id="Group_16" data-name="Group 16"><g id="Group_15" data-name="Group 15"><path id="Path_56" data-name="Path 56" class="cls-2" d="M56.16,168.1V99.52c.17-.89.37-1.78.51-2.68a47.45,47.45,0,0,1,47.1-40.25q29.66,0,59.32,0a51.56,51.56,0,0,1,5.69.34,47.24,47.24,0,0,1,41.84,46.81q.09,30,0,60.1a47.2,47.2,0,0,1-34.13,45.27c-2.87.83-5.86,1.3-8.79,1.94H99.12a8.1,8.1,0,0,0-1.3-.38,47.26,47.26,0,0,1-40.51-36.83C56.89,171.94,56.54,170,56.16,168.1Zm141.92-34.27c0-9.79,0-19.57,0-29.36a35.44,35.44,0,0,0-.56-6.66c-3.33-17.13-17.32-28.64-34.74-28.66q-29.37,0-58.73,0a34.77,34.77,0,0,0-35.27,35.18q0,29.46,0,58.92A34.88,34.88,0,0,0,104,198.47q29.46,0,58.92,0a35.3,35.3,0,0,0,6.65-.6c17.16-3.43,28.5-17.34,28.53-34.86q0-14.58,0-29.16Z"/><path id="Path_57" data-name="Path 57" class="cls-2" d="M93.44,134a40.47,40.47,0,0,1,80.94.29c0,.16,0,.32,0,.47-.14,21.94-18.63,40-40.73,39.76A40.47,40.47,0,0,1,93.44,134Zm40.37,27.91A27.85,27.85,0,1,0,106,134v.12a27.89,27.89,0,0,0,27.8,27.77Z"/><path id="Path_58" data-name="Path 58" class="cls-2" d="M165.62,92.31a9,9,0,1,1,9,9.12,9,9,0,0,1-9-9.12Z"/></g></g></g></g></g></g></svg>