<svg xmlns="http://www.w3.org/2000/svg" viewBox="0 0 205.61 205.61"><defs><style>.cls-1{fill:#b62829;}.cls-2{fill:#fff;}</style></defs><g id="Layer_2" data-name="Layer 2"><g id="Layer_1-2" data-name="Layer 1"><g id="Group_50" data-name="Group 50"><g id="Group_47" data-name="Group 47"><path id="Shape_2" data-name="Shape 2" class="cls-1" d="M205.61,102.76A102.81,102.81,0,1,1,102.76,0h.08A102.8,102.8,0,0,1,205.61,102.76Z"/></g><g id="MxjAQO.tif"><g id="Group_49" data-name="Group 49"><g id="Group_48" data-name="Group 48"><path id="Path_12" data-name="Path 12" class="cls-2" d="M64.69,46.61c1.49.92,3.23,1.27,4.68,2.32a12.82,12.82,0,1,1-19.5,14.7c-.22-.61-.13-1.38-.81-1.79v-4.9c.51-.12.5-.6.62-1A12.74,12.74,0,0,1,58,47.3c.35-.13.83-.15,1-.66Z"/><path id="Path_13" data-name="Path 13" class="cls-2" d="M108.23,91.21A24.28,24.28,0,0,1,125.35,80.6a31.46,31.46,0,0,1,17.15,2.07A21.11,21.11,0,0,1,154.42,98.2,60.85,60.85,0,0,1,156,112.68c.09,12.9,0,25.8.08,38.7,0,1.65-.57,1.89-2,1.87-6.11-.07-12.21-.09-18.32,0-1.59,0-1.9-.47-1.89-2,.06-11.18,0-22.36,0-33.55a65.12,65.12,0,0,0-.35-7c-1.18-11.15-9.24-12.43-16.27-10.26A11.76,11.76,0,0,0,109.57,111a38.76,38.76,0,0,0-.45,7V151c0,1.69-.24,2.36-2.18,2.31-6.1-.16-12.21-.1-18.32,0-1.35,0-1.74-.37-1.73-1.72q.06-34,0-67.92c0-1.25.32-1.66,1.6-1.64q9.06.1,18.11,0c1.33,0,1.63.45,1.59,1.66C108.15,86.17,108.23,88.7,108.23,91.21Z"/><path id="Path_14" data-name="Path 14" class="cls-2" d="M73,117.62v33.52c0,1.75-.48,2.16-2.16,2.13-6-.11-12.07-.08-18.11,0-1.4,0-1.87-.32-1.87-1.8q.07-33.84,0-67.68c0-1.48.46-1.82,1.86-1.8,6,.07,12.08.1,18.11,0,1.68,0,2.18.37,2.16,2.12C73,95.27,73,106.44,73,117.62Z"/></g></g></g></g></g></g></svg>