<svg xmlns="http://www.w3.org/2000/svg" viewBox="0 0 691.85 230.73"><defs><style>.cls-1{fill:#b6292b;}.cls-2{fill:#fff;}.cls-3{fill:#b72c2e;}.cls-4{fill:#b62a2c;}.cls-5{fill:#b72b2d;}</style></defs><g id="Layer_2" data-name="Layer 2"><g id="Layer_1-2" data-name="Layer 1"><g id="Group_54" data-name="Group 54"><g id="Group_53" data-name="Group 53"><path id="Path_15" data-name="Path 15" class="cls-1" d="M329.65,0A19.29,19.29,0,0,0,335,.35c3.85,0,7.37,1.14,10.93,2.39C354.2,5.65,362.55,8.49,371,11a39.71,39.71,0,0,1,10,4.78A209.09,209.09,0,0,1,402.06,30.6a58.55,58.55,0,0,1,8.12,8.46c2.47,3.06,5.38,5.8,7.19,9.39a10.92,10.92,0,0,1,1.26,3.08c.1.54.48.79.8,1.14a34,34,0,0,1,7.71,14.13,7.61,7.61,0,0,1,.11,1.07c-.47,0-.5-.41-.67-.65-1.32-2-2.63-3.91-3.94-5.86a24.57,24.57,0,0,1-2.88-5,22.18,22.18,0,0,0-3.8-6c-1.34-1.64-2.56-3.37-3.85-5.06a30.1,30.1,0,0,0-5.21-5.43,29.35,29.35,0,0,1-3.49-3.29c-4.43-5-9.83-8.75-15.41-12.26a21.86,21.86,0,0,0-7.74-3.08,30.93,30.93,0,0,1-9.34-3.91,80.08,80.08,0,0,0-9.55-5,20.59,20.59,0,0,0-7.82-1.56,8.87,8.87,0,0,1-3.62-.72A24.55,24.55,0,0,0,341,8.43c-8.71-.33-17.42-.49-26.13-.06a10.84,10.84,0,0,0-3.86.77,24.11,24.11,0,0,1-7.82,1.63,16.82,16.82,0,0,0-5.53,1.41c-6.65,3-13.51,5.55-20,8.92a57.86,57.86,0,0,0-12.55,8.52,31.81,31.81,0,0,1-6,4,54.47,54.47,0,0,0-6,3.72,4.22,4.22,0,0,0-1.7,2.2,15,15,0,0,1-2.05,3.78A104.14,104.14,0,0,1,239,56.73a12.31,12.31,0,0,1-3.13,2.76,1.28,1.28,0,0,0-.52.63C231.67,68,228,75.85,225.53,84.24c-1.34,4.63-1.62,9.42-2.36,14.13-.68,4.3-.9,8.66-1.23,13-.45,6,.76,11.84,2.35,17.59,2.49,9,4.62,18.07,8,26.8A106.13,106.13,0,0,0,245.53,180a88.69,88.69,0,0,0,12.4,14.27,4.33,4.33,0,0,1-3.34-.95c-10.14-9.23-18.67-19.7-24.63-32.11a108,108,0,0,1-5.56-15.4,103.14,103.14,0,0,1-4-17.08c-1.4-11-1.7-22,.26-32.93.85-4.7,1.28-9.49,2.71-14.08,4-12.84,9.73-24.79,18.16-35.35A6.13,6.13,0,0,0,243,41.53c-1,1.07-1.93,2-2.8,2.88A110.62,110.62,0,0,0,212,98.06a83.35,83.35,0,0,0-2.28,12.33c-.43,6.34-.25,12.7-.16,19,.05,3.8,1.3,7.37,1.7,11.1a27.35,27.35,0,0,1-.4,7.92,15.75,15.75,0,0,1-1-3.22c-.2-1-.44-2-.63-3a28.45,28.45,0,0,0-1.45-5.43,11,11,0,0,1-.4-3.43,286.22,286.22,0,0,1-.23-32.22c.15-3.86,1.6-7.4,2.13-11.13,1.22-8.59,5-16.25,8.39-24.08,4.42-10.29,11.06-19.09,18.12-27.64,4.6-5.57,10.24-10,15.78-14.48.93-.76,1.91-1.47,2.77-2.3,5.74-5.55,12.6-9.22,20-12,5.6-2.1,11-4.64,16.9-6a104.11,104.11,0,0,1,11.23-1.79c1.56-.18,2.88-1.18,4.46-1.3l1.42-.15L314.4.21a61.94,61.94,0,0,0,7.08-.2Z"/><path id="Path_16" data-name="Path 16" class="cls-2" d="M0,68.57l18,.05a17.81,17.81,0,0,1,7.82,1.51A13.33,13.33,0,0,1,33.71,81.6a85.37,85.37,0,0,1-.17,17.58,15.75,15.75,0,0,1-4.75,9.33,11.19,11.19,0,0,1-3.8,2.26c6.07,2.6,8.26,7.65,8.78,13.56a83.31,83.31,0,0,1,0,13.77c-.46,6.14-3.62,10.78-8.92,13.93a8.13,8.13,0,0,1-4.37,1Q10.26,153,0,153v-2.88c1.85.07,2.72-.67,2.91-2.51A13.57,13.57,0,0,0,3,146V75.53a10.6,10.6,0,0,0-.13-2,2.09,2.09,0,0,0-2.2-2,2.29,2.29,0,0,0-.64.14ZM11.19,90.28v18c0,.5-.24,1.14.74,1.12,2-.07,4.08.07,6.11-.08,3.37-.24,5.92-1.8,7.16-5.09a21,21,0,0,0,1.19-5.59c.4-4.7.13-9.42.19-14.13a27.21,27.21,0,0,0-.19-5.26c-.67-3.66-2.56-7-7.11-7.59-2.32-.32-4.62-.12-6.93-.27-.95-.06-1.19.25-1.18,1.19,0,5.91,0,11.82,0,17.73Zm0,40.94c0,6,0,11.91,0,17.86,0,.88.19,1.21,1.12,1.15,1.23-.08,2.48,0,3.71,0,5.61-.11,9.12-3.12,10.16-8.6.68-3.57.37-7.17.42-10.76a43,43,0,0,0-.66-10.13c-1-4.66-4.4-8.67-9.94-8.38a26.94,26.94,0,0,1-3.48,0c-1-.08-1.35.18-1.34,1.28C11.22,119.48,11.19,125.35,11.19,131.22Z"/><path id="Path_17" data-name="Path 17" class="cls-3" d="M314.29,0a2.12,2.12,0,0,0,.11.21l-6.07,0,0-.25Z"/><path id="Path_18" data-name="Path 18" class="cls-1" d="M281.66,212a13.17,13.17,0,0,1,4.86,1.09c3.29,1.12,6.38,2.73,9.69,3.8a20.75,20.75,0,0,0,6.94,1.1,27.37,27.37,0,0,1,9.91,2.07c3.75,1.34,7.52,2.47,11.58,2a22.14,22.14,0,0,0,3.89-.58A39.56,39.56,0,0,1,339,220.15a30,30,0,0,0,9.37-1.72c5.33-1.92,10.85-3.27,16.12-5.36,9-3.58,16.4-9.55,22.93-16.55,4-4.33,8-8.74,12.05-13,7.27-7.63,12-16.76,15.91-26.4,3.23-7.92,4.87-16.23,6.74-24.52,1.3-5.77,1.19-11.58,1.6-17.37a15.84,15.84,0,0,1,.85-4.62c.19,1.46.4,2.91.56,4.37a143.61,143.61,0,0,1,.77,18.43,80.14,80.14,0,0,1-8.8,34.62c-1.09,2.17-2.12,4.38-3.19,6.56a7.49,7.49,0,0,0-.72,3.76c1.2-1.58,2.25-2.91,3.25-4.29a105,105,0,0,0,19.71-63.3,62.42,62.42,0,0,1,.54-9.56c.06-.47.16-.93.3-1.75A53.59,53.59,0,0,1,438,107.2a174.53,174.53,0,0,1-.07,22.64c-.19,3.77-1.67,7.37-2.5,11.06a109.18,109.18,0,0,1-11.05,28.83c-2.81,5.08-6.28,9.71-9.54,14.5-3.64,5.34-7.07,10.84-11.1,15.9a29.52,29.52,0,0,1-7.55,6.76c-7.14,4.47-14.08,9.26-21.64,13a59.71,59.71,0,0,1-10.84,4.42,38.88,38.88,0,0,0-6.62,2.43c-4.13,2-8.49,2.4-13,2.29l-.6,0c-5.06-.08-10.12-.38-15.09,1.17a18.7,18.7,0,0,1-7,.33,3.44,3.44,0,0,1-2.55-1.4,8.28,8.28,0,0,0-5.48-3c-3-.54-5.91-1.34-8.87-2a16.07,16.07,0,0,1-6-3.14,21.06,21.06,0,0,0-5.86-3.17,51.49,51.49,0,0,1-10.34-5.23c-.25-.16-.63-.2-.66-.6Z"/><path id="Path_19" data-name="Path 19" class="cls-2" d="M278.81,111.62c-.88,4.79-1.78,9.56-2.64,14.35q-2.34,13-4.63,25.92c-.14.79-.38,1.15-1.28,1.08a39.23,39.23,0,0,0-4.2,0c-.7,0-.93-.18-1-.89-1.06-6.82-2.17-13.63-3.25-20.45q-2.36-14.79-4.68-29.56-2.11-13.43-4.2-26.85c-.34-2.23-1.58-4.18-4.46-3.94-.39,0-.54,0-.6-.47-.29-2.24-.16-2.42,2.08-2.42,4.76,0,9.52,0,14.28,0,.9,0,1.36.16,1.2,1.16a4.88,4.88,0,0,0,0,1.08c0,.48-.08.66-.65.67-2.13,0-2.89,1-2.6,3.14,1.65,11.9,3.51,23.76,5.38,35.63,1.24,7.88,2.54,15.76,3.81,23.64,0,.15.07.3.12.5.57-.3.43-.86.5-1.26,1.81-9.89,3.58-19.79,5.37-29.68.3-1.63-.21-3.17-.46-4.73Q275,86.68,273.08,74.86c-.42-2.55-1.65-3.62-4.22-3.58-.58,0-.62-.18-.64-.66-.11-2.24-.12-2.24,2.13-2.24,4.72,0,9.44,0,14.15,0,.95,0,1.32.24,1.19,1.19a6.87,6.87,0,0,0,0,1.2c0,.4-.11.52-.55.54-2.33.11-3,1-2.7,3.39.47,3.2,1,6.39,1.48,9.59,1.41,9.23,2.79,18.46,4.22,27.7,1.11,7.21,2.27,14.43,3.41,21.64.06.34.18.67.37,1.35,1.5-8.2,3-16,4.36-23.89,2.09-11.95,4.1-23.91,6.15-35.86.05-.32.09-.64.11-.95.12-2.39-.62-3.12-3-3a.62.62,0,0,1-.1-.22c-.12-2.7-.12-2.7,2.6-2.7s5.2.05,7.8,0c.94,0,1.23.28,1.09,1.15a1.93,1.93,0,0,0,0,.48c.11.91,0,1.38-1.21,1.3-2-.15-3.42,1.14-3.83,3.36-.84,4.43-1.58,8.88-2.39,13.31q-3.53,19.44-7.07,38.86-2.25,12.36-4.43,24.74c-.18,1-.42,1.55-1.6,1.42a23.1,23.1,0,0,0-3.72,0c-.8,0-1.15-.12-1.3-1q-2.76-17.69-5.61-35.35c-.26-1.66-.51-3.31-.77-5Z"/><path id="Path_20" data-name="Path 20" class="cls-2" d="M178.81,99.55c.25-.22.13-.47.13-.69q0-11.81,0-23.61a6.77,6.77,0,0,0-.22-1.9,2.2,2.2,0,0,0-2.28-1.9c-.61,0-.71-.18-.73-.73-.09-2.19-.11-2.19,2.07-2.19,2.68,0,5.36,0,8,0,1,0,1.18.25,1.17,1.18q0,21,0,42.08v34.76a13.55,13.55,0,0,0,.05,1.56c.19,2,1,2.51,2.86,2,.05.05.13.1.13.15.2,2.75.2,2.75-2.52,2.75-2.56,0-5.12,0-7.68,0-.67,0-.91-.19-.88-.87.06-1.08,0-2.16,0-3.29-.14.05-.27.06-.33.14-4,4.93-9.14,5.95-15,4.53-6-1.48-9.71-6-10.33-12.45-.15-1.6-.22-3.19-.22-4.79q0-12.58,0-25.17a25.62,25.62,0,0,1,.75-6.53c1.51-5.89,6-9.56,12.19-10.18,4.18-.42,7.94.39,11.11,3.29C177.74,98.28,178.25,98.94,178.81,99.55ZM162,124.25c0,5.95,0,11.9.2,17.85a19.16,19.16,0,0,0,1,5.76,4.89,4.89,0,0,0,4.32,3.45,8.93,8.93,0,0,0,8.85-4.1,15.87,15.87,0,0,0,2.62-9.07q.07-13.95,0-27.91a16.52,16.52,0,0,0-2.39-8.66,9,9,0,0,0-6.14-4.38c-4.22-.83-6.92,1-7.75,5.18a26.73,26.73,0,0,0-.49,4.27c-.21,5.87-.22,11.74-.18,17.61Z"/><path id="Path_21" data-name="Path 21" class="cls-2" d="M336.84,99.77c3.63-5.46,9.32-6.12,13.87-4.93,5.61,1.46,8.7,5.18,9.64,10.8a35.65,35.65,0,0,1,.45,5.84v34.39a17.38,17.38,0,0,0,.06,2,2.07,2.07,0,0,0,2,2.14H363c.77,0,.91.28.9,1,0,2,0,2-2,2-3.72,0-7.44,0-11.15,0-.88,0-1.28-.19-1.13-1.12a4.79,4.79,0,0,0,0-1.07c0-.5,0-.8.68-.81a2.1,2.1,0,0,0,2.15-2,11.79,11.79,0,0,0,.17-1.78c0-10.87.05-21.73,0-32.6,0-3.9.06-7.84-.85-11.68,0,0,0-.08,0-.12-1-4.26-3.85-5.8-8-4.37a8.82,8.82,0,0,0-5.4,5.26,19.12,19.12,0,0,0-1.45,7.23q-.06,18.28,0,36.55a15.25,15.25,0,0,0,.15,1.79,2,2,0,0,0,1.75,1.72c.34.09.94-.26,1,.32a11,11,0,0,1-.07,2.5c0,.26-.49.15-.76.15-4.15,0-8.31,0-12.47,0-.66,0-1-.16-.88-.86a4.82,4.82,0,0,0,0-1.2c-.08-.71.13-.93.9-1a2.11,2.11,0,0,0,2.22-2,1.09,1.09,0,0,0,0-.18,17.85,17.85,0,0,0,.07-1.79q0-22,0-44.1c0-.52,0-1-.06-1.56A2.24,2.24,0,0,0,326.59,98h-.23c-.77,0-.93-.4-.76-1s-.66-1.77.58-1.81c3.36-.11,6.72,0,10.07,0,.63,0,.59.37.59.78Z"/><path id="Path_22" data-name="Path 22" class="cls-2" d="M124.06,99.81c3.41-5.2,8.83-6.22,13.7-5,5.55,1.37,8.75,5,9.77,10.55a32.18,32.18,0,0,1,.49,6q0,17.43,0,34.87a15.18,15.18,0,0,0,.09,1.91,2.07,2.07,0,0,0,2.17,2c.7,0,.84.23.85.89,0,2.09,0,2.09-2.07,2.09-3.68,0-7.35,0-11,0-1,0-1.3-.28-1.18-1.2a6.87,6.87,0,0,0,0-1.2c0-.39.1-.58.54-.59,1.47,0,2.13-.89,2.32-2.23a10,10,0,0,0,.12-1.54c0-10.47,0-20.94,0-31.4a70.61,70.61,0,0,0-.68-12.07c0-.27-.12-.54-.17-.82-1-5.12-4.79-5.89-8.8-4.18-3.14,1.34-4.61,4-5.39,7.2a24.21,24.21,0,0,0-.74,5.93q0,17.55,0,35.11a14.12,14.12,0,0,0,.14,2.15,1.93,1.93,0,0,0,2,1.82c.85,0,.85.42.85,1,0,2,0,2-2,2-3.71,0-7.43,0-11.15,0-1,0-1.28-.3-1.16-1.22a4.79,4.79,0,0,0,0-1.07c0-.5.14-.66.66-.7,1.81-.18,2.34-.73,2.5-2.57.07-.71.08-1.43.08-2.15V102.81c0-.92-.06-1.84-.15-2.75a2,2,0,0,0-1.93-2c-1.41,0-1.16-.82-1.15-1.62,0-.6-.23-1.28.87-1.26,3.2.06,6.4,0,9.59,0,.63,0,.83.2.81.83C124,97.21,124.06,98.35,124.06,99.81Z"/><path id="Path_23" data-name="Path 23" class="cls-2" d="M457,110.77q0-17.62,0-35.25a12.75,12.75,0,0,0-.2-2.38,2.19,2.19,0,0,0-2.2-2c-.67,0-.67-.27-.69-.76-.06-2.05-.07-2.05,2-2.05,10,0,19.91,0,29.87,0,1,0,1.29.21,1.27,1.23-.06,3.4-.05,6.8,0,10.19,0,.85-.24,1.07-1.07,1.06-2,0-2,0-2.24-2.06A10.62,10.62,0,0,0,481.55,73a4.87,4.87,0,0,0-4-2c-3.84,0-7.68,0-11.52,0-.68,0-.87.2-.87.87q0,19.13,0,38.24c0,.77.25.92,1,.91,2.12,0,4.24-.11,6.36,0,3,.17,4.3-1.08,4.92-4.33.09-.45-.2-1.18.27-1.31a6.36,6.36,0,0,1,2.26,0c.43,0,.27.51.28.8,0,4.32,0,8.63,0,12.95,0,.63-.2.87-.82.8a3.86,3.86,0,0,0-1,0c-.77.1-1-.19-1-1a6.6,6.6,0,0,0-.87-3,3.26,3.26,0,0,0-3.09-1.87q-3.72,0-7.44,0c-.72,0-.85.25-.85.9q0,17.2,0,34.4c0,.69.22.87.89.87,3.8,0,7.6,0,11.39,0,2.93,0,4.87-1.73,5.75-4.84a16.66,16.66,0,0,0,.61-3.78c0-.77.31-1,1.08-1,2.1,0,2.1,0,2.1,2.05,0,3.08-.05,6.16,0,9.23,0,1-.28,1.18-1.2,1.18q-15.36,0-30.71,0c-.88,0-1.36-.15-1.19-1.15a4.88,4.88,0,0,0,0-1.08c0-.5,0-.77.68-.74a2.14,2.14,0,0,0,2.2-1.82A8.58,8.58,0,0,0,457,146Z"/><path id="Path_24" data-name="Path 24" class="cls-2" d="M580,146.82a13.62,13.62,0,0,1-8.2,6.83,12.2,12.2,0,0,1-14.23-6.18,17.43,17.43,0,0,1-.42-17,23.62,23.62,0,0,1,9.67-10.17,92.64,92.64,0,0,0,10.79-7.54c5-3.93,3.29-13-3.15-15.39a11,11,0,0,0-10.06,1.24,3.94,3.94,0,0,0-1.11,1.08c-1.1,1.5-.74,2.8,1,3.51a5.62,5.62,0,0,1,3.79,5.43,5.55,5.55,0,0,1-11.06.54c-.38-7.61,4.13-13.76,12.16-14.88,7.48-1,15.47,4,17.5,11.15a17.16,17.16,0,0,1,.48,4.63q0,16.23,0,32.47c0,1.76.06,3.51.13,5.27a3.17,3.17,0,0,0,2.74,3.26,3.31,3.31,0,0,0,3.83-2.32,2.05,2.05,0,0,1,2.4-.78c.44.33.16.82,0,1.2a7.57,7.57,0,0,1-6.75,4.92c-3.3,0-7.27-1-9.06-6C580.38,147.71,580.23,147.34,580,146.82Zm-.85-30.73c-3.21,2.83-6.63,5-9.53,7.8a19.34,19.34,0,0,0-6.23,12.45,13.62,13.62,0,0,0,1.35,8.13,8.4,8.4,0,0,0,8.75,3.88c2.89-.51,4.89-2.84,5.43-6.37a16.87,16.87,0,0,0,.22-2.74C579.2,131.62,579.19,124,579.19,116.09Z"/><path id="Path_25" data-name="Path 25" class="cls-2" d="M95.79,146.73a16.55,16.55,0,0,1-2.73,3.66c-6.14,5.91-15.28,4.74-19.62-2.69a17.31,17.31,0,0,1-.58-17.17,23.56,23.56,0,0,1,9.66-10.18,100.21,100.21,0,0,0,10.7-7.45c5.22-4,3.34-13.28-3.23-15.57a11.12,11.12,0,0,0-9.74,1.22,4.42,4.42,0,0,0-1.07,1c-1.31,1.58-1,3,.9,3.77A5.67,5.67,0,0,1,83.76,109a5.42,5.42,0,0,1-5.45,5.12A5.51,5.51,0,0,1,72.69,109c-.19-8,4.6-13.61,12.16-14.67,7.79-1.1,16,4.26,17.69,11.8a16.84,16.84,0,0,1,.35,3.81v34.39c0,1.24,0,2.48.11,3.71a3.13,3.13,0,0,0,2.82,3.07,3.34,3.34,0,0,0,3.79-2.41,2.2,2.2,0,0,1,2.46-.68c.33.27.08.59,0,.87-.74,3.25-4.64,5.64-8.3,5.18C99.52,153.53,97,151.11,95.79,146.73ZM95,116c-3,2.69-6.15,4.72-8.9,7.2-5.1,4.6-7.61,10.23-6.93,17.17.52,5.33,4.49,8.62,9.77,8,3.12-.34,5.59-3.19,5.81-6.94.5-8.37.07-16.75.25-25.46Z"/><path id="Path_26" data-name="Path 26" class="cls-2" d="M528.64,121c0-7,0-14,0-21,0-1.14-.34-1.38-1.4-1.34-1.95.08-3.91,0-5.87,0-.72,0-1-.19-1-.94,0-2.32,0-2.32,2.2-2.32,1.68,0,3.36,0,5,0,.68,0,1-.1,1-.9,0-6.67,0-13.34,0-20a3.86,3.86,0,0,0-.86-2.79,1.49,1.49,0,0,0-1.23-.63c-1.85.13-.71-1.26-.92-1.92-.3-.9.4-.88,1-.88,3,0,5.92,0,8.88,0,1,0,1.34.22,1.34,1.3-.06,8.19,0,16.38-.06,24.57,0,1.08.29,1.33,1.33,1.3,2.51-.08,5,0,7.55,0,.79,0,1.12.13,1.1,1,0,2.23,0,2.23-2.27,2.23s-4.47,0-6.71,0c-.66,0-1,.07-1,.88q0,21-.1,42a11.64,11.64,0,0,0,.82,4.08,6,6,0,0,0,6.64,4.29,6.53,6.53,0,0,0,6.12-5.46c.22-1.73,1.39-.92,2.14-1,1.08-.08.57.88.52,1.32-.54,4.58-3.56,7.11-7.55,8.58A12.3,12.3,0,0,1,529.64,146a12.13,12.13,0,0,1-.71-3.21l-.06-1C528.54,134.92,528.67,128,528.64,121Z"/><path id="Path_27" data-name="Path 27" class="cls-2" d="M386.1,125.68c-3.64,0-7.27,0-10.91,0-.61,0-.95.07-.93.83.14,5.1-.25,10.22.26,15.32a12,12,0,0,0,2.55,6.84c2.56,3,5.84,3.1,9.33,2.28,5-1.16,7.9-4.76,8.49-10.42.11-1,.21-2.07.22-3.1,0-.62.17-.88.81-.81a7.27,7.27,0,0,0,1.32,0c.48,0,.6.19.61.64a22.65,22.65,0,0,1-1.26,8.83c-1.88,4.69-5.6,7-10.4,7.79a16.86,16.86,0,0,1-17.51-8.25,14.2,14.2,0,0,1-2-7.3q-.13-13.6-.24-27.2a17.45,17.45,0,0,1,2.61-9.8c3.64-5.68,10.69-8.24,17.68-6.38a14.67,14.67,0,0,1,11,13.92c.16,5.31.05,10.62.1,15.93,0,.79-.27.92-1,.91C393.3,125.67,389.7,125.68,386.1,125.68Zm-4-3.07c2.28,0,4.56,0,6.83,0,.67,0,1-.07,1-.88-.06-3.88,0-7.75-.1-11.62a22.37,22.37,0,0,0-1.89-8.83,5.94,5.94,0,0,0-5.58-3.65,6.3,6.3,0,0,0-5.85,3.09,11.17,11.17,0,0,0-1.47,4.14c-1,5.67-.5,11.4-.62,17.1,0,.68.4.64.85.64Z"/><path id="Path_28" data-name="Path 28" class="cls-2" d="M608.26,120.84v19.41a15.48,15.48,0,0,0,.89,5.52,6,6,0,0,0,6.39,4.18,6.85,6.85,0,0,0,6.31-5.14c.1-.45-.09-1.14.42-1.28a5.71,5.71,0,0,1,2-.05c.46,0,.31.47.3.77a8.31,8.31,0,0,1-2.13,5.47c-3.58,3.8-8,5.35-13,3.92a11.7,11.7,0,0,1-8.76-9.78,52.89,52.89,0,0,1-.42-9.33q0-17.25,0-34.51c0-1-.22-1.37-1.3-1.31-2,.1-3.91,0-5.87,0-.73,0-1.05-.13-1.05-1,0-2.29,0-2.29,2.24-2.29,1.72,0,3.44,0,5.16,0,.63,0,.82-.2.82-.83,0-6.75,0-13.5,0-20.25a3.53,3.53,0,0,0-1-2.74,1.35,1.35,0,0,0-1-.52c-2,.15-.83-1.34-1-2-.26-1.05.67-.73,1.18-.73,3,0,5.92,0,8.87,0,.93,0,1.21.21,1.2,1.17,0,8.23,0,16.46-.05,24.69,0,1,.25,1.34,1.3,1.3,2.52-.08,5,0,7.55,0,.8,0,1.12.14,1.11,1,0,2.22,0,2.22-2.17,2.22s-4.48,0-6.72,0c-.82,0-1.07.19-1.07,1,0,7,0,14.06,0,21.09Z"/><path id="Path_29" data-name="Path 29" class="cls-2" d="M646.53,125.68h-10.8c-.48,0-1-.08-.93.69.14,5.27-.29,10.55.29,15.8a11.4,11.4,0,0,0,2.74,6.76c2.53,2.74,5.66,2.74,9,2.06,5-1,7.39-4.47,8.4-9.16a17.66,17.66,0,0,0,.43-4.16c0-1,.37-1.24,1.17-1,.53.13,1.51-.63,1.55.6a21.32,21.32,0,0,1-1.28,8.95c-1.89,4.61-5.6,6.91-10.35,7.68a16.9,16.9,0,0,1-17.64-8.45,14.21,14.21,0,0,1-1.87-7.09q-.13-13.55-.25-27.08a17.57,17.57,0,0,1,2.62-9.91,15.77,15.77,0,0,1,16.74-6.62,14.69,14.69,0,0,1,11.8,12.58,67,67,0,0,1,.23,8.73c0,2.88,0,5.76,0,8.63,0,.86-.25,1-1.07,1C653.72,125.66,650.12,125.68,646.53,125.68Zm-3.83-3.07c2.24,0,4.48,0,6.72,0,.72,0,1.05-.1,1-1-.06-3.67,0-7.35-.07-11a24.26,24.26,0,0,0-1.94-9.43c-2.14-4.75-8.93-4.6-11.33-.64a12.44,12.44,0,0,0-1.56,4.37c-1,5.63-.53,11.31-.64,17,0,.76.47.69,1,.69Z"/><path id="Path_30" data-name="Path 30" class="cls-2" d="M49.33,99.46c1.5-1.81,2.75-3.65,4.9-4.5,6.72-2.64,12.3-.27,14.74,6.93a15.15,15.15,0,0,1,1.12,7.26,5.57,5.57,0,1,1-8.83-5.25c.77-.57,1.62-1,2.36-1.63,1.6-1.32,1.57-2.54,0-3.85A8.27,8.27,0,0,0,52,99.85l-.39.55A13.71,13.71,0,0,0,49.35,108q0,19.11,0,38.23a11.13,11.13,0,0,0,.11,1.91,2,2,0,0,0,2,2c.73,0,.82.22.83.86,0,2.1,0,2.1-2,2.1-3.8,0-7.59,0-11.39,0-.79,0-1.08-.22-1-1a5.74,5.74,0,0,0,0-1.31c0-.51.12-.65.67-.66A2.42,2.42,0,0,0,41,147.9a12.08,12.08,0,0,0,.11-1.8v-44a11.87,11.87,0,0,0-.1-1.79,2.54,2.54,0,0,0-2.48-2.29c-.46,0-.59-.12-.63-.59-.19-2.3-.21-2.3,2.07-2.3,2.75,0,5.51,0,8.27,0,.94,0,1.16.29,1.1,1.15C49.28,97.34,49.33,98.4,49.33,99.46Z"/><path id="Path_31" data-name="Path 31" class="cls-2" d="M515.52,102.53c0,2.07,0,4.15,0,6.23,0,.8-.16,1.11-1,1.09-2,0-2,0-2.09-1.94a13.79,13.79,0,0,0-3.19-8.45c-2.62-3-8.21-3-10.92-1.64s-4.16,5.13-3.53,8.74c.53,3.07,2.34,5.23,4.69,7.1,5.61,4.49,11.42,8.75,15.76,14.62A17.91,17.91,0,0,1,518.44,143c-1.42,7-8.63,11.93-15.75,11.14a11.16,11.16,0,0,1-3.58-1.3,17.32,17.32,0,0,0-3.53-1.47c-.84-.2-1.45,0-1.57,1-.18,1.33-1.17.54-1.78.67s-.56-.48-.56-.89c0-4.11,0-8.23,0-12.34,0-.7.14-1.07.92-1a4.87,4.87,0,0,0,1.08,0c.68-.08.88.18.85.86a14.5,14.5,0,0,0,.9,5.76c1.22,3.26,3.19,5.73,6.86,6.27,4,.58,7.61-.33,10.22-3.62a7.37,7.37,0,0,0,.81-7.82,16.33,16.33,0,0,0-5.23-6.58c-4.6-3.59-9.27-7.09-13.13-11.52-5.44-6.23-6.12-13.22-3.31-20.7,2.21-5.9,9.62-8.92,15.44-6.47,1.36.58,2.68,1.24,4.06,1.76s1.66.28,2.1-1.11c.3-1,1.14-.35,1.71-.48s.6.33.6.76Q515.52,99.23,515.52,102.53Z"/><path id="Path_32" data-name="Path 32" class="cls-2" d="M688.5,102.47c0,2.12,0,4.24,0,6.35,0,.75-.15,1-1,1-2,0-2,0-2.15-2-.24-3.31-1.12-6.35-3.59-8.76-2.62-2.56-8.68-3-11.48-.66-2.53,2.14-3,5.08-2.54,8.2s2.36,5.19,4.71,7.07c5.57,4.47,11.36,8.71,15.68,14.54a18,18,0,0,1,3.22,15c-1.45,6.88-8.81,11.81-15.79,10.94a10,10,0,0,1-3-1,20.92,20.92,0,0,0-3.95-1.7c-.9-.22-1.5,0-1.64,1-.18,1.25-1.13.47-1.71.62s-.62-.4-.62-.85c0-4.15,0-8.31,0-12.46,0-.65.15-1,.86-.89a3.91,3.91,0,0,0,1.08,0c.76-.11.94.2.91.93a15.07,15.07,0,0,0,.91,5.76c2.22,6.37,8,7.6,13.13,5.5,5.61-2.3,7-7.6,3.72-12.69a19.42,19.42,0,0,0-4.54-4.9c-4.52-3.48-9.06-6.94-12.84-11.3-5.39-6.2-6.06-13.16-3.28-20.59,2.23-6,9.63-9,15.52-6.49,1.39.59,2.75,1.27,4.18,1.77,1.14.4,1.74.25,1.93-1.1.14-1.06,1.08-.39,1.64-.53s.66.21.66.7C688.49,98.08,688.5,100.27,688.5,102.47Z"/><path id="Path_33" data-name="Path 33" class="cls-2" d="M318.61,121.66v24.68a6.92,6.92,0,0,0,.18,2,2,2,0,0,0,2.11,1.74c.58,0,.62.2.65.67.12,2.27.13,2.27-2.1,2.27-3.68,0-7.35,0-11,0-.92,0-1.22-.25-1.09-1.13a3.85,3.85,0,0,0,0-1c-.05-.58,0-.94.79-.88a2,2,0,0,0,2.08-1.62,6.47,6.47,0,0,0,.23-2V101.78a5.49,5.49,0,0,0-.26-2c-.33-.91-.91-1.69-2-1.62-.82,0-.89-.26-.88-.93,0-2,0-2,1.94-2,2.67,0,5.35.06,8,0,1.16,0,1.34.36,1.33,1.4C318.59,105,318.61,113.31,318.61,121.66Z"/><path id="Path_34" data-name="Path 34" class="cls-4" d="M355.67,14.93c2.15.68,4.11,1.34,6.1,1.92a35.56,35.56,0,0,1,8.49,4.09c2.77,1.68,5.52,3.37,8.37,4.9a22.87,22.87,0,0,1,4.89,3.45c6.92,6.57,13.81,13.21,19.67,20.78,6.75,8.72,11.44,18.59,15.47,28.8,1.08,2.74,2.35,5.42,2.76,8.38a6.78,6.78,0,0,1-1.16,5.13c-.36-.25-.35-.62-.44-.95-5.4-18.18-14.33-34.32-27.8-47.83-5.56-5.58-12.06-10-18.33-14.66a98.92,98.92,0,0,0-16.82-10.32,1.32,1.32,0,0,1-.87-1.26C356,16.57,355.79,15.79,355.67,14.93Z"/><path id="Path_35" data-name="Path 35" class="cls-2" d="M601.09,177c0-2.69,0-5.24,0-7.8,0-.85.25-1.07,1.08-1.06,2.43,0,2.43,0,2.43,2.44,0,7.95,0,15.9,0,23.85,0,1-.24,1.39-1.24,1.23a3.91,3.91,0,0,0-1.08,0c-.89.13-1.38-.16-1.19-1.35a8,8,0,0,1-5.17,1.68,7.57,7.57,0,0,1-7.4-4.9,12,12,0,0,1,.31-10C590.7,177.2,595,173.9,601.09,177Zm0,9.05v-4.08a2.87,2.87,0,0,0-2.37-3.08,5.63,5.63,0,0,0-6.32,2.78,9.35,9.35,0,0,0-.8,7,5.75,5.75,0,0,0,8.56,3.7,1.63,1.63,0,0,0,1-1.62c-.06-1.56,0-3.12,0-4.67Z"/><path id="Path_36" data-name="Path 36" class="cls-2" d="M501.57,188.49,506.25,177c.15-.37.15-.9.76-.94s.72.53.89.94c1.63,3.88,3.25,7.76,5,11.84,1.27-3.58,2.46-6.95,3.65-10.33a1.55,1.55,0,0,1,.06-.23c.78-2.24.78-2.21,3.08-2.23.86,0,1.1.12.77,1.05-1.69,4.68-3.32,9.39-5,14.09-.47,1.31-.91,2.64-1.39,3.94-.13.33-.09.8-.68.85s-.71-.4-.88-.78q-2.49-5.76-5-11.53l-.39-.8c-.19.36-.33.6-.44.86-1.62,3.77-3.23,7.54-4.86,11.31-.18.4-.2,1-.9.94s-.63-.63-.77-1c-2.09-5.9-4.14-11.8-6.24-17.7-.32-.89-.35-1.24.79-1.2,2.52.06,2.52,0,3.29,2.38l3.27,10.07Z"/><path id="Path_37" data-name="Path 37" class="cls-2" d="M641.39,186.21c-2,0-4.08,0-6.11,0-.85,0-1,.29-.92,1,.45,5.06,5.61,7.56,10.06,4.77,1-.63,1.27-.31,1.7.5.85,1.56.89,1.57-.72,2.31a12.21,12.21,0,0,1-7.48,1,8.88,8.88,0,0,1-7.12-8c-.44-4,.4-7.56,3.72-10.19,4.76-3.76,12.29-1.59,13.82,4a9.07,9.07,0,0,1,.21,3.91c-.1.63-.36.78-.93.77C645.54,186.2,643.47,186.21,641.39,186.21Zm-1.52-2.54h4.07c1.38,0,1.48-.13,1.09-1.5a5,5,0,0,0-5.35-3.51,5.53,5.53,0,0,0-5.12,4.27c-.1.59,0,.76.64.75C636.76,183.65,638.31,183.67,639.87,183.67Z"/><path id="Path_38" data-name="Path 38" class="cls-2" d="M555.27,186.21c-2,0-4,0-6,0-.83,0-1,.24-.92,1,.47,5.12,5.64,7.56,10.15,4.72.73-.46,1-.53,1.47.3,1,1.81,1,1.87-.92,2.7-4.41,1.89-8.87,1.17-11.79-1.72-4.13-4.09-3.77-14.62,4-17.07,4.71-1.5,9.62.76,11,5a10.52,10.52,0,0,1,.35,4.14c-.05.66-.34.95-1.07.93C559.42,186.18,557.35,186.21,555.27,186.21Zm-1.55-2.54c1.48,0,2.95-.06,4.42,0,1.08.07,1.15-.32.93-1.23a5,5,0,0,0-5.34-3.8c-2.58.13-5,2.18-5.25,4.43-.08.67.3.59.7.59Z"/><path id="Path_39" data-name="Path 39" class="cls-2" d="M467,173a10.89,10.89,0,0,0-4.94-1.42c-2,0-3.29.82-3.84,2.44a4.14,4.14,0,0,0,1.56,4.76A42,42,0,0,0,465,181.5a7.28,7.28,0,0,1,4.34,6.64,6.93,6.93,0,0,1-4.88,7.26,11.82,11.82,0,0,1-9.2-.52c-.57-.27-.9-.55-.54-1.25s.42-1.84,1-2.25,1.41.51,2.17.75a8.09,8.09,0,0,0,4.81.42,3.81,3.81,0,0,0,2.94-3,4.14,4.14,0,0,0-1.47-4.3,15.59,15.59,0,0,0-3.22-1.84,21.21,21.21,0,0,1-3.79-2c-2.46-1.84-3.1-4.41-2.66-7.25a6.21,6.21,0,0,1,4.58-5.19,12.37,12.37,0,0,1,7.88.31c.83.28,1.26.72.78,1.67A14.94,14.94,0,0,0,467,173Z"/><path id="Path_40" data-name="Path 40" class="cls-5" d="M212.47,147.64c.48,1.93.86,3.55,1.29,5.16a29.08,29.08,0,0,0,2.81,6.83c3.11,5.48,5.87,11.15,9.2,16.51,2.66,4.28,5.87,8.16,8.85,12.2a15,15,0,0,1,3.26,7.27,12,12,0,0,1-2.87-1.92,37.66,37.66,0,0,1-8.2-9.15c-5.27-8.34-10.08-16.91-13.14-26.36-.4-1.25-.85-2.48-1.27-3.72C211.77,152.62,211.77,150.88,212.47,147.64Z"/><path id="Path_41" data-name="Path 41" class="cls-2" d="M678.23,178.54a6.41,6.41,0,0,1,5.73-2.79,5.67,5.67,0,0,1,6,5,14.13,14.13,0,0,1,.25,2.5c0,3.8,0,7.59,0,11.38,0,.79-.21,1-1,1-2.49,0-2.47,0-2.49-2.49,0-3.47.13-6.94-.1-10.41-.16-2.33-.94-3.47-2.54-3.89a5.68,5.68,0,0,0-5.67,2,2,2,0,0,0-.22,1.26c0,4.16,0,8.3,0,12.46,0,.9-.21,1.14-1.12,1.12-2.36-.06-2.36,0-2.36-2.37,0-5.35,0-10.7,0-16.05,0-.37-.29-1.08.37-1s1.71-.59,2.21.52C677.64,177.26,677.9,177.83,678.23,178.54Z"/><path id="Path_42" data-name="Path 42" class="cls-3" d="M307.17,227.37a5.81,5.81,0,0,1-4.47,1.56,73.69,73.69,0,0,1-12.55-1.7c-8.11-1.57-15.38-5.17-22.62-8.91-5.19-2.68-10.33-5.41-14.72-9.33a16.93,16.93,0,0,1-3-3.27C267.07,217.85,286.53,224.05,307.17,227.37Z"/><path id="Path_43" data-name="Path 43" class="cls-2" d="M309.49,82.31a4.87,4.87,0,0,1,4.68-5h.25a5.08,5.08,0,0,1,5.23,4.89v0a5.15,5.15,0,0,1-5,5.26.65.65,0,0,1-.14,0,5,5,0,0,1-5-5A1.48,1.48,0,0,1,309.49,82.31Z"/><path id="Path_44" data-name="Path 44" class="cls-3" d="M279.48,210.51c-.09-.64.36-.84.93-.87s.87.25.87.85-.28,1-1,1S279.44,211.14,279.48,210.51Z"/><path id="Path_45" data-name="Path 45" class="cls-1" d="M281.68,211.93l-.2,0,.07-.09.1.15Z"/></g></g></g></g></svg>