<svg xmlns="http://www.w3.org/2000/svg" viewBox="0 0 691.83 230.71"><defs><style>.cls-1{fill:#b6292b;}.cls-2{fill:#3f3f3e;}.cls-3{fill:#b72c2e;}.cls-4{fill:#3e3e3d;}.cls-5{fill:#3d3d3c;}.cls-6{fill:#40403f;}.cls-7{fill:#b62a2c;}.cls-8{fill:#31302f;}.cls-9{fill:#2f2e2d;}.cls-10{fill:#302f2e;}.cls-11{fill:#2e2d2c;}.cls-12{fill:#b72b2d;}.cls-13{fill:#2d2c2b;}</style></defs><g id="Layer_2" data-name="Layer 2"><g id="Layer_1-2" data-name="Layer 1"><path class="cls-1" d="M329.65,0A19.35,19.35,0,0,0,335,.35c3.85,0,7.37,1.14,10.93,2.39C354.2,5.65,362.55,8.49,371,11a39.73,39.73,0,0,1,10,4.78A208,208,0,0,1,402.06,30.6a58.5,58.5,0,0,1,8.12,8.46c2.48,3.06,5.39,5.8,7.19,9.39a11,11,0,0,1,1.27,3.08c.09.54.48.79.79,1.14a33.82,33.82,0,0,1,7.71,14.13,7.29,7.29,0,0,1,.12,1.07c-.47,0-.51-.41-.67-.65-1.33-2-2.63-3.91-3.95-5.86a25.13,25.13,0,0,1-2.88-5,22.12,22.12,0,0,0-3.8-6c-1.33-1.64-2.56-3.37-3.84-5a30.22,30.22,0,0,0-5.22-5.44,27.76,27.76,0,0,1-3.48-3.29c-4.44-5-9.83-8.75-15.42-12.26a21.89,21.89,0,0,0-7.73-3.08c-3.37-.62-6.38-2.25-9.35-3.91a79.32,79.32,0,0,0-9.55-5,20.35,20.35,0,0,0-7.82-1.55,9.06,9.06,0,0,1-3.61-.73,24.81,24.81,0,0,0-8.89-1.66c-8.71-.33-17.43-.48-26.14,0a10.49,10.49,0,0,0-3.86.76,24.16,24.16,0,0,1-7.81,1.63,17.2,17.2,0,0,0-5.54,1.41c-6.64,3-13.51,5.55-20,8.92a57.8,57.8,0,0,0-12.54,8.52,31.88,31.88,0,0,1-6,4,55.43,55.43,0,0,0-6,3.72,4.17,4.17,0,0,0-1.7,2.2,14.76,14.76,0,0,1-2.05,3.78A104.14,104.14,0,0,1,239,56.73a12.14,12.14,0,0,1-3.13,2.76,1.17,1.17,0,0,0-.51.63c-3.69,7.87-7.4,15.74-9.83,24.12-1.35,4.63-1.63,9.42-2.37,14.13-.68,4.3-.9,8.66-1.22,13-.46,6,.75,11.84,2.35,17.59,2.48,9,4.61,18.07,7.94,26.79A106.44,106.44,0,0,0,245.53,180a89.49,89.49,0,0,0,12.4,14.27,4.36,4.36,0,0,1-3.34-1c-10.14-9.22-18.66-19.69-24.63-32.11a108.6,108.6,0,0,1-5.55-15.39,103.4,103.4,0,0,1-4-17.08c-1.4-11-1.7-22,.27-32.94.84-4.7,1.27-9.48,2.71-14.08,4-12.84,9.72-24.78,18.15-35.34A6.11,6.11,0,0,0,243,41.53c-1,1.07-1.93,2-2.8,2.88A110.8,110.8,0,0,0,212,98.05a86.17,86.17,0,0,0-2.28,12.34c-.43,6.34-.24,12.69-.16,19,.05,3.79,1.3,7.37,1.71,11.09a27.85,27.85,0,0,1-.4,7.92,15.64,15.64,0,0,1-1-3.22c-.2-1-.44-2-.63-3a28.16,28.16,0,0,0-1.45-5.42,11.38,11.38,0,0,1-.41-3.44,288.58,288.58,0,0,1-.22-32.22c.15-3.86,1.6-7.39,2.13-11.13,1.22-8.59,5-16.25,8.39-24.08,4.42-10.29,11.06-19.09,18.12-27.64,4.6-5.57,10.24-10,15.78-14.48.93-.76,1.91-1.46,2.77-2.29,5.74-5.55,12.6-9.22,20-12,5.59-2.1,11-4.65,16.9-6a103.72,103.72,0,0,1,11.23-1.79c1.56-.19,2.88-1.18,4.45-1.3.48,0,.95-.11,1.42-.16l6.07,0A64.51,64.51,0,0,0,321.49,0Z"/><path class="cls-2" d="M0,68.57q9,0,18,.05a17.77,17.77,0,0,1,7.81,1.51A13.32,13.32,0,0,1,33.71,81.6a85.38,85.38,0,0,1-.17,17.58,15.78,15.78,0,0,1-4.75,9.33,11.26,11.26,0,0,1-3.8,2.26c6.07,2.6,8.25,7.65,8.78,13.56a83.31,83.31,0,0,1,0,13.77c-.47,6.15-3.62,10.78-8.92,13.93a8.18,8.18,0,0,1-4.37,1L0,153v-2.88c1.85.07,2.72-.67,2.91-2.51,0-.52.07-1,.07-1.56V75.53a10.55,10.55,0,0,0-.14-2A2.07,2.07,0,0,0,0,71.69ZM11.19,90.28c0,6,0,12,0,18,0,.5-.24,1.14.74,1.11,2-.06,4.08.08,6.11-.07,3.37-.24,5.92-1.79,7.16-5.09a21,21,0,0,0,1.19-5.59c.4-4.7.13-9.42.19-14.13a27.21,27.21,0,0,0-.19-5.26c-.67-3.66-2.56-7-7.11-7.59-2.32-.32-4.62-.11-6.93-.27-.95-.06-1.19.25-1.18,1.19C11.21,78.46,11.19,84.37,11.19,90.28Zm0,40.94c0,6,0,11.91,0,17.86,0,.88.19,1.21,1.12,1.15,1.23-.08,2.48,0,3.71,0,5.6-.11,9.12-3.11,10.16-8.6.68-3.57.37-7.17.42-10.76a43.58,43.58,0,0,0-.66-10.13c-1-4.66-4.41-8.67-9.94-8.38a26.94,26.94,0,0,1-3.48,0c-1-.08-1.35.19-1.34,1.28C11.22,119.48,11.19,125.35,11.19,131.22Z"/><path class="cls-3" d="M314.29,0a2.12,2.12,0,0,0,.11.21l-6.07,0,0-.25Z"/><path class="cls-1" d="M281.66,212a13.33,13.33,0,0,1,4.86,1.09c3.28,1.12,6.38,2.73,9.69,3.8a21,21,0,0,0,6.94,1.1,27.61,27.61,0,0,1,9.91,2.06c3.75,1.34,7.52,2.48,11.57,2a21.83,21.83,0,0,0,3.9-.57A38.8,38.8,0,0,1,339,220.15a30,30,0,0,0,9.37-1.72c5.33-1.93,10.85-3.27,16.12-5.36,9-3.59,16.41-9.55,22.93-16.56,4-4.33,8-8.73,12.05-13,7.27-7.62,12-16.76,15.9-26.39,3.24-7.92,4.88-16.23,6.74-24.52,1.3-5.77,1.2-11.58,1.61-17.37a15.61,15.61,0,0,1,.85-4.62c.19,1.46.4,2.91.56,4.37a143.61,143.61,0,0,1,.77,18.43,80.29,80.29,0,0,1-8.8,34.62c-1.09,2.17-2.12,4.38-3.19,6.56a7.56,7.56,0,0,0-.72,3.75c1.2-1.57,2.25-2.9,3.24-4.28a105,105,0,0,0,19.72-63.3,62.42,62.42,0,0,1,.54-9.56c.06-.47.16-.94.3-1.75A54.75,54.75,0,0,1,438,107.2a172.61,172.61,0,0,1-.08,22.63c-.18,3.78-1.66,7.38-2.5,11.07a108.62,108.62,0,0,1-11,28.82c-2.81,5.09-6.29,9.72-9.54,14.5-3.64,5.35-7.07,10.84-11.11,15.91a29.54,29.54,0,0,1-7.55,6.76c-7.14,4.47-14.08,9.25-21.63,13a59.76,59.76,0,0,1-10.85,4.41,40.66,40.66,0,0,0-6.62,2.43c-4.12,2-8.49,2.4-13,2.29l-.6,0c-5.07-.07-10.13-.37-15.09,1.18a18.68,18.68,0,0,1-7,.33,3.48,3.48,0,0,1-2.55-1.41,8.31,8.31,0,0,0-5.48-3c-3-.54-5.91-1.34-8.86-2a16,16,0,0,1-6-3.13,20.86,20.86,0,0,0-5.85-3.17,51.49,51.49,0,0,1-10.34-5.23c-.25-.16-.63-.2-.66-.6Z"/><path class="cls-4" d="M278.81,111.62c-.88,4.79-1.78,9.56-2.64,14.35q-2.34,13-4.63,25.92c-.14.79-.38,1.15-1.28,1.08a41.83,41.83,0,0,0-4.19,0c-.71,0-.94-.18-1.05-.89-1-6.82-2.17-13.63-3.25-20.45q-2.34-14.79-4.67-29.56c-1.41-9-2.83-17.9-4.2-26.85-.34-2.23-1.58-4.19-4.46-3.94-.39,0-.54,0-.6-.47-.29-2.24-.16-2.42,2.08-2.42,4.76,0,9.51,0,14.27,0,.9,0,1.37.16,1.2,1.16a5.57,5.57,0,0,0,0,1.08c0,.48-.08.66-.65.67-2.13,0-2.89,1-2.6,3.14,1.65,11.89,3.51,23.76,5.38,35.63,1.24,7.88,2.54,15.76,3.81,23.64,0,.15.07.3.12.5.57-.3.43-.86.5-1.26,1.81-9.89,3.58-19.79,5.37-29.68.3-1.63-.22-3.17-.46-4.73Q275,86.68,273.08,74.86c-.41-2.55-1.64-3.62-4.21-3.58-.59,0-.62-.18-.64-.66-.11-2.24-.13-2.24,2.13-2.24,4.71,0,9.43,0,14.15,0,.95,0,1.32.24,1.18,1.19a6.87,6.87,0,0,0,0,1.2c0,.4-.12.52-.55.54-2.33.11-3,1-2.7,3.39.47,3.2,1,6.39,1.48,9.58q2.1,13.86,4.22,27.7c1.11,7.22,2.27,14.43,3.41,21.64.06.34.18.67.37,1.36,1.5-8.2,3-16,4.36-23.9,2.09-11.94,4.1-23.9,6.14-35.86a7.47,7.47,0,0,0,.12-1c.12-2.39-.62-3.12-3-3a.6.6,0,0,1-.09-.22c-.13-2.69-.12-2.69,2.6-2.69s5.2,0,7.8,0c.94,0,1.23.29,1.09,1.16a1.55,1.55,0,0,0,0,.48c.11.91,0,1.38-1.22,1.29-2-.14-3.41,1.14-3.83,3.37-.83,4.43-1.57,8.87-2.38,13.31q-3.53,19.42-7.08,38.86-2.24,12.36-4.43,24.74c-.17,1-.41,1.55-1.6,1.42a23.1,23.1,0,0,0-3.72,0c-.8,0-1.15-.12-1.29-1-1.84-11.79-3.74-23.57-5.62-35.36-.26-1.65-.51-3.3-.76-5Z"/><path class="cls-5" d="M178.81,99.55c.25-.22.13-.47.13-.69q0-11.81,0-23.61a7.06,7.06,0,0,0-.22-1.9,2.21,2.21,0,0,0-2.28-1.89c-.62,0-.71-.19-.74-.73-.09-2.2-.11-2.2,2.08-2.2,2.68,0,5.36,0,8,0,1,0,1.17.26,1.17,1.19q0,21,0,42.07v34.77c0,.51,0,1,0,1.55.2,2,1,2.51,2.87,2,.05.05.13.1.13.16.2,2.75.2,2.75-2.52,2.75-2.56,0-5.12,0-7.68,0-.67,0-.91-.18-.88-.87.06-1.07,0-2.15,0-3.29-.14.06-.27.07-.33.14-4,4.93-9.14,6-15,4.53-6-1.47-9.72-6-10.33-12.45-.15-1.59-.22-3.19-.22-4.79q0-12.58,0-25.17a25.67,25.67,0,0,1,.74-6.53c1.51-5.88,6-9.55,12.19-10.17,4.19-.42,7.95.39,11.11,3.28C177.74,98.28,178.25,98.94,178.81,99.55ZM162,124.25c0,5.95,0,11.9.21,17.84a19.22,19.22,0,0,0,1,5.77,4.88,4.88,0,0,0,4.32,3.45,8.91,8.91,0,0,0,8.84-4.11,15.69,15.69,0,0,0,2.62-9.06q.07-14,0-27.91a16.45,16.45,0,0,0-2.38-8.66,9,9,0,0,0-6.14-4.38c-4.22-.83-6.93,1-7.75,5.17a26.85,26.85,0,0,0-.49,4.28C162,112.51,161.94,118.38,162,124.25Z"/><path class="cls-4" d="M336.84,99.77c3.63-5.46,9.32-6.12,13.87-4.93,5.61,1.46,8.7,5.18,9.64,10.8a34.78,34.78,0,0,1,.45,5.85v34.39a19.58,19.58,0,0,0,.06,2,2.07,2.07,0,0,0,2.13,2.14c.78,0,.91.28.91,1,0,2,0,2-2,2-3.71,0-7.43,0-11.15,0-.88,0-1.27-.2-1.12-1.12a5.57,5.57,0,0,0,0-1.08c0-.5,0-.8.69-.81a2.07,2.07,0,0,0,2.14-2,10.74,10.74,0,0,0,.17-1.79c0-10.86.05-21.72,0-32.59,0-3.9.06-7.83-.84-11.68l0-.12c-1-4.25-3.84-5.8-8-4.36a8.8,8.8,0,0,0-5.41,5.25,19.17,19.17,0,0,0-1.45,7.24q0,18.27,0,36.54a13.38,13.38,0,0,0,.16,1.79,2,2,0,0,0,1.74,1.72c.34.09.94-.26,1,.32a11,11,0,0,1-.08,2.5c0,.26-.49.15-.75.15-4.16,0-8.32,0-12.47,0-.66,0-1-.16-.88-.86a4.82,4.82,0,0,0,0-1.2c-.09-.7.13-.92.89-.95a2.12,2.12,0,0,0,2.23-2.18c.06-.6.08-1.2.08-1.8V102c0-.51,0-1-.07-1.55a2.23,2.23,0,0,0-2.33-2.36c-.77,0-.94-.4-.77-1s-.65-1.77.58-1.81c3.36-.11,6.72,0,10.08,0,.62,0,.59.36.59.78C336.84,97.19,336.84,98.34,336.84,99.77Z"/><path class="cls-5" d="M124.06,99.81c3.42-5.2,8.83-6.23,13.7-5,5.55,1.37,8.75,5,9.77,10.55a32.18,32.18,0,0,1,.49,6q0,17.43,0,34.87a15.18,15.18,0,0,0,.09,1.91,2.07,2.07,0,0,0,2.17,2c.7,0,.84.23.85.89,0,2.09,0,2.09-2.07,2.09-3.68,0-7.36,0-11,0-1,0-1.3-.28-1.18-1.2a6,6,0,0,0,0-1.2c0-.39.1-.58.54-.58,1.47,0,2.13-.89,2.32-2.24a11.41,11.41,0,0,0,.12-1.54c0-10.47,0-20.93,0-31.4a71.53,71.53,0,0,0-.68-12.06c0-.28-.12-.55-.18-.82-1-5.12-4.78-5.89-8.79-4.18-3.14,1.34-4.61,4-5.39,7.2a24.56,24.56,0,0,0-.75,5.92q0,17.55,0,35.11a14.12,14.12,0,0,0,.14,2.15,1.94,1.94,0,0,0,2,1.83c.85,0,.84.42.84,1,0,2,0,2-2,2-3.71,0-7.43,0-11.15,0-1,0-1.28-.3-1.16-1.21a4.88,4.88,0,0,0,0-1.08c0-.5.14-.65.66-.7,1.81-.18,2.34-.73,2.51-2.57.07-.71.07-1.43.07-2.15q0-21.27,0-42.54c0-.92-.06-1.84-.15-2.75a2,2,0,0,0-1.92-2c-1.41,0-1.16-.82-1.16-1.62,0-.6-.23-1.28.87-1.26,3.19.06,6.39,0,9.59,0,.63,0,.84.21.81.83C124,97.21,124.06,98.35,124.06,99.81Z"/><path class="cls-4" d="M457,110.77q0-17.62,0-35.24a12.71,12.71,0,0,0-.2-2.39,2.19,2.19,0,0,0-2.2-2c-.67,0-.67-.27-.69-.76-.06-2.05-.07-2.05,2-2.05,9.95,0,19.91,0,29.86,0,1,0,1.3.21,1.28,1.23-.07,3.4-.06,6.79,0,10.19,0,.85-.24,1.07-1.07,1.06-2,0-2,0-2.23-2.06A10.66,10.66,0,0,0,481.55,73a4.88,4.88,0,0,0-4-2c-3.84,0-7.68,0-11.51,0-.69,0-.88.2-.87.87q0,19.13,0,38.24c0,.77.26.92,1,.91,2.12,0,4.25-.11,6.36,0,3,.16,4.3-1.09,4.93-4.34.08-.45-.2-1.18.26-1.31a6.58,6.58,0,0,1,2.26,0c.43,0,.28.51.28.8,0,4.32,0,8.63,0,12.95,0,.63-.2.87-.83.8a3.85,3.85,0,0,0-1,0c-.77.11-1-.19-1-1a6.39,6.39,0,0,0-.87-3,3.23,3.23,0,0,0-3.09-1.87q-3.72,0-7.44,0c-.72,0-.84.25-.84.89q0,17.2,0,34.4c0,.7.21.88.88.87,3.8,0,7.6,0,11.4,0,2.92,0,4.86-1.72,5.75-4.84a16.65,16.65,0,0,0,.6-3.77c0-.78.32-1,1.08-1,2.1,0,2.1,0,2.1,2.06,0,3.07,0,6.15,0,9.23,0,1-.29,1.17-1.21,1.17q-15.35,0-30.7,0c-.89,0-1.37-.15-1.2-1.15a4.87,4.87,0,0,0,0-1.08c0-.5,0-.77.68-.74a2.14,2.14,0,0,0,2.2-1.82A8.18,8.18,0,0,0,457,146Z"/><path class="cls-4" d="M580,146.82a13.65,13.65,0,0,1-8.2,6.83,12.22,12.22,0,0,1-14.24-6.18,17.46,17.46,0,0,1-.42-17,23.79,23.79,0,0,1,9.67-10.17,92.76,92.76,0,0,0,10.8-7.54c5-3.93,3.29-13-3.15-15.39a11,11,0,0,0-10.07,1.24,4,4,0,0,0-1.1,1.08c-1.1,1.5-.74,2.8,1,3.51a5.62,5.62,0,0,1,3.78,5.43,5.54,5.54,0,0,1-11.05.54c-.38-7.61,4.12-13.76,12.16-14.88,7.48-1,15.46,4,17.49,11.15a16.81,16.81,0,0,1,.48,4.63q0,16.23,0,32.47c0,1.76.07,3.51.14,5.27a3.16,3.16,0,0,0,2.73,3.26,3.31,3.31,0,0,0,3.83-2.32,2.06,2.06,0,0,1,2.41-.78c.43.33.16.82,0,1.2a7.58,7.58,0,0,1-6.75,4.92c-3.3,0-7.28-1-9.07-6C580.38,147.71,580.24,147.34,580,146.82Zm-.85-30.73c-3.21,2.83-6.63,5-9.53,7.8a19.38,19.38,0,0,0-6.23,12.45,13.57,13.57,0,0,0,1.35,8.14,8.38,8.38,0,0,0,8.75,3.87c2.89-.51,4.89-2.84,5.43-6.37a17.87,17.87,0,0,0,.22-2.74C579.2,131.62,579.19,124,579.19,116.09Z"/><path class="cls-4" d="M95.79,146.73a16.54,16.54,0,0,1-2.73,3.66c-6.14,5.91-15.28,4.74-19.62-2.69a17.33,17.33,0,0,1-.58-17.17,23.69,23.69,0,0,1,9.66-10.19,98.69,98.69,0,0,0,10.7-7.44c5.22-4,3.34-13.28-3.23-15.57a11.15,11.15,0,0,0-9.74,1.22,4.4,4.4,0,0,0-1.07,1c-1.31,1.58-1,3,.9,3.77A5.66,5.66,0,0,1,83.76,109a5.42,5.42,0,0,1-5.45,5.12A5.51,5.51,0,0,1,72.69,109c-.19-8,4.61-13.61,12.16-14.67,7.79-1.1,16,4.26,17.69,11.8a16.29,16.29,0,0,1,.35,3.81q0,17.19,0,34.39c0,1.24,0,2.48.1,3.71a3.13,3.13,0,0,0,2.82,3.07,3.34,3.34,0,0,0,3.79-2.41,2.22,2.22,0,0,1,2.47-.68c.32.27.08.59,0,.88-.73,3.24-4.64,5.64-8.3,5.17C99.52,153.53,97,151.11,95.79,146.73ZM95,116c-3,2.69-6.14,4.72-8.9,7.21-5.1,4.6-7.61,10.22-6.93,17.16.53,5.33,4.49,8.62,9.78,8,3.11-.35,5.58-3.19,5.8-6.95C95.24,133.07,94.81,124.69,95,116Z"/><path class="cls-6" d="M528.64,121c0-7,0-14,0-21,0-1.14-.34-1.38-1.4-1.34-1.95.08-3.91,0-5.87,0-.72,0-1-.19-1-.94,0-2.32-.06-2.32,2.2-2.32,1.68,0,3.36,0,5,0,.68,0,1-.1,1-.9,0-6.67,0-13.34,0-20a3.83,3.83,0,0,0-.86-2.79,1.56,1.56,0,0,0-1.23-.64c-1.85.13-.71-1.25-.93-1.91-.29-.89.41-.88,1-.88,3,0,5.92,0,8.87,0,1,0,1.35.22,1.34,1.3,0,8.19,0,16.38,0,24.57,0,1.08.28,1.33,1.32,1.3,2.52-.08,5,0,7.56,0,.79,0,1.12.12,1.1,1,0,2.23,0,2.23-2.27,2.23s-4.47,0-6.71,0c-.66,0-1,.07-1,.88q0,21-.11,42a12.1,12.1,0,0,0,.82,4.08,6,6,0,0,0,6.65,4.29,6.53,6.53,0,0,0,6.12-5.46c.22-1.73,1.39-.92,2.13-1,1.09-.08.58.89.52,1.32-.53,4.58-3.56,7.11-7.55,8.58a12.3,12.3,0,0,1-16.47-10.56c0-.32,0-.64-.06-1C528.54,134.93,528.67,128,528.64,121Z"/><path class="cls-4" d="M386.1,125.69c-3.64,0-7.27,0-10.91,0-.61,0-.95.08-.93.83.14,5.11-.25,10.22.26,15.32a12,12,0,0,0,2.55,6.84c2.56,3,5.84,3.1,9.33,2.28,5-1.16,7.9-4.76,8.49-10.42.11-1,.21-2.07.22-3.11,0-.62.17-.87.81-.8a8.31,8.31,0,0,0,1.32,0c.48,0,.6.19.61.64a22.81,22.81,0,0,1-1.26,8.83c-1.88,4.69-5.6,7-10.41,7.79a16.86,16.86,0,0,1-17.5-8.25,14.26,14.26,0,0,1-2-7.3q-.13-13.59-.24-27.2a17.36,17.36,0,0,1,2.61-9.79c3.64-5.68,10.69-8.24,17.68-6.38a14.67,14.67,0,0,1,11,13.91c.16,5.31.05,10.62.1,15.93,0,.78-.27.91-1,.91C393.3,125.67,389.7,125.68,386.1,125.69Zm-4-3.08c2.28,0,4.55,0,6.83,0,.67,0,1-.07,1-.88-.06-3.87,0-7.75-.1-11.62a22.27,22.27,0,0,0-1.89-8.83,5.94,5.94,0,0,0-5.58-3.65,6.3,6.3,0,0,0-5.85,3.09,11.41,11.41,0,0,0-1.47,4.14c-1,5.67-.5,11.4-.62,17.1,0,.67.4.65.86.64Z"/><path class="cls-4" d="M608.26,120.84q0,9.71,0,19.41a15.48,15.48,0,0,0,.89,5.52,6,6,0,0,0,6.39,4.18,6.86,6.86,0,0,0,6.32-5.14c.09-.45-.09-1.14.41-1.28a5.69,5.69,0,0,1,2-.05c.46,0,.31.47.3.77a8.3,8.3,0,0,1-2.13,5.47c-3.58,3.8-8,5.34-13,3.92a11.71,11.71,0,0,1-8.76-9.78,52.76,52.76,0,0,1-.41-9.33q0-17.25,0-34.51c0-1-.23-1.37-1.31-1.31-2,.09-3.91,0-5.87,0-.74,0-1.05-.13-1.05-1,0-2.29,0-2.29,2.24-2.29,1.72,0,3.44,0,5.16,0,.62,0,.81-.21.81-.83,0-6.75,0-13.5,0-20.25a3.57,3.57,0,0,0-1-2.74,1.39,1.39,0,0,0-1-.52c-2,.15-.84-1.34-1-2-.26-1.05.67-.73,1.18-.73,2.95,0,5.91,0,8.87,0,.93,0,1.2.21,1.2,1.17,0,8.23,0,16.46,0,24.69,0,1,.24,1.34,1.3,1.3,2.52-.08,5,0,7.56,0,.79,0,1.12.14,1.1,1,0,2.22,0,2.22-2.17,2.22s-4.48,0-6.72,0c-.82,0-1.07.19-1.06,1,0,7,0,14.06,0,21.09Z"/><path class="cls-4" d="M646.52,125.68H635.73c-.48,0-1-.08-.93.69.14,5.27-.29,10.55.29,15.8a11.38,11.38,0,0,0,2.74,6.76c2.53,2.74,5.66,2.74,9,2.06,5-1,7.4-4.47,8.4-9.16a17.2,17.2,0,0,0,.43-4.16c0-1,.37-1.24,1.17-1,.53.13,1.51-.63,1.55.6a21.44,21.44,0,0,1-1.28,8.95c-1.89,4.61-5.6,6.91-10.35,7.68a16.9,16.9,0,0,1-17.63-8.45,14.07,14.07,0,0,1-1.88-7.09q-.13-13.55-.24-27.08a17.64,17.64,0,0,1,2.61-9.92,15.79,15.79,0,0,1,16.74-6.61,14.69,14.69,0,0,1,11.81,12.58,68.8,68.8,0,0,1,.23,8.73c0,2.88,0,5.76,0,8.63,0,.86-.25,1-1.07,1C653.72,125.66,650.12,125.68,646.52,125.68Zm-3.82-3.07c2.24,0,4.48,0,6.72,0,.72,0,1.05-.1,1-1-.06-3.67,0-7.35-.07-11a24.2,24.2,0,0,0-2-9.43c-2.13-4.75-8.92-4.6-11.32-.64a12.51,12.51,0,0,0-1.56,4.37c-1,5.63-.53,11.31-.64,17,0,.76.47.69,1,.68Z"/><path class="cls-6" d="M49.34,99.46c1.48-1.81,2.74-3.65,4.9-4.5,6.72-2.63,12.3-.27,14.74,6.93.77,2.3,1.51,4.72,1.11,7.26a5.67,5.67,0,0,1-5,4.91,5.66,5.66,0,0,1-3.85-10.16c.77-.56,1.63-1,2.36-1.63,1.6-1.31,1.58-2.54,0-3.85a8.26,8.26,0,0,0-12,2A13.77,13.77,0,0,0,49.35,108q0,19.11,0,38.22a12.1,12.1,0,0,0,.11,1.91,2.06,2.06,0,0,0,2,2c.73,0,.83.22.83.85,0,2.11,0,2.11-2,2.11-3.8,0-7.6,0-11.39,0-.79,0-1.08-.23-1-1a7.27,7.27,0,0,0,0-1.32c0-.5.12-.64.66-.65A2.43,2.43,0,0,0,41,147.9a11.87,11.87,0,0,0,.1-1.79q0-22,0-44a12,12,0,0,0-.1-1.8,2.54,2.54,0,0,0-2.48-2.28c-.46,0-.59-.12-.63-.59-.19-2.31-.21-2.3,2.07-2.3,2.76,0,5.52,0,8.27,0,.94,0,1.16.29,1.1,1.15C49.28,97.34,49.34,98.4,49.34,99.46Z"/><path class="cls-2" d="M515.52,102.53c0,2.07,0,4.15,0,6.23,0,.8-.16,1.11-1,1.09-2,0-2,0-2.09-1.94a13.76,13.76,0,0,0-3.19-8.45c-2.62-3-8.21-3-10.92-1.64s-4.16,5.13-3.53,8.74c.53,3.07,2.34,5.23,4.69,7.11,5.61,4.48,11.42,8.75,15.76,14.61A17.89,17.89,0,0,1,518.44,143c-1.42,7-8.63,11.93-15.75,11.14a10.91,10.91,0,0,1-3.58-1.29,16.77,16.77,0,0,0-3.53-1.47c-.84-.2-1.45,0-1.57.94-.18,1.34-1.17.54-1.78.68s-.56-.49-.56-.89c0-4.12,0-8.23,0-12.35,0-.7.14-1.07.92-1a3.91,3.91,0,0,0,1.08,0c.68-.08.88.18.85.87a14.53,14.53,0,0,0,.9,5.76c1.22,3.26,3.19,5.73,6.86,6.26,4,.58,7.61-.33,10.22-3.61a7.37,7.37,0,0,0,.81-7.82,16.37,16.37,0,0,0-5.24-6.59c-4.59-3.59-9.26-7.08-13.12-11.51-5.44-6.24-6.12-13.22-3.32-20.7,2.21-5.9,9.63-8.92,15.45-6.47,1.36.57,2.68,1.24,4.06,1.75s1.66.29,2.1-1.11c.3-1,1.13-.34,1.71-.47s.6.33.59.76Z"/><path class="cls-2" d="M688.5,102.47c0,2.12,0,4.24,0,6.35,0,.75-.15,1-1,1-2,0-2,0-2.15-2-.24-3.31-1.12-6.36-3.59-8.76-2.62-2.56-8.68-3-11.48-.66-2.53,2.13-3,5.08-2.54,8.2s2.36,5.19,4.71,7.07c5.57,4.47,11.36,8.71,15.68,14.54a18,18,0,0,1,3.22,15c-1.45,6.89-8.81,11.82-15.79,11a9.7,9.7,0,0,1-3-1,20.29,20.29,0,0,0-3.95-1.7c-.9-.22-1.5,0-1.64,1-.18,1.24-1.13.47-1.71.61s-.62-.39-.62-.84c0-4.16,0-8.31,0-12.47,0-.65.15-1,.86-.89a3.91,3.91,0,0,0,1.08,0c.76-.1.94.21.91.94a15.08,15.08,0,0,0,.91,5.75c2.22,6.37,8,7.6,13.13,5.5,5.61-2.3,7-7.6,3.72-12.69a19.58,19.58,0,0,0-4.54-4.9c-4.52-3.48-9.06-6.94-12.84-11.29-5.39-6.21-6.06-13.16-3.28-20.6,2.23-6,9.63-9,15.52-6.49,1.39.59,2.75,1.27,4.18,1.77,1.14.4,1.75.25,1.93-1.1.14-1.06,1.08-.39,1.64-.53s.66.21.66.7C688.49,98.08,688.5,100.27,688.5,102.47Z"/><path class="cls-5" d="M318.6,121.66q0,12.33,0,24.68a6.82,6.82,0,0,0,.18,2,2,2,0,0,0,2.11,1.74c.58,0,.63.21.65.68.12,2.27.13,2.27-2.1,2.27-3.68,0-7.35,0-11,0-.92,0-1.22-.25-1.09-1.13a3.85,3.85,0,0,0,0-1c0-.58,0-.94.79-.88a2,2,0,0,0,2.08-1.62,6.79,6.79,0,0,0,.24-2q0-22.35,0-44.68a5.88,5.88,0,0,0-.26-2c-.33-.91-.91-1.69-2-1.63-.82,0-.88-.26-.88-.92,0-2,0-2,1.94-2,2.68,0,5.36.06,8,0,1.16,0,1.34.37,1.34,1.4C318.59,105,318.6,113.31,318.6,121.66Z"/><path class="cls-7" d="M355.67,14.93c2.15.68,4.11,1.34,6.1,1.92a36.13,36.13,0,0,1,8.49,4.09c2.76,1.68,5.52,3.37,8.37,4.91a22.93,22.93,0,0,1,4.89,3.44c6.92,6.58,13.81,13.22,19.66,20.79,6.75,8.72,11.45,18.59,15.48,28.79,1.08,2.74,2.35,5.42,2.76,8.39a6.86,6.86,0,0,1-1.16,5.13c-.36-.25-.35-.63-.45-1C414.41,73.25,405.49,57.11,392,43.6c-5.56-5.57-12.06-10-18.33-14.66a100.21,100.21,0,0,0-16.82-10.32,1.31,1.31,0,0,1-.87-1.26C356,16.57,355.79,15.79,355.67,14.93Z"/><path class="cls-8" d="M601.09,177c0-2.69,0-5.24,0-7.8,0-.85.25-1.07,1.08-1.06,2.43,0,2.43,0,2.43,2.44,0,7.95,0,15.9,0,23.85,0,1-.24,1.39-1.24,1.23a3.91,3.91,0,0,0-1.08,0c-.89.13-1.38-.16-1.19-1.34a8.07,8.07,0,0,1-5.16,1.67,7.56,7.56,0,0,1-7.4-4.89,12,12,0,0,1,.3-10C590.7,177.2,595,173.9,601.09,177Zm0,9.05v-4.08a2.86,2.86,0,0,0-2.37-3.08,5.63,5.63,0,0,0-6.32,2.78,9.31,9.31,0,0,0-.8,7,5.73,5.73,0,0,0,8.55,3.7,1.61,1.61,0,0,0,1-1.62C601.05,189.11,601.09,187.56,601.09,186Z"/><path class="cls-9" d="M501.57,188.49c1.56-3.84,3.11-7.68,4.68-11.51.15-.37.15-.9.76-.94s.72.53.89.94c1.63,3.88,3.25,7.76,5,11.84l3.64-10.33a1.55,1.55,0,0,1,.06-.23c.78-2.24.78-2.21,3.08-2.23.86,0,1.1.12.77,1.05-1.69,4.68-3.32,9.39-5,14.09-.46,1.31-.89,2.64-1.38,3.94-.13.33-.09.81-.68.85s-.71-.4-.88-.78q-2.49-5.76-5-11.53c-.1-.21-.21-.42-.39-.8-.19.36-.33.6-.44.86-1.62,3.77-3.23,7.54-4.86,11.31-.18.39-.2,1-.9.94s-.63-.63-.77-1c-2.08-5.89-4.13-11.8-6.24-17.69-.31-.89-.35-1.24.79-1.21,2.53.07,2.53,0,3.29,2.38q1.64,5,3.28,10.08Z"/><path class="cls-10" d="M641.39,186.21c-2,0-4.08,0-6.11,0-.85,0-1,.29-.92,1,.46,5.06,5.61,7.56,10.06,4.77,1-.63,1.27-.31,1.71.5.84,1.56.88,1.57-.72,2.31a12.26,12.26,0,0,1-7.49,1,8.9,8.9,0,0,1-7.12-8c-.43-4,.4-7.56,3.73-10.19,4.76-3.76,12.29-1.59,13.81,4a9,9,0,0,1,.22,3.91c-.1.62-.36.77-.94.76C645.54,186.2,643.47,186.21,641.39,186.21Zm-1.52-2.54h4.07c1.39,0,1.48-.13,1.09-1.5a5,5,0,0,0-5.34-3.51,5.55,5.55,0,0,0-5.13,4.27c-.1.59.05.77.64.75C636.76,183.65,638.31,183.67,639.87,183.67Z"/><path class="cls-10" d="M555.27,186.21c-2,0-4,0-6,0-.83,0-1,.24-.92,1,.47,5.12,5.64,7.56,10.15,4.72.73-.46,1-.53,1.47.3,1,1.82,1,1.87-.92,2.69-4.41,1.9-8.87,1.18-11.79-1.71-4.13-4.09-3.77-14.62,4-17.07,4.71-1.5,9.62.76,11,5a10.36,10.36,0,0,1,.35,4.14c-.06.66-.34.94-1.07.92C559.42,186.18,557.34,186.21,555.27,186.21Zm-1.55-2.54c1.48,0,2.95-.06,4.42,0,1.08.07,1.15-.32.93-1.23a5,5,0,0,0-5.34-3.8c-2.58.12-5,2.17-5.25,4.43-.09.67.3.58.7.58Z"/><path class="cls-11" d="M467,173a11,11,0,0,0-4.94-1.42c-2,0-3.29.82-3.84,2.44a4.14,4.14,0,0,0,1.56,4.76A44.16,44.16,0,0,0,465,181.5a7.26,7.26,0,0,1,4.34,6.64,6.93,6.93,0,0,1-4.87,7.26,11.78,11.78,0,0,1-9.2-.52c-.57-.27-.9-.55-.55-1.25s.43-1.84,1-2.25,1.41.51,2.18.75a8,8,0,0,0,4.8.42,3.8,3.8,0,0,0,2.94-3,4.13,4.13,0,0,0-1.47-4.3,16,16,0,0,0-3.21-1.84,21.3,21.3,0,0,1-3.8-2c-2.46-1.84-3.09-4.41-2.66-7.25a6.22,6.22,0,0,1,4.58-5.19,12.37,12.37,0,0,1,7.88.31c.83.29,1.26.72.78,1.68A15,15,0,0,0,467,173Z"/><path class="cls-12" d="M212.47,147.64c.48,1.93.86,3.55,1.29,5.16a28.84,28.84,0,0,0,2.81,6.83c3.11,5.48,5.87,11.15,9.2,16.51,2.66,4.28,5.86,8.16,8.85,12.2a15,15,0,0,1,3.26,7.27,12.1,12.1,0,0,1-2.87-1.92,37.66,37.66,0,0,1-8.2-9.15c-5.27-8.34-10.08-16.91-13.14-26.36-.4-1.25-.85-2.48-1.27-3.72C211.77,152.62,211.77,150.88,212.47,147.64Z"/><path class="cls-13" d="M678.23,178.54a6.41,6.41,0,0,1,5.73-2.79,5.67,5.67,0,0,1,6,5,15,15,0,0,1,.25,2.5c0,3.79,0,7.58,0,11.38,0,.78-.21,1-1,1-2.49,0-2.47,0-2.49-2.49,0-3.47.13-7-.1-10.41-.16-2.34-.93-3.48-2.54-3.89a5.67,5.67,0,0,0-5.67,2,2,2,0,0,0-.22,1.26c0,4.15,0,8.3,0,12.45,0,.9-.21,1.14-1.11,1.12-2.37,0-2.37,0-2.37-2.37,0-5.35,0-10.7,0-16,0-.37-.29-1.09.37-1s1.71-.59,2.22.51Z"/><path class="cls-3" d="M307.17,227.37a5.82,5.82,0,0,1-4.47,1.56,73.82,73.82,0,0,1-12.55-1.7c-8.11-1.57-15.38-5.17-22.62-8.91-5.19-2.68-10.33-5.41-14.72-9.33a16.72,16.72,0,0,1-3-3.27C267.07,217.86,286.53,224.05,307.17,227.37Z"/><path class="cls-4" d="M309.49,82.31a4.85,4.85,0,0,1,4.93-5,5.06,5.06,0,0,1,5.23,4.94,5.15,5.15,0,0,1-5.18,5.26A5,5,0,0,1,309.49,82.31Z"/><path class="cls-3" d="M279.48,210.51c-.09-.64.36-.84.93-.87s.87.25.87.85-.28,1-1,1S279.44,211.14,279.48,210.51Z"/><path class="cls-1" d="M281.68,211.93l-.2,0,.07-.09.11.15Z"/></g></g></svg>