<svg xmlns="http://www.w3.org/2000/svg" viewBox="0 0 96.74 96.74"><defs><style>.cls-1{fill:#b62829;}.cls-2{fill:#fff;}</style></defs><g id="Layer_2" data-name="Layer 2"><g id="Layer_1-2" data-name="Layer 1"><path id="Shape_3" data-name="Shape 3" class="cls-1" d="M96.74,48.37A48.37,48.37,0,1,1,48.36,0,48.37,48.37,0,0,1,96.74,48.37Z"/><path id="Email_Icon" data-name="Email Icon" class="cls-2" d="M69.5,19.25a1.83,1.83,0,0,0-1.92-.37L13,40.74a1.82,1.82,0,0,0-1,2.38,1.9,1.9,0,0,0,.53.72l17.52,14v10A1.83,1.83,0,0,0,31,69.52a1.89,1.89,0,0,0,.87.21,1.74,1.74,0,0,0,1-.31l5.3-3.53L48.8,76.48a1.74,1.74,0,0,0,1.28.54,1.4,1.4,0,0,0,.41,0,1.83,1.83,0,0,0,1.31-1.19L70,21.16A1.84,1.84,0,0,0,69.5,19.25Zm-8.81,6.32-28.94,29L17.27,43Zm-27,38.95V61.4l1.87,1.87Zm15.58,7.31L34.45,57,64.1,27.33Z"/></g></g></svg>