<svg xmlns="http://www.w3.org/2000/svg" viewBox="0 0 183.81 180.78"><defs><style>.cls-1{fill:#98afd6;}</style></defs><g id="Layer_2" data-name="Layer 2"><g id="Layer_1-2" data-name="Layer 1"><g id="Layer_2-2" data-name="Layer 2"><g id="Layer_1-2-2" data-name="Layer 1-2"><path id="Path_59" data-name="Path 59" class="cls-1" d="M81.64,105.57,79,105.33A17.11,17.11,0,0,0,81.64,105.57Z"/><path id="Path_60" data-name="Path 60" class="cls-1" d="M107.49,127.07c-1.2.28-2.36.68-3.59.92A22.25,22.25,0,0,0,107.49,127.07Z"/><path id="Path_61" data-name="Path 61" class="cls-1" d="M94,118.48c-1,0-2,.24-3,.28A18.07,18.07,0,0,0,94,118.48Z"/><path id="Path_62" data-name="Path 62" class="cls-1" d="M117.68,140.37l-3.08.72A27,27,0,0,0,117.68,140.37Z"/><path id="Path_63" data-name="Path 63" class="cls-1" d="M125.47,74.08a23.64,23.64,0,0,0-2.23-3C123.87,71.92,124.71,73.08,125.47,74.08Z"/><path id="Path_64" data-name="Path 64" class="cls-1" d="M88.71,81.31c-1.24-.88-2-1.35-2-1.35C87.39,80.39,87.91,80.87,88.71,81.31Z"/><path id="Path_65" data-name="Path 65" class="cls-1" d="M140.86,70.52a21.7,21.7,0,0,0-2-2.43C139.58,68.89,140.22,69.73,140.86,70.52Z"/><path id="Path_66" data-name="Path 66" class="cls-1" d="M105.21,77.52c.8.68,1.48,1.4,2.24,2.12A20.42,20.42,0,0,0,105.21,77.52Z"/><path id="Path_67" data-name="Path 67" class="cls-1" d="M133.43,99.58l5,3.35c6-2,12.31-3.23,18-4.83h0a165,165,0,0,1,22.9-5.32l4.47-.88-3.11-2.83a108.4,108.4,0,0,0-17.9,3.07l-5.64,1.48h0c0-17.94-36-48.91-60.22-39.44-16,6.23-30.73,27.69-45.47,51.47C23,151.84,4.6,156.88,4.6,156.88s51.14,3.59,88.55,18.34c21,8.23,36.8,6.95,54.18-1.4a54,54,0,0,0,19.62-16c8-10.59,10.63-18.66,9.35-27.06a32.92,32.92,0,0,0-6.75-14.9c-3.72-4.8-8.83-11.27-11.07-12h-.28c-1,.24-8,1.72-17.18,4.36l-1,4.75c-.48,2.48-1,4.92-1.64,7.39a106.5,106.5,0,0,1-16.3,35.21c-.56.89-1.16,1.76-1.8,2.6l1.8-2.6c3.35-5.32,10.55-19.3,13.66-45.8-4.39,1.32-9.15,2.84-14,4.6l-1.56.56-1,4.71c-.4,2-.84,3.93-1.32,5.88a84.3,84.3,0,0,1-12.27,26.85,24.81,24.81,0,0,1-2.07,3.12c.71-1,1.35-2.08,2.07-3.12a90.78,90.78,0,0,0,10.23-36c-4.55,1.76-9.07,3.59-13.38,5.47l-1,3.56c-.44,1.4-.92,2.8-1.4,4a57.05,57.05,0,0,1-12.63,19.38,21.26,21.26,0,0,1-2.12,2.23c.76-.72,1.4-1.52,2.12-2.23a55,55,0,0,0,10.59-25c-5.31,2.36-10.11,4.56-13.87,6.27l-.27.64q-.65,1.53-1.44,3a43.76,43.76,0,0,1-12.87,14.07,19.09,19.09,0,0,1-2.16,1.63c.76-.51,1.44-1.07,2.16-1.63a35.41,35.41,0,0,0,10.31-15.59l-2.64,1.16-42.87,18.1C49,145.53,64,137.66,79.24,129.7a36.17,36.17,0,0,0-20.46-4.83l-2.4.36q1.2-.24,2.4-.36a44.5,44.5,0,0,1,19.18.68c1,.32,2.12.72,3.12,1.08l2.36.92c4.27-2.2,8.55-4.4,12.86-6.56a54.48,54.48,0,0,0-24.61-9.83H68.61a22.61,22.61,0,0,1,3.08,0,56.74,56.74,0,0,1,22.61,4.72c1.36.64,2.68,1.32,4,2l2,1.08c4.39-2.16,8.83-4.24,13.27-6.28a91.17,91.17,0,0,0-32-17.7c-1.2-.24-2.4-.52-3.64-.72a28.22,28.22,0,0,1,3.64.72,84.87,84.87,0,0,1,27.69,10.31c1.72,1,3.44,2.12,5.07,3.24l3.52,2.31c5-2.15,10-4.19,15-6-20.94-16.5-36-21.34-42.08-22.74l-3.08-.52a24.75,24.75,0,0,1,3.08.52A106.9,106.9,0,0,1,127.23,95.5C129.19,96.86,131.35,98.18,133.43,99.58Z"/><path id="Path_68" data-name="Path 68" class="cls-1" d="M85.27,69.29l.32.32-.28-.32Z"/><path id="Path_69" data-name="Path 69" class="cls-1" d="M68.33,77.24a20.14,20.14,0,0,0-2.48-1.84C66.73,75.92,67.49,76.64,68.33,77.24Z"/><path id="Path_70" data-name="Path 70" class="cls-1" d="M169.47,67.93C179.82,53,167.83,7,142.66,1c-16.59-4-41.08,5.16-66.74,16.19C26.25,38.52,0,37.88,0,37.88s35.24,23.25,52.15,52.7A85.86,85.86,0,0,1,63.62,69.29c6-8,9.43-12.47,16.62-15.11L36,44.79c15.31,3.4,32,4.68,48.79,6.91a5,5,0,0,0,.4.76,35.51,35.51,0,0,0-14-15.58c-.72-.36-1.4-.76-2.16-1.08a17.41,17.41,0,0,1,2.16,1.08A44.31,44.31,0,0,1,86.51,48.39c.68.88,1.36,1.8,2,2.71v.2c4.24-1.35,8.31-2.47,12.27-3.39A50,50,0,0,0,89.43,33L87,31.16A22,22,0,0,1,89.43,33a58.64,58.64,0,0,1,14.15,14.31,62.59,62.59,0,0,1,15-1.24,76.23,76.23,0,0,0-12-20.7c-.88-.88-1.68-1.84-2.56-2.68a24,24,0,0,1,2.56,2.68,85.19,85.19,0,0,1,15.15,21,12,12,0,0,1,2.91.56,31.68,31.68,0,0,1,17.11,12c-7.4-23-16.15-34.49-20.18-39l-2.24-2.24A31.56,31.56,0,0,1,121.6,20a107,107,0,0,1,22.25,32c1,2.32,2,4.64,2.92,7L149,64.53c6,1.84,7.47,9.47,13,11.39"/><path id="Path_71" data-name="Path 71" class="cls-1" d="M98.9,62.73h0l1.56,1.56c-.64-.72-1.16-1.24-1.52-1.6Z"/><path id="Path_72" data-name="Path 72" class="cls-1" d="M83,66.93c.56.52,1.08,1.08,1.59,1.64h0A15.4,15.4,0,0,0,83,66.93Z"/></g></g></g></g></svg>