<svg xmlns="http://www.w3.org/2000/svg" viewBox="0 0 96.58 96.58"><defs><style>.cls-1{fill:rgba(0%, 0%, 0%, 0);}.cls-2{fill:gray;}</style></defs><g id="Layer_2" data-name="Layer 2"><g id="Layer_1-2" data-name="Layer 1"><g id="Group_15" data-name="Group 15"><path id="Shape_2" data-name="Shape 2" class="cls-1" d="M96.58,48.29A48.29,48.29,0,1,1,48.29,0,48.29,48.29,0,0,1,96.58,48.29Z"/><path id="Phone_Icon" data-name="Phone Icon" class="cls-2" d="M68.82,24.54a26.86,26.86,0,0,0-19.24-8,2.16,2.16,0,0,0-2.15,2.17h0a2.17,2.17,0,0,0,2.15,2.18h0a22.6,22.6,0,0,1,16.19,6.78A23,23,0,0,1,72.47,44a2.17,2.17,0,0,0,4.33,0A27.49,27.49,0,0,0,68.82,24.54ZM60,44a2.16,2.16,0,0,0,4.31,0A14.77,14.77,0,0,0,49.58,29.15a2.18,2.18,0,0,0,0,4.36A10.43,10.43,0,0,1,60,44ZM55.2,55.1a6.5,6.5,0,0,0-5.77,3.47,2.2,2.2,0,0,0,.57,3A2.15,2.15,0,0,0,53,61h0c.95-1.4,1.38-1.62,2-1.6a27.64,27.64,0,0,1,9.94,7.38,2.29,2.29,0,0,1,0,1.59,7.55,7.55,0,0,1-3.69,4.7,6.92,6.92,0,0,1-5.55-.19,60.91,60.91,0,0,1-20-13.15h0a61.76,61.76,0,0,1-13-20.18,7,7,0,0,1-.18-5.6,7.42,7.42,0,0,1,4.66-3.73,2.23,2.23,0,0,1,1.57,0,28,28,0,0,1,7.28,10c0,.62-.19,1-1.58,2a2.2,2.2,0,0,0-.56,3,2.14,2.14,0,0,0,3,.58h0A6.6,6.6,0,0,0,40.29,40,26.71,26.71,0,0,0,30.21,26.15a6.48,6.48,0,0,0-4.45,0,11.66,11.66,0,0,0-7.21,6,11.38,11.38,0,0,0,.12,9.08A65.91,65.91,0,0,0,32.6,62.83l0,0A65.13,65.13,0,0,0,54,76.94a12.83,12.83,0,0,0,4.81,1,9.72,9.72,0,0,0,4.15-.9,11.7,11.7,0,0,0,6-7.27,6.69,6.69,0,0,0,0-4.48A26.38,26.38,0,0,0,55.19,55.09Z"/></g></g></g></svg>