<svg xmlns="http://www.w3.org/2000/svg" viewBox="0 0 225.85 452.38"><defs><style>.cls-1{fill:#b62829;}</style></defs><g id="Layer_2" data-name="Layer 2"><g id="Layer_1-2" data-name="Layer 1"><g id="QiB30Q.tif"><g id="Group_53" data-name="Group 53"><g id="Group_52" data-name="Group 52"><path id="Path_23" data-name="Path 23" class="cls-1" d="M86.58,452.37c-.62-.9-1.55-.41-2.31-.44-17.32-.67-34.62-1.51-51.72-4.61-1.06-.19-2.11-.41-3.26-.64A9,9,0,0,1,35,441.33c3.67-1.36,7.55-1.23,11.39-1.51,14-1,27.66-3.27,40.26-9.83,9.29-4.83,14.36-12.5,15.65-23,2.76-22.31,2.86-44.71,2.79-67.13q-.09-29-2.49-57.93c-1-12.19-2.68-24.3-4.86-36.35a45.86,45.86,0,0,0-16.61-28.36c-9.36-7.72-19.58-14.13-29.84-20.51S30.85,183.89,22,175.51C9.26,163.4,2,148.64.5,131.1-1,113.77,1,96.65,4.05,79.64,8.82,53.41,17.94,28.56,28.43,4.16a6.16,6.16,0,0,1,5.34-4c1.85-.24,3.7,0,5.54-.06C41,0,41,.65,40.65,2c-2.3,8.14-5.07,16.11-7.94,24.06C26.62,42.85,20,59.49,15.7,76.91c-3.56,14.44-5.45,29.05-3.92,43.92,3.13,30.32,18.39,52.27,45.8,65.65,14.77,7.21,30.52,10.93,46.83,12.1A123,123,0,0,0,173,184c24.11-13,37.47-33.67,40.84-60.85,2.3-18.62-.71-36.65-5.83-54.46C203.19,52.05,196.64,36,190.92,19.75c-2.06-5.87-4-11.78-5.69-17.77-.38-1.31-.35-2.07,1.33-1.89A21.56,21.56,0,0,0,189.1,0c5.62-.12,6.71.56,8.92,5.65,9.7,22.39,18,45.26,22.9,69.22a226.59,226.59,0,0,1,4.91,50.22c-.52,24.74-11.61,43.82-31.3,58.32-9.81,7.22-20.3,13.36-30.55,19.89a180.64,180.64,0,0,0-21.32,15.78,42.23,42.23,0,0,0-14,24.25,325.48,325.48,0,0,0-5.4,38.83,814.28,814.28,0,0,0-2.29,86.13c.28,12.77,1.07,25.52,2.54,38.24,1.36,11.79,7.47,19.67,18,24.63,9.08,4.3,18.79,6.13,28.59,7.81,5.57,1,11.23.56,16.79,1.36,4.19.6,7.87,2,9.87,6.33a231.63,231.63,0,0,1-29.44,3.87c-9.22.7-18.45,1.21-27.7,1.4-.41,0-.95-.19-1.16.43h-5.08c-2.4-1.05-4.91-.19-7.36-.38h-26c-2.6.21-5.25-.73-7.81.38Z"/><path id="Path_24" data-name="Path 24" class="cls-1" d="M99.94,452h26a2.58,2.58,0,0,0,0,.39H100A2.6,2.6,0,0,0,99.94,452Z"/><path id="Path_25" data-name="Path 25" class="cls-1" d="M100,452c0,.13,0,.26,0,.38H92.13C94.69,451.26,97.35,452.21,100,452Z"/><path id="Path_26" data-name="Path 26" class="cls-1" d="M125.89,452.37a2.58,2.58,0,0,1,0-.38c2.45.19,4.95-.67,7.36.38Z"/><path id="Path_27" data-name="Path 27" class="cls-1" d="M108.47,188c-13.88-.41-29-1.48-43.21-7-24.38-9.45-38.56-27.65-43.38-53.16-2.18-11.53-1.11-23,1.84-34.29a3.32,3.32,0,0,1,2.44-2.65c16.08-5.12,32.51-6.37,49.25-4.81,18.74,1.74,36.94,6.34,55.3,10.13,17.36,3.58,34.82,6.35,52.64,5.71a130.78,130.78,0,0,0,21.52-2.49c2.67-.54,2.62-.57,2.92,2.26,1.66,15.91-.84,31-9.2,44.8-8.67,14.33-21.3,24-36.38,30.86C145.52,184.85,127.89,187.73,108.47,188Z"/></g></g></g></g></g></svg>