<svg xmlns="http://www.w3.org/2000/svg" viewBox="0 0 192.73 447.57"><defs><style>.cls-1{fill:#d9ae3f;}.cls-2{fill:#f2deb5;}.cls-3{fill:#f2deb4;}.cls-4{fill:#dbb043;}.cls-5{fill:#dab044;}</style></defs><g id="Layer_2" data-name="Layer 2"><g id="Layer_1-2" data-name="Layer 1"><g id="nsGQy2.tif"><g id="Group_59" data-name="Group 59"><g id="Group_58" data-name="Group 58"><path id="Path_26" data-name="Path 26" d="M9.05,296.42q-2.43-5.18-4.85-10.36l-.69-2.49L.81,271.72a5.73,5.73,0,0,0-.8-4q0-8,0-16l.71-5L3.8,228.8q.47-3,.9-6l3.09-17.91.9-6,3.09-17.92.9-6,3.09-17.92.9-6L19.76,133l.9-6L23.75,109l.9-6,3.09-17.92.9-6,3.09-17.92.9-6,3.09-17.92.9-6,3.09-17.92.9-6A9.59,9.59,0,0,1,47.77,0l5,.07L67.73,0l5,.1L87.69,0l5,.1L107.65,0l5,.1L127.61,0l5,.1,14.92.28,1.76,1c3,2.6,3,6.48,4.15,9.89.1,1.71-.19,3.49.92,5a52.48,52.48,0,0,0,2.07,13c.18,1.34.37,2.68.55,4l1.89,12.27.87,4.64q1,6.47,2,12.92l.94,4c0,4.42,1.07,8.67,1.94,13a5.6,5.6,0,0,0,.89,4,53.44,53.44,0,0,0,1.95,13c.09,1.71-.2,3.49.92,5a51.42,51.42,0,0,0,2.07,13l.61,4a72.61,72.61,0,0,0,2.14,13.1c.19,1.27.37,2.53.55,3.8l2,12.92.93,4c0,4.41,1.09,8.66,1.94,12.94a5.55,5.55,0,0,0,.9,4,53.85,53.85,0,0,0,2,13c0,1.38-.18,2.8.74,4a60.1,60.1,0,0,0,2.26,14c0,1.38-.22,2.81.64,4.06A65.85,65.85,0,0,0,187.21,218l.54,3.83,2,12.91c.32,1.35.63,2.7.95,4.05l1.83,13,.24,5-1.13,15.93c-.33,2-.67,4-1,6-4.37,14.07-11.27,26.5-22.76,36.13-8.7,7.28-18.92,11.54-29.34,15.49l-5.88,1.36-17.92,3.11c-12.08.07-10.13-1-9.79,9.8q0,7.46-.1,14.92l.1,5-.09,14.92c0,1.68.07,3.36.1,5q0,7.46-.1,14.92c0,1.68.07,3.36.1,5l-.1,14.92.1,5c-.49,7-.49,7,6.3,6.95,1.48,0,3-.14,4.42-.21l5.05.09,14.91-.09,5,.09,14.92-.09,5,.09a9,9,0,0,1,7.64,5.31l.52,3.83a9.55,9.55,0,0,1-7.16,7.16l-5-.08-14.92.1-5-.1-14.92.1-5-.1-14.92.1-5-.1-14.92.1-5-.1-14.92.1-5-.1-14.92.1-5-.1c-4,.06-7.89-.15-10.85-3.38l-1-1.76c-.32-8.24,1.85-10.48,10.8-11.17l5,.09,14.92-.1,5,.1,14.92-.1,5,.1c9.35.12,8,1.52,7.84-7.84,0-1.68-.07-3.36-.1-5l.1-14.92c0-1.68-.07-3.36-.1-5q0-7.46.1-14.92c0-1.68-.07-3.36-.1-5q0-7.45.1-14.92c0-1.68-.07-3.36-.1-5q0-7.46.1-14.92c0-1.68-.07-3.36-.1-5,.38-1.8.29-3.13-2.15-3.22-3.87-.15-7.69-1.1-11.59-.7l-4-.88L57.8,331.4c-1-1.13-2.53-.85-3.78-1.32l-11.16-3.9-3.07-1.52-9.87-5.55-2.06-1.56-7-5.95-3.93-4.11-5.17-6.84ZM68.76,16.32c-3.14,0-6.29.11-9.4-.18s-4.14,1-4.48,3.78C54.37,24,53.66,28.07,53,32.13c-.31,2-.61,4-.92,6.07q-1.52,9-3,18l-1,6-3,18-.94,6-3.08,17.81c-2.7,15.65-5.5,31.28-8.09,47-5.53,33.46-11.1,66.9-16.37,100.4-3.33,21.2,5.31,46.86,28.13,57.71,29.43,14,60.15,14,90.73,5,28.93-8.52,43.5-30.35,40.87-60.27-1.36-15.61-4.68-31.06-7.19-46.57q-4.73-29.14-9.58-58.26c-2.5-15-5.11-29.95-7.68-44.92-.24-2.35.18-4.82-1.29-6.94a52.4,52.4,0,0,0-1.94-13c0-1.71.21-3.49-.94-5a53.66,53.66,0,0,0-2-13c0-1.4.21-2.82-.68-4.07a59.68,59.68,0,0,0-2.11-13c-.16-1.31-.33-2.61-.5-3.91l-1.87-11.92c.31-1.81-.58-3.38-1-5-.31-2.74-.7-5.48-.92-8.24-.25-3.16-1.79-4.34-4.86-3.49l-5-.1-14.92.1-5-.09-14.92.09-5-.09-14.92.09Z"/><path id="Path_27" data-name="Path 27" class="cls-1" d="M151.87,104c2.56,15,5.17,29.94,7.68,44.92q4.86,29.11,9.58,58.26c2.51,15.51,5.82,31,7.19,46.57,2.62,29.92-11.94,51.75-40.87,60.27-30.59,9-61.3,9-90.73-5-22.82-10.86-31.47-36.51-28.13-57.71,5.27-33.5,10.83-67,16.36-100.4,2.59-15.67,5.39-31.3,8.1-46.95l1.79-.06h5l9,.18-.06,0L50.88,141.3C45,178.4,39.13,215.53,33.09,252.62c-3,18.46,4.08,34.13,20.24,43.34,11.17,6.36,23.47,7.81,36,7.6a7.53,7.53,0,0,0,7.38-7.68v-.17c0-4.29-2.91-7.81-7.28-7.95-4.65-.14-9.26-.53-13.87-1.06C56.31,284.52,46.1,271.89,49,254.44c4.46-26.62,8.5-53.3,12.79-79.94q5.67-35.3,11.47-70.57l-.08,0,9.55-.1h59.88Zm-39.43,175.7a16.13,16.13,0,1,0-.29,0ZM80.76,239.77a16,16,0,1,0-16-15.94A16,16,0,0,0,80.76,239.77Zm55.87-47.91a16.41,16.41,0,1,0,0,.27,2.44,2.44,0,0,0,0-.27ZM92.75,128a15.81,15.81,0,1,0,.32,0Z"/><path id="Path_28" data-name="Path 28" class="cls-2" d="M73.29,103.93q-5.75,35.29-11.47,70.57c-4.29,26.64-8.33,53.33-12.79,79.94-2.93,17.45,7.28,30.09,26.57,32.26,4.61.53,9.22.92,13.87,1.07,4.37.13,7.28,3.65,7.28,8a7.55,7.55,0,0,1-7.22,7.84h-.17c-12.56.21-24.86-1.24-36-7.6-16.16-9.21-23.25-24.88-20.24-43.34,6-37.09,11.87-74.21,17.79-111.32q3-18.65,5.91-37.27Z"/><path id="Path_29" data-name="Path 29" class="cls-3" d="M112.44,279.69A16,16,0,1,1,128.68,264a2.09,2.09,0,0,0,0,.25A16,16,0,0,1,112.44,279.69Zm.23-24a8,8,0,0,0,0,16H113a7.83,7.83,0,0,0,7.7-7.95.76.76,0,0,0,0-.15,8,8,0,0,0-8-7.87Z"/><path id="Path_30" data-name="Path 30" class="cls-3" d="M80.76,239.77a16,16,0,1,1,16-15.94v.2A15.93,15.93,0,0,1,80.76,239.77Zm8-16.19A8,8,0,1,0,81,231.76h.11a7.88,7.88,0,0,0,7.64-8.11v-.07Z"/><path id="Path_31" data-name="Path 31" class="cls-3" d="M136.63,191.86a16,16,0,0,1-31.93,0h0a16,16,0,1,1,31.93,0Zm-15.84-8a8,8,0,1,0,7.86,8.08v-.14A7.91,7.91,0,0,0,120.79,183.89Z"/><path id="Path_32" data-name="Path 32" class="cls-3" d="M92.75,128a16,16,0,1,1-16,16v-.25A16,16,0,0,1,92.75,128Zm8,16.38a8,8,0,1,0-8.4,7.56h.18a7.84,7.84,0,0,0,8.21-7.44.53.53,0,0,1,0-.13Z"/><path id="Path_33" data-name="Path 33" d="M73.29,103.93l-16.5.1.06,0c.51-3.31,1-6.63,1.52-9.94l.52-5c.61-2.73,1.26-5.45,1.81-8.19,1.62-8,5.23-10.16,13-7.6l1.85,1.83c2.56,4.62.26,9.29.18,13.94a12.35,12.35,0,0,0-.88,6c-1.23,2.83-1.2,5.91-1.67,8.9Z"/><path id="Path_34" data-name="Path 34" d="M67.85,62.81l-1.77-1.76c-1.7-3.73-2.12-7.37,1.06-10.56S74,47.74,77.71,49.42l1.77,1.78c1.69,3.72,2.12,7.37-1.07,10.56S71.57,64.52,67.85,62.81Z"/><path id="Path_35" data-name="Path 35" class="cls-4" d="M112.68,255.72a8,8,0,0,1,8,7.87,7.82,7.82,0,0,1-7.54,8.09H113a8,8,0,0,1-.57-16Z"/><path id="Path_36" data-name="Path 36" class="cls-5" d="M88.73,223.58a8,8,0,1,1-8.19-7.75h.14A7.92,7.92,0,0,1,88.73,223.58Z"/><path id="Path_37" data-name="Path 37" class="cls-5" d="M120.79,183.89a8,8,0,1,1-8.08,7.85v-.11a7.88,7.88,0,0,1,8-7.74Z"/><path id="Path_38" data-name="Path 38" class="cls-4" d="M100.71,144.35a7.85,7.85,0,0,1-8.09,7.58h-.13a8,8,0,1,1,8.22-7.75Z"/></g></g></g></g></g></svg>