<svg xmlns="http://www.w3.org/2000/svg" viewBox="0 0 270.57 503.24"><defs><style>.cls-1{fill:#e84857;}</style></defs><g id="Layer_2" data-name="Layer 2"><g id="Layer_1-2" data-name="Layer 1"><g id="fpyEcZ.tif"><g id="Group_8" data-name="Group 8"><g id="Group_7" data-name="Group 7"><path id="Path_19" data-name="Path 19" d="M40.2,279.26,30.73,269a5.85,5.85,0,0,0-2.32-3.14l-6.5-9.05a6,6,0,0,0-2.17-3.35l-6.67-12.33-1-2.33L7.54,227.43,5.68,222,2.4,209.66c.1-1.59.38-3.22-1-4.5L.08,189.41,0,183.75q.54-8.59,1.09-17.21l.21-6.41L4.45,140.7q.6-3.8,1.21-7.59,2.4-10.7,4.81-21.38a20.73,20.73,0,0,0,2.06-7.88Q16.29,92,20.07,80.05l2.69-8.82Q28.11,57.67,33.48,44.1l4-10c3.68-7.53,7.74-14.9,10.92-22.64C51.85,3,57.45-1,66.63.21A24.75,24.75,0,0,0,71.1,0l5.68.07L93.61,0l5.68.07L116.12,0l5.68.07L138.64,0l5.67.07L161.15,0l5.67.07L183.66,0l5.67.07L206.17,0l5.66.25A21,21,0,0,1,219.68,6l2,3.77c1.12,4,3.3,7.52,5.21,11.15l2.76,5.64a61.45,61.45,0,0,0,5.3,12.1c.32.79.63,1.58.95,2.38,1.46,4.18,2.76,8.43,5,12.28a4.43,4.43,0,0,0,1.34,3.32L246.81,69c.56,1.55,1.11,3.1,1.67,4.64q2,6.12,4,12.24l1.43,4.66q1.88,6.18,3.73,12.37c.21,1.53.14,3.15,1.37,4.36a57.35,57.35,0,0,0,3.33,13.53c.07,1.58-.13,3.22,1.08,4.52l2.6,14.58,1.05,4.53a71,71,0,0,0,2,14.65q.19,2.81.37,5.62.51,7.86,1,15.73c.05,1.88.09,3.77.14,5.65q-.68,9-1.33,18c-1.34,2.09-1.27,4.42-1.14,6.76q-4,12.38-8,24.77-2.4,5-4.79,9.94c-13.87,25-33.4,44.36-58.21,58.46l-10,4.77-24.74,8a33.3,33.3,0,0,0-3.86.32c-11.4,2.36-11.39,2.38-10.6,14.16q0,8.43-.07,16.86c0,1.88.05,3.77.07,5.66l-.06,16.85.06,5.66-.06,16.85.06,5.66,0,16.85.09,5.66a44,44,0,0,0,2.14,13.47,10.93,10.93,0,0,0,2,5.68,27.48,27.48,0,0,0,5.57,11.31,10,10,0,0,0,3.39,4.77,24.89,24.89,0,0,0,7.86,8.12l3.56,2.77a26.09,26.09,0,0,0,10.1,5.74,8.39,8.39,0,0,0,4.55,2,46.27,46.27,0,0,0,13.49,3.44l3.1,1.75a15.13,15.13,0,0,1,5.19,8.4q-.27,3.38-.52,6.75c-3.49,6-8.88,7.77-15.57,7.74q-57.49-.19-115,0c-11,0-15.67-4.06-16-14.64,1.35-5.64,5.06-8.87,10.53-10.3l3.85-.73C99.49,473.16,120,451,121.79,428a13.11,13.11,0,0,0,.85-6.78q.08-8.42.14-16.84c0-1.89,0-3.78-.07-5.66l.07-16.86c0-1.88,0-3.77-.07-5.65q0-8.43.07-16.86l-.07-5.65.07-16.86c0-1.88,0-3.77-.07-5.65s.08-4,.27-6.05c.78-5.37-1.33-7.85-6.81-7.22l-4-.47-14-3.33-4.59-1.78-10.78-3.88A9.63,9.63,0,0,0,78,306.22l-10.13-5.47-4.65-3-8.77-6a5,5,0,0,0-3.05-2.37l-10.47-9.4a.7.7,0,0,0-.72-.68ZM51.29,161.2l1.52-7.85L58,132l2.79-9c2-6.42,5-11.75,12.6-12.6l4.45.4c3,1.69,5.77,3.69,7.54,6.78l1.31,4.36q-3.21,11.79-6.41,23.58a15.49,15.49,0,0,0-1.5,6.73c-1.88,4.72-2.22,9.78-3.24,14.69-.86,4.19.61,5.53,4.62,4.46l5.62.08a104.66,104.66,0,0,0,16.89-.08l5.63.08a104.54,104.54,0,0,0,16.88-.08l5.63.09a105.83,105.83,0,0,0,16.89-.09l5.62.09a105.83,105.83,0,0,0,16.89-.09l5.62.09a105.83,105.83,0,0,0,16.89-.09l5.62.09,16.89-.08,5.62.09c6.89.06,13.79.09,20.68.2,2.12,0,3.56-.15,3.3-3-.58-6.28-.73-12.61-2.4-18.76-.07-1.93.14-3.91-1-5.64a47.91,47.91,0,0,0-2.58-13.41,6,6,0,0,0-1.1-4.51,49.51,49.51,0,0,0-3.32-13.51,6.82,6.82,0,0,0-1.29-4.5,52.16,52.16,0,0,0-4.17-14l-.84-3a73.68,73.68,0,0,0-4.82-13.51c-.08-1.22-.08-2.47-1.23-3.3-.95-5.06-3.07-9.68-5.37-14.24l-1.08-2.75A56.44,56.44,0,0,0,210,44.25l-1.07-2.46a50.84,50.84,0,0,0-5.07-11.1c-.83-2-1.17-4.3-3.32-5.5a98.76,98.76,0,0,0-16.85,0l-5.65-.07-16.87.08-5.64-.08-16.87.07L133,25.08l-16.87.07-5.64-.07-16.87.07L88,25.08c-5.05-.07-10.11,0-15.17-.23-2.61-.11-4,.89-5.13,3.24C63,37.88,58.42,47.7,54.63,57.88L51,67.83A176.85,176.85,0,0,0,41.8,93.72a18.24,18.24,0,0,0-2.31,7.82A132.11,132.11,0,0,0,33,125.22,13.33,13.33,0,0,0,31.67,132c-2.42,6.63-3,13.63-4.08,20.52l-.93,7.68c-2,12.1-2,12.12,8.46,11.2l5.61.08c11.8.71,9.29.45,10.44-8.62C51.23,162.3,51.25,161.75,51.29,161.2Zm108.59,35c-26.26,0-52.51.08-78.76-.08-4.7,0-6.46.84-4.84,5.94,3,9.44,7.32,18,14.27,25.15,12.34,12.66,27.68,17.94,45,18.41a12.19,12.19,0,0,1,12,12.34c-.22,6.5-5.22,11.43-12,11.62a62.48,62.48,0,0,1-18.9-2.13c-34.83-9.79-56.38-32.58-65.41-67.33-.89-3.44-2.17-4.1-5.19-4a107.93,107.93,0,0,1-14.61,0c-5.25-.5-6,1.86-5.26,6.19,4.75,27.91,17.19,51.73,40,68.7,37.07,27.62,77.57,31.27,119.18,11.81,33.61-15.72,52.23-43.73,59-79.89.85-4.55.26-7-5.68-6.87C212.39,196.43,186.13,196.22,159.88,196.22ZM148.7,478.43c-4.57-5.63-8.76-10.33-12-15.71-.65-1.07-1.55-2-2.47-.48-3.44,5.6-7.84,10.51-12.38,16.19Z"/><path id="Path_20" data-name="Path 20" class="cls-1" d="M159.88,196.22c26.25,0,52.51.21,78.76-.16,5.94-.09,6.54,2.32,5.68,6.87-6.77,36.16-25.39,64.17-59,79.89-41.61,19.46-82.1,15.82-119.17-11.81-22.78-17-35.23-40.79-40-68.7-.74-4.33,0-6.68,5.25-6.18a111.45,111.45,0,0,0,14.62,0c3-.12,4.29.55,5.18,4,9,34.75,30.59,57.54,65.42,67.33a62.73,62.73,0,0,0,18.9,2.14c6.8-.2,11.8-5.13,12-11.63a12.2,12.2,0,0,0-12-12.33c-17.36-.48-32.7-5.76-45-18.41-7-7.13-11.27-15.71-14.27-25.16-1.61-5.1.14-6,4.84-5.94C107.37,196.31,133.63,196.23,159.88,196.22Z"/></g></g></g></g></g></svg>