<svg xmlns="http://www.w3.org/2000/svg" viewBox="0 0 367.37 479.44"><defs><style>.cls-1{fill:#0a0b0a;}.cls-2{fill:#EEAB6D;}.cls-3{fill:#EEAB6D;}.cls-4{fill:#f9f98a;}.cls-5{fill:#f0ba1c;}.cls-6{fill:#efb91c;}.cls-7{fill:#18100e;}.cls-8{fill:#1a110e;}.cls-9{fill:#14140e;}.cls-10{fill:#11110e;}</style></defs><g id="Layer_2" data-name="Layer 2"><g id="Layer_1-2" data-name="Layer 1"><g id="mM0u8I.tif"><g id="Group_4" data-name="Group 4"><g id="Group_3" data-name="Group 3"><path id="Path_2" data-name="Path 2" class="cls-1" d="M143.46,334.52q0-7.47,0-14.94c0-1.68,0-3.35,0-5q0-7.47,0-14.95c0-1.67,0-3.34,0-5-.36-4.72,1.74-9.69-1.38-14.14L140,277.54a44.1,44.1,0,0,0-6.18-8.94,5.38,5.38,0,0,0-2.05-3,55.55,55.55,0,0,0-6.78-9.82l-.86-1.25a60.67,60.67,0,0,0-7.21-10.35,5,5,0,0,0-2-2.93,33.65,33.65,0,0,0-5.17-7.56,10.74,10.74,0,0,0-2.93-4.15l-5.3-7.81-2.21-3.16-6.27-9a4.89,4.89,0,0,0-2.07-2.94,45.49,45.49,0,0,0-6.13-8.93,10.25,10.25,0,0,0-2.94-4.2,41.52,41.52,0,0,0-5.81-8.46c-.15-.6-.23-1.25-1-1.37a51.52,51.52,0,0,0-7.1-10.21,4.41,4.41,0,0,0-2-3,35.44,35.44,0,0,0-5.24-7.71l-2.85-4.06-5.58-8.11-2.1-2.92A44.66,44.66,0,0,0,44,138.85a5.41,5.41,0,0,0-2-2.95,56.71,56.71,0,0,0-6.78-9.83l-.86-1.25a61.18,61.18,0,0,0-7.2-10.35,5.1,5.1,0,0,0-2-2.93A34,34,0,0,0,19.89,104,10.75,10.75,0,0,0,17,99.84L11.67,92,8.88,88.09a41.69,41.69,0,0,0-5.7-8.17,5,5,0,0,0-2.06-3c-3-8.46,0-12.86,8.81-12.91,1.65,0,3.3-.12,5-.18l5,0,15,0,5,0,15,0,5,0,14.95,0,5,0,15,0,5,0,15,0,5,0,15,0,5,0,15,0,5,0,14.95,0,5,0,14.95,0,5,0,15,0,5,0h23.09L231.61,52,227.54,48l-5.91-5.91A14.09,14.09,0,0,0,217.56,38c-1.95-2.63-3.59-5.35-2.44-8.83,2.57-5.12,7.67-7.72,11.47-11.62A113.18,113.18,0,0,1,255.42,3.1a17.11,17.11,0,0,0,7-1.67l16-1.43,5,0L296.3,1.35c1.13,1.1,2.59.91,4,1l12,3.8,2.86,1.36,9.06,4.71,3.87,2.37,7.76,5.77,3.31,3L346,30.27l3.23,4L355,42.76l.86,1.46,4.92,10.05,1.56,3.81,3.05,11c.33,1.67.67,3.34,1,5l1,14c0,1.66,0,3.33,0,5l-3,17.94c-.68,2.34-1.37,4.67-2,7-4.76,11.09-10.54,21.53-19,30.32-4.83,5-6.56,5.42-13,2.47a7.61,7.61,0,0,0-3-3l-5.9-5.9a14,14,0,0,0-4.08-4.08l-5.9-5.9-4.07-4.08-5.9-5.9-4.08-4.08-5.9-5.9-4.08-4.09c-3.94-4.52-4-4.53-7.19.2q-7.08,10.4-14.12,20.82a137.12,137.12,0,0,0-11,15.95L221,193.9l-10.71,15.77-34.12,49.08a147.64,147.64,0,0,0-10.76,15.81c-6.75,5.71-6.19,13.38-5.61,21l0,5,0,14.94,0,5,0,14.95,0,5,0,14.95,0,5,0,14.95,0,5,0,15,0,5,0,14.95,0,5,0,14.95,0,5,0,15,0,5c-.68,2.37.23,3.15,2.63,3,4-.21,8.1-.16,12.15-.22l5,0,14.95,0,5,0,14.95,0,5,0,15,0,5,0c4.28.61,8.77-.77,12.9,1.36l1.86,1.86c3,8.42,0,12.86-8.8,12.91-1.65,0-3.3.12-5,.18l-5,0-15,0-5,0-14.95,0-5,0-14.95,0-5,0-15,0-5,0-15,0-5,0-15,0-5,0-15,0-5,0-14.95,0-5,0-15,0-5,0c-3.72-.06-6-2.32-7.85-5.2l-.3-3.95a8.8,8.8,0,0,1,7.15-7.15l5,0,14.94,0,5,0,14.95,0,5,0,15,0,5,0,15,0c9.36.56,9.36.56,8.8-8.8q0-7.49,0-14.95c0-1.68,0-3.35,0-5q0-7.47,0-14.95c0-1.67,0-3.34,0-5q0-7.47,0-14.95c0-1.67,0-3.34,0-5q0-7.47,0-15c0-1.67,0-3.34,0-5q0-7.47,0-14.95l0-5q0-7.47,0-14.95C143.48,337.87,143.47,336.2,143.46,334.52ZM340.59,125.11a29,29,0,0,0,1.68-2.42c18.32-32.45,7.78-74.93-23.75-94.88-17-10.73-35.26-14.66-55-9.56-9.68,1.54-18,6-26,11.44-2.32,1.56-2.65,2.57-.44,4.7,7.62,7.35,15.5,14.53,22.37,22.56,5.36,6.28,11.35,8.38,19.09,6.93,5,.06,10,.14,14.95.18,6.35,0,8.36,1.63,10.08,8-1,5.85-5.39,9.77-8.51,14.36-1.88,2.76-1.81,4.24.56,6.56,11.48,11.24,22.77,22.67,34.14,34C336.18,133.46,336.19,133.46,340.59,125.11ZM37.9,80.21H23.29c5.33,7.7,10.9,14.23,14.72,21.67C42.7,111,49.5,113.54,58.85,111.8a2.64,2.64,0,0,0,.49.08l196,.09c1.29,0,2.59.23,3.53-1.15,6.88-10,13.8-20.07,21.18-30.78H144.11q-53.1,0-106.21.17ZM158.82,254.79a8.52,8.52,0,0,0,1-1.06q42.56-61.44,85.08-122.89c.52-.76,1.43-1.45.9-2.9H130.26q-29.68,0-59.36.16H56.68c1.28,2,2.13,3.35,3,4.68q27.47,39.71,55,79.39c11.52,16.64,23.08,33.25,34.52,49.94,1.76,2.57,2.92,3.38,4.74.14C155.39,259.67,157.18,257.27,158.82,254.79Z"/><path id="Path_3" data-name="Path 3" class="cls-2" d="M70.9,128.11q29.68-.09,59.36-.16,55.38,0,110.76,0h4.79c.54,1.45-.37,2.14-.9,2.9Q202.4,192.3,159.83,253.73a7.78,7.78,0,0,1-1,1.06,28.63,28.63,0,0,1-1.9-2.25Q113.9,190.32,70.9,128.11Zm72.89,79.68a8.08,8.08,0,0,0,7.85-8,8,8,0,1,0-8,8ZM183.58,160a8,8,0,1,0-8.11,7.88h.15a8,8,0,0,0,8-7.88Zm-63.88-7.71a8,8,0,1,0,0,.32c0-.1,0-.21,0-.32Z"/><path id="Path_5" data-name="Path 5" class="cls-3" d="M303.5,72c-1.72-6.34-3.73-7.91-10.08-8-5,0-10-.12-15-.18-.08-.32-.06-.74-.26-.94-7.46-7.42-14.68-15.09-22.47-22.12-6.95-6.27-7-11.94.63-17.29,2.41-1.7,5.27-2.83,7.12-5.28,19.78-5.1,38.09-1.17,55,9.56,31.53,20,42.07,62.43,23.75,94.88a29,29,0,0,1-1.68,2.42c-1.95-.59-2.45-2.61-3.75-3.86-9-8.69-18.06-17.38-26.9-26.26-4.4-4.42-3.93-6.32,1.62-9.69C311,92.9,313.85,96,321.5,96q6,0,12,0c6.23,0,9.88-3.08,9.79-8.11-.09-4.86-3.64-7.8-9.54-7.85-4.16,0-8.33.13-12.48-.06a10.44,10.44,0,0,0-8.52,3.22C311.46,75.2,309.83,73.22,303.5,72Zm23.55-24a8.34,8.34,0,0,0-4.69-6.81A7.17,7.17,0,0,0,314,42.28Q307.42,48.36,301.35,55a6.94,6.94,0,0,0-1,8.34,8,8,0,0,0,7.17,4.6c4.87.14,19.61-14.75,19.53-19.91Zm-39.69-8.07V36a41.85,41.85,0,0,0,0-4.48,8,8,0,0,0-8-7.32,7.8,7.8,0,0,0-7.85,7.44c-.23,5.63-.24,11.28,0,16.92a7.94,7.94,0,0,0,15.86-.12C287.5,45.58,287.36,42.75,287.36,39.93Z"/><path id="Path_6" data-name="Path 6" class="cls-4" d="M70.9,128.11l86,124.43a28.63,28.63,0,0,0,1.9,2.25c-1.64,2.48-3.44,4.88-4.89,7.47-1.82,3.24-3,2.43-4.73-.14-11.44-16.69-23-33.3-34.52-49.94q-27.48-39.69-55-79.39c-.92-1.33-1.77-2.71-3-4.68Z"/><path id="Path_7" data-name="Path 7" class="cls-5" d="M311.56,85.3c-5.55,3.37-6,5.27-1.63,9.69,8.85,8.88,17.88,17.57,26.9,26.26,1.3,1.25,1.8,3.27,3.75,3.86-4.4,8.35-4.4,8.35-10.9,1.87-11.36-11.36-22.66-22.79-34.14-34-2.36-2.32-2.43-3.8-.56-6.56,3.12-4.59,7.5-8.51,8.52-14.36,6.32,1.19,7.95,3.17,9.21,11.17l-.1-.07c-1.18.26-1.24,1.14-1.14,2.1Z"/><path id="Path_8" data-name="Path 8" class="cls-6" d="M263.48,18.25c-1.85,2.45-4.71,3.58-7.12,5.28-7.6,5.35-7.58,11-.63,17.29,7.8,7,15,14.7,22.47,22.12.2.2.18.62.26.94-7.73,1.45-13.72-.65-19.08-6.93-6.87-8-14.75-15.21-22.37-22.56-2.2-2.13-1.88-3.14.44-4.7C245.45,24.29,253.8,19.79,263.48,18.25Z"/><path id="Path_10" data-name="Path 10" class="cls-7" d="M143.79,207.79a8,8,0,1,1,7.85-8.15v.13A8,8,0,0,1,143.79,207.79Z"/><path id="Path_11" data-name="Path 11" class="cls-8" d="M183.58,160a8,8,0,1,1-7.92-8.07h.14A8,8,0,0,1,183.58,160Z"/><path id="Path_12" data-name="Path 12" class="cls-7" d="M119.7,152.28a8,8,0,1,1-7.6-8.38h.25A8,8,0,0,1,119.7,152.28Z"/><path id="Path_13" data-name="Path 13" class="cls-9" d="M327.05,48c.08,5.16-14.66,20-19.53,19.91a8,8,0,0,1-7.17-4.6,7,7,0,0,1,1-8.35q6.06-6.59,12.65-12.68a7.17,7.17,0,0,1,8.37-1.09A8.35,8.35,0,0,1,327.05,48Z"/><path id="Path_14" data-name="Path 14" class="cls-10" d="M312.72,83.2A10.44,10.44,0,0,1,321.24,80c4.15.19,8.32,0,12.47.06,5.91,0,9.46,3,9.54,7.85.09,5-3.56,8.07-9.78,8.11q-6,0-12,0c-7.66,0-10.5-3.1-9.94-10.71l-.09-.07c.38-.7.76-1.4,1.15-2.1Z"/><path id="Path_15" data-name="Path 15" class="cls-10" d="M287.36,39.93c0,2.82.14,5.65,0,8.46a7.94,7.94,0,0,1-15.87.12c-.23-5.64-.23-11.29,0-16.92a7.79,7.79,0,0,1,7.85-7.44,8,8,0,0,1,8,7.32,44.63,44.63,0,0,1,0,4.48C287.37,37.28,287.37,38.6,287.36,39.93Z"/><path id="Path_16" data-name="Path 16" class="cls-3" d="M312.62,83.12l-1.15,2.1C311.36,84.27,311.43,83.39,312.62,83.12Z"/></g></g></g></g></g></svg>