<svg xmlns="http://www.w3.org/2000/svg" viewBox="0 0 243.48 447.51"><defs><style>.cls-1{fill:#331614;}.cls-2{fill:#bf292e;}.cls-3{fill:#e77164;}.cls-4{fill:#351a17;}.cls-5{fill:#e57064;}.cls-6{fill:#df6f62;}.cls-7{fill:#da7163;}.cls-8{fill:#381d1a;}</style></defs><g id="Layer_2" data-name="Layer 2"><g id="Layer_1-2" data-name="Layer 1"><g id="le13It.tif"><path class="cls-1" d="M165.64,431.2l14.94,0,5,0c3.71.08,6,2.32,7.84,5.2.1,1.32.21,2.63.31,4a8.9,8.9,0,0,1-7.15,7.15l-5,0-14.94,0-5,0-14.94,0-5,0-14.94,0-5,0-14.94,0-5,0-14.94,0-5,0-15,0-5,0c-3.38-.26-7,.33-9.82-2.22l-2.06-2.94c-.23-8.55,1.74-10.57,10.87-11.15l5,0,15,0,5,0,14.95,0,5,0c8.19.37,8.19.37,7.82-7.82,0-1.67,0-3.35,0-5q0-7.47,0-14.94c0-1.68,0-3.35,0-5q0-7.47,0-14.94c0-1.68,0-3.35,0-5q0-7.47,0-14.94c0-1.68,0-3.35,0-5q0-7.47,0-14.94l0-5q0-7.47,0-14.95c0-1.67,0-3.34,0-5q0-7.49,0-14.95c0-1.67,0-3.34,0-5l0-14.94,0-5c.07-4.06,0-8.13.23-12.18.11-2.36-.58-3.4-3-2.68l-5-.24c-4.56-1.27-9.28-.72-13.91-1.26a6.25,6.25,0,0,0-4.08-.5l-13-2-1.76-.45-14.22-3.63c-.94-1.23-2.49-1-3.72-1.58L46,250.66c-.63-1-1.67-1.09-2.68-1.3l-10.19-5.74-4.16-3-7.08-5.89c-1-1-2-2-3-3q-3.39-4.22-6.8-8.42a5.22,5.22,0,0,0-2-3L5.8,211.79a8.28,8.28,0,0,0-1.76-4l-2.88-11L.59,191.7,0,177.84a15.08,15.08,0,0,0,.77-6L6,151.9a15.22,15.22,0,0,0,2-7c3-6.87,4.5-14.19,6.73-21.29l2.1-7.66A168.08,168.08,0,0,0,23,95a15.36,15.36,0,0,0,2-6.93,181.52,181.52,0,0,0,6.78-22,19.92,19.92,0,0,0,2-7,167.32,167.32,0,0,0,6.37-21,17.31,17.31,0,0,0,2-6.84A184.44,184.44,0,0,0,48.81,9.18C50.37,4.69,52,.27,57.85.05L72.79,0l5,0L92.75,0l5,0,14.94,0,5,0,14.94,0,5,0,14.95,0,5,0L172.6,0l5,0c4.29.59,8.77-.73,12.9,1.36l1.85,1.86,3.33,9.9a11.68,11.68,0,0,0,1.71,5.05,61.86,61.86,0,0,0,3.78,12.93c.3,1.21.06,2.59,1.1,3.57q1.36,4.82,2.72,9.63c.52,1.25.18,2.81,1.42,3.79.42,4.17,2.09,8,3.31,11.93L211,64.19a54.23,54.23,0,0,0,3.41,10.87,5.79,5.79,0,0,0,1.2,4,57.71,57.71,0,0,0,3.56,12.12l.81,2.94q2.12,6.8,4.21,13.58c.22,1.27,0,2.67,1.11,3.67a39,39,0,0,0,2.84,9.75c.31,1.32.11,2.82,1.32,3.84.39,4.18,2.14,8,3.27,12l1.46,4.1a69.4,69.4,0,0,0,3.89,13.17c.17.57.35,1.15.52,1.73q1.51,5.47,3,10.95l1,5q.42,7,.83,14c-.22,2-.45,4-.67,6a87.43,87.43,0,0,1-4.93,19.09l-4.74,9.67a89.32,89.32,0,0,1-22.66,23l-10.91,6.06-22.95,8.19a19.77,19.77,0,0,0-7,1.67l-17,2.52-6,.75c-4.74.26-9.48.62-14.23.72-2.12.05-2.84.77-2.77,2.87.17,4.42.13,8.85.18,13.28l0,5q0,7.47,0,14.94c0,1.68,0,3.35,0,5l0,14.94c0,1.67,0,3.34,0,5q0,7.47,0,14.94l0,5q0,7.47,0,14.94c0,1.67,0,3.34,0,5l0,14.94,0,5q0,7.47,0,14.94c0,1.67,0,3.35,0,5q0,7.47,0,14.94c0,1.67,0,3.35,0,5-.42,7-.42,7,6.29,7,1.5,0,3-.12,4.48-.18l5,0,14.94,0ZM212.37,126c-.42-1.73-.58-3.56-1.77-5a54.44,54.44,0,0,0-3.75-12.73c-.24-1.24,0-2.64-1.1-3.62a40.3,40.3,0,0,0-2.83-9.74c-.32-1.32-.12-2.82-1.34-3.83-.38-4.18-2.11-8-3.27-12L196.87,75a67.43,67.43,0,0,0-4-13.19c-.16-.56-.32-1.13-.49-1.69a55.18,55.18,0,0,0-3.67-12c-.09-1.06.08-2.19-.89-3l-3.42-11.89L183.24,29q-1.73-5.46-3.44-10.93c-1.17-3.76-4.13-1.2-6.2-1.76l-14.94.05-5-.05-14.95.05-5-.05-15,.05-5-.05-14.94,0-5,0-14.94,0-5,0c-9.81-.46-9.82-.46-12.56,8.6-.52,1.72-.88,3.48-1.32,5.22a19.92,19.92,0,0,0-2,7,169.15,169.15,0,0,0-6.37,21,17.6,17.6,0,0,0-2,6.83A186.85,186.85,0,0,0,42.9,87a16.65,16.65,0,0,0-2,7c-2.89,6.84-4.48,14.09-6.66,21.15L32.06,123q-2,6.45-4,12.9c-3.14,10.31-6.39,20.59-9.38,30.95-7.19,24.92,2.24,49.67,23.6,63.33C59.18,241,78.15,244.68,97.57,246.6a236.91,236.91,0,0,0,55.69-.86c18.07-2.49,35.67-6.52,50.7-17.61,17.17-12.68,24.92-29.83,22.67-51.08-1.51-14.29-7.36-27.49-11.3-41.17Q213.85,130.92,212.37,126Z"/><path class="cls-2" d="M215.33,135.88c3.94,13.68,9.79,26.88,11.3,41.17,2.25,21.25-5.5,38.4-22.67,51.08-15,11.09-32.63,15.12-50.7,17.61a236.91,236.91,0,0,1-55.69.86C78.15,244.68,59.18,241,42.3,230.15c-21.36-13.66-30.79-38.41-23.6-63.33,3-10.36,6.24-20.64,9.38-30.95l7.8-.1h5l11.05.15c-2,9.69-5.66,19-7.21,28.77a12,12,0,0,0-1.8,7.2l0,0a26.43,26.43,0,0,0-.09,16,25,25,0,0,0,2.35,10.56c8.16,19.79,27.45,26.44,45.82,25.14,4.37-.31,6.68-3.34,6.75-7.81a7.55,7.55,0,0,0-7.1-8c-3.61-.37-7.28-.44-10.83-1.09-10.2-1.89-18-6.89-20.35-17.69a41,41,0,0,1,.62-19.64c1.37-5.09,3.39-10,3.85-15.33a12.71,12.71,0,0,0,1.91-7.13h0a1.84,1.84,0,0,0,.87-2l2.59-9-.14,0,6.64-.09H200.59Z"/><path class="cls-3" d="M63.93,154.05c-.46,5.31-2.48,10.24-3.85,15.33A41,41,0,0,0,59.46,189c2.4,10.8,10.15,15.8,20.35,17.69,3.55.65,7.22.72,10.83,1.09a7.55,7.55,0,0,1,7.1,8c-.07,4.47-2.38,7.5-6.75,7.81-18.37,1.3-37.66-5.35-45.82-25.14a25,25,0,0,1-2.35-10.56l.09-16,0,0c2.07-.08,3.09-1.74,4.35-3,4.57-4.51,9.06-9.11,13.67-13.57C61.69,154.62,62.19,152.69,63.93,154.05Z"/><path class="cls-4" d="M63.21,95A16.44,16.44,0,0,0,64.89,88c.87-2.63,1.8-5.24,2.61-7.89,2.31-7.6,4.37-8.94,12.21-7.82l3.06,2.78c2.33,4,.29,8-.1,11.94a14.92,14.92,0,0,0-1.84,7c-2.61,6.8-4.21,13.89-5.92,20.95-.52,1.94-1,3.88-1.55,5.82l-4.2,15.08.14,0-17-.07q1.74-6.93,3.46-13.86a20.3,20.3,0,0,0,1.9-7Q60.45,105,63.21,95Z"/><path class="cls-5" d="M52.35,135.82l16.95.07-2.59,9a2.08,2.08,0,0,0-.87,2h0c-2.12,0-3.14,1.65-4.4,2.9-4.58,4.52-9.09,9.13-13.72,13.62-.73.71-1.24,2.66-3,1.25,1.55-9.8,5.2-19.08,7.21-28.77l.15-.21Z"/><path class="cls-6" d="M44.74,164.69c1.74,1.41,2.25-.54,3-1.25,4.63-4.49,9.14-9.1,13.72-13.62,1.26-1.25,2.28-2.94,4.4-2.9a12.71,12.71,0,0,1-1.91,7.13c-1.74-1.36-2.24.57-3,1.29-4.61,4.46-9.1,9.06-13.67,13.57-1.26,1.24-2.28,2.9-4.35,3A12,12,0,0,1,44.74,164.69Z"/><path class="cls-7" d="M42.91,171.93l-.09,16A26.43,26.43,0,0,1,42.91,171.93Z"/><path class="cls-6" d="M65.84,146.92a2.08,2.08,0,0,1,.87-2A1.84,1.84,0,0,1,65.84,146.92Z"/><path class="cls-8" d="M84.76,48.18l2.95,2.06A9.48,9.48,0,0,1,88.52,61L86.7,62.81A9.47,9.47,0,0,1,76,62l-2.08-2.95C73.65,50.4,76.1,48,84.76,48.18Z"/></g></g></g></svg>