<svg xmlns="http://www.w3.org/2000/svg" viewBox="0 0 243.49 447.51"><defs><style>.cls-1{fill:#261112;}.cls-2{fill:#f4c7dd;}.cls-3{fill:#dba0c8;}.cls-4{fill:#281212;}.cls-5{fill:#2a1414;}</style></defs><g id="Layer_2" data-name="Layer 2"><g id="Layer_1-2" data-name="Layer 1"><g id="le13It.tif"><g id="Group_53" data-name="Group 53"><g id="Group_52" data-name="Group 52"><path id="Path_24" data-name="Path 24" class="cls-1" d="M165.64,431.2l15,0,5,0c3.72.08,6,2.32,7.84,5.2.11,1.32.21,2.63.32,4a8.91,8.91,0,0,1-7.16,7.15l-5,0-15,0-5,0-14.94,0-5,0-14.95,0-5,0-14.94,0-5,0-14.94,0-5,0-14.94,0-5,0c-3.38-.26-7,.33-9.81-2.22l-2.07-2.94c-.23-8.55,1.74-10.57,10.88-11.15l5,0,14.94,0,5,0,14.94,0,5,0c8.2.37,8.2.37,7.82-7.82,0-1.67,0-3.35,0-5q0-7.47,0-14.94c0-1.67,0-3.35,0-5q0-7.47,0-14.94c0-1.68,0-3.35,0-5q0-7.47,0-14.94c0-1.68,0-3.35,0-5q0-7.47,0-14.94l0-5q0-7.47,0-14.95c0-1.67,0-3.34,0-5q0-7.47,0-14.95c0-1.67,0-3.34,0-5l0-14.94,0-5c.06-4.06,0-8.13.22-12.18.11-2.36-.58-3.4-3-2.68l-5-.24c-4.56-1.27-9.29-.72-13.92-1.26a6.22,6.22,0,0,0-4.07-.5l-13-2-1.75-.45-14.22-3.63c-1-1.23-2.49-1-3.73-1.58L46,250.66c-.62-1-1.67-1.09-2.67-1.3l-10.2-5.74-4.16-3-7.08-5.9-2.95-2.95-6.8-8.42a5.26,5.26,0,0,0-2-3l-4.32-8.56a8.24,8.24,0,0,0-1.76-4l-2.89-11L.59,191.7,0,177.84a15.1,15.1,0,0,0,.77-6l5.18-20a15.15,15.15,0,0,0,2-7c3-6.87,4.5-14.19,6.73-21.29l2.1-7.67A167.94,167.94,0,0,0,23,95a15.36,15.36,0,0,0,2-6.93,179.76,179.76,0,0,0,6.78-22,19.66,19.66,0,0,0,2-7,167.32,167.32,0,0,0,6.37-21,17.31,17.31,0,0,0,2-6.84A184.44,184.44,0,0,0,48.81,9.18C50.37,4.69,52,.27,57.85,0L72.79,0l5,0L92.75,0l5,0,14.94,0,5,0,15,0,5,0,14.95,0,5,0L172.6,0l5,0c4.28.59,8.76-.73,12.89,1.36l1.86,1.86,3.33,9.9a11.67,11.67,0,0,0,1.7,5.05,62.47,62.47,0,0,0,3.78,12.93c.3,1.21.06,2.59,1.1,3.57L205,44.34c.52,1.25.17,2.81,1.41,3.79.43,4.17,2.09,8,3.31,11.93L211,64.19a54.26,54.26,0,0,0,3.42,10.87,5.8,5.8,0,0,0,1.2,4,57.54,57.54,0,0,0,3.56,12.12l.81,2.94,4.2,13.58c.22,1.27,0,2.67,1.12,3.67a38.94,38.94,0,0,0,2.83,9.75c.31,1.32.12,2.82,1.33,3.84.38,4.18,2.13,8,3.27,12l1.45,4.1a69.4,69.4,0,0,0,3.89,13.17c.18.57.35,1.15.53,1.73l3,10.95c.33,1.68.67,3.35,1,5q.41,7,.83,14l-.68,6a87.37,87.37,0,0,1-4.93,19.1l-4.74,9.67a89.2,89.2,0,0,1-22.66,23l-10.91,6.06-22.95,8.19a19.61,19.61,0,0,0-7,1.67l-17,2.52-6,.74c-4.74.26-9.48.62-14.22.72-2.12.05-2.85.77-2.77,2.88.16,4.42.13,8.84.17,13.27l0,5q0,7.47,0,14.94c0,1.67,0,3.34,0,5l0,14.94c0,1.67,0,3.35,0,5l0,14.94,0,5q0,7.47,0,14.94c0,1.67,0,3.35,0,5l0,14.94,0,5q0,7.47,0,14.94c0,1.68,0,3.35,0,5q0,7.47,0,14.94c0,1.68,0,3.35,0,5-.42,7-.42,7,6.3,7,1.49,0,3-.12,4.47-.18l5,0,14.94,0ZM212.37,126c-.41-1.73-.58-3.56-1.76-5a54.46,54.46,0,0,0-3.76-12.73c-.23-1.24,0-2.64-1.1-3.62a40.43,40.43,0,0,0-2.83-9.74c-.32-1.32-.12-2.82-1.34-3.83-.38-4.18-2.11-8-3.27-12L196.87,75a68.12,68.12,0,0,0-4-13.19l-.48-1.7A55.93,55.93,0,0,0,188.76,48c-.09-1,.08-2.19-.89-3l-3.42-11.89L183.24,29q-1.73-5.47-3.44-10.93c-1.16-3.76-4.13-1.2-6.2-1.76l-14.94,0-5,0-14.94,0-5,0-14.94,0-5,0-15,0-5,0-15,0-5-.05C64,15.85,64,15.85,61.23,24.91c-.52,1.72-.88,3.48-1.32,5.22a20.08,20.08,0,0,0-2,7,170.34,170.34,0,0,0-6.37,21,17.59,17.59,0,0,0-2,6.83A182.62,182.62,0,0,0,42.91,87a16.48,16.48,0,0,0-2,7c-2.88,6.84-4.48,14.09-6.66,21.15L32.06,123q-2,6.45-4,12.9c-3.13,10.31-6.39,20.59-9.37,30.95-7.2,24.92,2.23,49.67,23.6,63.33C59.19,241,78.16,244.68,97.58,246.6a236.79,236.79,0,0,0,55.68-.86c18.08-2.49,35.68-6.52,50.71-17.61,17.17-12.68,24.92-29.84,22.67-51.09-1.51-14.29-7.36-27.49-11.3-41.17Z"/><path id="Path_25" data-name="Path 25" class="cls-2" d="M215.33,135.88c3.95,13.68,9.8,26.88,11.31,41.17,2.25,21.25-5.5,38.41-22.68,51.08-15,11.09-32.63,15.12-50.7,17.61a236.25,236.25,0,0,1-55.68.86C78.16,244.68,59.19,241,42.3,230.15,21,216.49,11.51,191.75,18.7,166.82c3-10.36,6.24-20.64,9.38-30.95l7.8-.1h5l11.06.15c-2,9.69-5.66,19-7.21,28.77a12.08,12.08,0,0,0-1.8,7.2l0,0a26.43,26.43,0,0,0-.08,16,25,25,0,0,0,2.34,10.56c8.16,19.79,27.45,26.44,45.83,25.13,4.37-.31,6.68-3.33,6.74-7.8a7.55,7.55,0,0,0-7-8h-.08c-3.61-.37-7.27-.44-10.83-1.09-10.2-1.89-18-6.89-20.34-17.69a40.68,40.68,0,0,1,.62-19.64c1.36-5.09,3.38-10,3.84-15.33a12.69,12.69,0,0,0,1.91-7.13h0a1.82,1.82,0,0,0,.87-2c.86-3,1.73-6,2.59-9.05l-.14,0,6.64-.1H200.59Z"/><path id="Path_26" data-name="Path 26" class="cls-3" d="M63.94,154.05c-.46,5.31-2.49,10.24-3.85,15.33A40.8,40.8,0,0,0,59.47,189c2.4,10.8,10.15,15.8,20.34,17.69,3.56.65,7.22.72,10.84,1.09a7.54,7.54,0,0,1,7.1,8v.07c-.07,4.47-2.38,7.5-6.75,7.8-18.38,1.31-37.67-5.34-45.83-25.13a25,25,0,0,1-2.34-10.56q0-8,.08-16l0,0c2.07-.09,3.09-1.74,4.35-3,4.57-4.52,9.06-9.1,13.67-13.57C61.7,154.62,62.2,152.69,63.94,154.05Z"/><path id="Path_27" data-name="Path 27" class="cls-4" d="M63.21,95A16.41,16.41,0,0,0,64.9,88c.87-2.63,1.8-5.24,2.6-7.89,2.31-7.6,4.37-8.94,12.22-7.82l3,2.78c2.34,4,.29,8-.1,11.94a15,15,0,0,0-1.84,7c-2.61,6.8-4.21,13.89-5.92,20.95q-.76,2.91-1.55,5.82l-4.2,15.08.14,0-16.95-.07L55.8,122a20.08,20.08,0,0,0,1.9-7Z"/><path id="Path_28" data-name="Path 28" class="cls-3" d="M52.35,135.82l16.95.07-2.58,9a2.07,2.07,0,0,0-.88,2h0c-2.13,0-3.14,1.65-4.4,2.9-4.59,4.52-9.09,9.13-13.72,13.62-.73.71-1.24,2.66-3,1.25,1.55-9.8,5.2-19.08,7.2-28.77l.16-.21Z"/><path id="Path_29" data-name="Path 29" class="cls-3" d="M44.75,164.69c1.74,1.41,2.25-.54,3-1.25,4.63-4.49,9.13-9.1,13.72-13.62,1.26-1.25,2.27-2.94,4.4-2.9a12.79,12.79,0,0,1-1.91,7.13c-1.74-1.36-2.25.57-3,1.29-4.61,4.46-9.1,9.06-13.67,13.57-1.26,1.24-2.28,2.9-4.35,3A12,12,0,0,1,44.75,164.69Z"/><path id="Path_30" data-name="Path 30" class="cls-3" d="M42.91,171.94q0,8-.08,16A26.4,26.4,0,0,1,42.91,171.94Z"/><path id="Path_31" data-name="Path 31" class="cls-3" d="M65.84,146.92a2.07,2.07,0,0,1,.88-2A1.83,1.83,0,0,1,65.84,146.92Z"/><path id="Path_32" data-name="Path 32" class="cls-5" d="M84.77,48.18l3,2.06A9.5,9.5,0,0,1,88.53,61L86.7,62.81A9.48,9.48,0,0,1,76,62l-2.07-2.95C73.66,50.4,76.11,48,84.77,48.18Z"/></g></g></g></g></g></svg>