<svg xmlns="http://www.w3.org/2000/svg" viewBox="0 0 227.39 735.01"><defs><style>.cls-1{fill:#fad6a5;}</style></defs><g id="Layer_2" data-name="Layer 2"><g id="Layer_1-2" data-name="Layer 1"><g id="Group_4" data-name="Group 4"><g id="Group_3" data-name="Group 3"><path id="Path_3" data-name="Path 3" d="M113.23,735H31.94c-5.37,0-11.77.75-13.06-6.09-1.24-6.54,4.75-9,9.59-11.1,13-5.66,27-8.21,40.84-10.41,16.08-2.55,24.58-11.64,28.41-27,4.18-16.84,5.2-34,5.25-51.08.15-40.74,2.72-81.66-7.19-121.84-6.12-24.84-16.44-47.74-33.4-66.86C18.54,391.09,3.72,331.89.66,267.72-3.55,179.53,13.13,94,30.31,8.36,31.69,1.47,34.57,0,40.93,0Q113.07.33,185.2,0c6.62,0,9.91,1.16,11.5,8.75,15,71.7,28.18,143.68,30.42,217.1,1.51,49.81-3,99-20.35,146.34-9.09,24.71-23.82,45.94-40.55,65.88-27.08,32.29-39.7,70-41.35,111.51-1.59,40-3.71,80.09,2.19,120,4,26.81,9.58,32.7,35.48,38.54,11.87,2.67,24,4.42,35.27,9.35,5,2.21,11.77,4.54,10.08,11.82-1.55,6.75-8.07,5.68-13.37,5.68Zm.23-724.13c-21,0-42,.26-62.94-.15-7-.13-9.63,1.78-11.11,9.07-8.25,40.68-16,81.45-21.21,122.65-7.39,58.85-10.48,117.8,1.49,176.43,7.41,36.29,19.89,70.51,48,96.61,27.82,25.82,63.54,25.67,91.56.05,14-12.83,24.1-28.44,31.83-45.63,15.74-34.94,21.68-72.05,23.35-109.95C218,177.69,203.24,97.53,187,17.51c-1.28-6.34-4.51-6.75-9.5-6.72-21.35.11-42.71.05-64.07,0Z"/><path id="Path_4" data-name="Path 4" class="cls-1" d="M165.75,333.13c5.68-44.84,7.29-89.9,8.89-134.9,1.34-37.54,3.56-75.13,1.67-112.74-.25-5.07-1-10.9,7.2-9.93,5.93.7,14.24-3.89,15.76,7.27,3.46,25.21,8.39,50.26,11.21,75.53,6,53.67,7.88,107.43-1.8,161-6,33.14-16.11,64.9-37,92.44-12.26,16.16-27.17,29.55-48.23,33.31-23.76,4.24-42.89-5.55-58.67-22C36.71,393.83,24.67,357.41,18,319.15c-10.76-61.51-7.52-123.1,1.17-184.56,2.34-16.52,5.3-33,7.6-49.5.95-6.81,3.34-10,11.34-9.85,35.69.46,71.39.35,107.08.09,7.19-.06,9.56,2.18,9.81,9.24q3.61,100.8,7.88,201.57C163.51,301.82,164.77,317.47,165.75,333.13ZM57.93,171.63c.55,8.72,5.36,14.52,14.1,14.8,9.28.3,15.39-5.08,15.34-14.54-.05-8.8-5.74-14-14.5-14.15C63.92,157.57,59.08,163.11,57.93,171.63Zm.58,59.06c-6.9,1.18-12.22,3.57-12.28,11.65-.06,7.93,4.8,11.58,11.79,11.83,7.25.25,12.12-3.91,12.24-11.39s-4.58-11.09-11.75-12.09Zm60,49.19c-.84-6-2.84-11.75-10-12.4S95.83,270,94.86,277.63c-.94,7.47,3.39,12.51,10.37,13.4,7.33.93,11.53-4.1,13.27-11.15ZM83.85,104.68c-6.6.84-10.66,4.67-10.69,10.67,0,6.66,4.43,11.3,11.43,10.89,6.72-.39,11.11-4.72,10.46-11.77-.59-6.31-5-9.32-11.2-9.79ZM95.19,327.61c-1.44-6.42-5-10.42-12.33-9.93-6.8.46-10.22,5-9.94,10.82.31,6.56,4.76,10.61,12,10,6.54-.55,9.57-4.68,10.22-10.88Zm19.2,57.48c5-.92,7.78-3.9,7.71-8.45a7.53,7.53,0,0,0-7.23-7.82,6.77,6.77,0,0,0-.78,0c-5.14.14-8.71,3.48-8.16,8.85.47,4.61,4,6.83,8.45,7.42ZM100.58,223c5-.53,7.87-3.1,7.64-8.06s-3.1-7.62-8.15-7.43-7.7,3.14-7.59,8,3.2,7.27,8.09,7.48Z"/></g></g></g></g></svg>