<svg xmlns="http://www.w3.org/2000/svg" viewBox="0 0 133.26 379.03"><g id="Layer_2" data-name="Layer 2"><g id="Layer_1-2" data-name="Layer 1"><g id="UepxBW.tif"><path d="M61.65,297c0-21.79-.23-43.58.17-65.35.1-5.61-2-6.9-6.87-7.34A70.25,70.25,0,0,1,19.41,211.2C3.7,199.8-1.09,183.93.2,165.25Q4.61,101.6,10.79,38.11c1.05-10.75,2.12-21.49,3-32.25C14.16,1.66,16.45,0,20.33,0h92.79c4.16,0,6.34,1.82,6.73,6.21,2.52,28.62,5.21,57.23,7.81,85.85,2.1,23.17,3.71,46.37,5.36,69.58,2.43,34.23-13.45,55.28-47.36,61.65-1.64.31-3.25.73-4.89.94-9,1.17-9,1.16-9,9.92,0,43.07,0,86.15-.13,129.21,0,4.34,1.35,5.17,5.34,5.12,15.46-.21,30.93.17,46.39-.18,5.36-.12,4.64,2.87,4.94,6.22.38,4.26-1.92,4.39-5.14,4.38q-56.39-.12-112.75-.12c-1.71,0-4.24,1-5-1a12.56,12.56,0,0,1,0-8.32c.63-1.75,3-1,4.53-1,15.46-.06,30.93-.19,46.39,0,4,.06,5.39-.84,5.35-5.16-.23-22.11-.11-44.23-.11-66.34Zm5.06-286.6c-12.64,0-25.29.21-37.92-.12-4.47-.12-5.68,1.52-6,5.59-.66,9.77-1.7,19.52-2.57,29.28-1.48,16.38-2.89,32.77-4.45,49.14-.31,3.2.65,4.69,3.89,5.55,18.61,5,36.78,4.5,54.46-3.71,6-2.79,11.91-5.91,18.1-8.26C95.47,86.62,96.08,85,95.75,82c-1-8.92-1.78-17.85-2.65-26.79-.2-2.09-1-4.86,2.58-4.38,2.77.36,7.33-3.13,7.78,3.29.59,8.45,1.77,16.87,2.06,25.33.15,4.21,1.71,4.73,5.1,3.83a11.86,11.86,0,0,1,3.45-.46c2.31.07,2.69-1,2.5-3.1q-3.07-32.5-6-65c-.29-3.33-1.58-4.45-5-4.4C92.65,10.47,79.68,10.36,66.71,10.37ZM112,165.62c-1.23-25.23-3.55-50.38-5.67-75.54-.52-6.26-1.34-6.51-7.28-4.48-1.93.66-2.67,1.63-2.48,3.61.24,2.48.24,5,.47,7.47,2.27,24.49,4,49,5.61,73.56.62,9.31-3.54,15.12-11.54,18.94-5.58,2.66-5.94,3.88-3.24,9.41.56,1.15,1,1.8,2.58,1.55,9.25-1.5,20.14-12.67,21.48-22.07C112.5,173.91,112,169.78,112,165.62Zm-62.25-17.2c.17-3.32.92-6.3-4.31-6.12-4.37.15-6,1.11-5.74,5.71.16,3.73.49,5.66,5,5.45C48.59,153.27,50.8,152.63,49.73,148.42Zm41,16.66c.27-3.25.63-5.65-4.2-5.74-5.37-.1-5.54,2.27-5.7,6.43-.17,4.39,1.86,4.49,5.27,4.74C90.85,170.85,91.36,168.53,90.76,165.08Zm-11-40c.45-3.44.52-6-4.43-5.82-3.91.17-5.52.86-5.38,5.17.13,3.78.59,5.67,5.06,5.49C78.69,129.73,80.77,129.16,79.75,125.05Z" transform="translate(0 0)"/><path d="M101.77,35.92c.53,3.14-.07,5-3.94,4.88-3.2-.07-6.8,1.39-6.28-4.14.12-1.28-.42-2.6-.55-3.91-.64-6,1.92-8.16,8-7,1.6.3,1.7,1.17,1.84,2.36C101.09,30.69,101.44,33.3,101.77,35.92Z" transform="translate(0 0)"/></g></g></g></svg>